<?xml version="1.0" encoding="UTF-8" standalone="no"?>
<!DOCTYPE svg PUBLIC "-//W3C//DTD SVG 1.1//EN" "http://www.w3.org/Graphics/SVG/1.1/DTD/svg11.dtd">
<svg width="100%" height="100%" viewBox="0 0 1800 1096" version="1.1" xmlns="http://www.w3.org/2000/svg" xmlns:xlink="http://www.w3.org/1999/xlink" xml:space="preserve" xmlns:serif="http://www.serif.com/" style="fill-rule:evenodd;clip-rule:evenodd;stroke-linejoin:round;stroke-miterlimit:2;">
    <g transform="matrix(1.93942,0,0,1.93942,-970.496,-1313.89)">
        <g transform="matrix(0.965926,0.258819,-0.344504,1.28571,619.149,-460.99)">
            <path d="M763.43,746.252C763.43,743.371 761.647,740.653 758.604,738.899C755.562,737.145 751.606,736.554 747.902,737.3L647.998,757.411C642.605,758.497 638.855,762.168 638.855,766.363L638.855,1181.9C638.855,1184.79 640.639,1187.5 643.682,1189.26C646.724,1191.01 650.68,1191.6 654.384,1190.86L754.287,1170.74C759.68,1169.66 763.43,1165.99 763.43,1161.79L763.43,746.252Z" style="fill:white;"/>
        </g>
        <g transform="matrix(0.965926,0.258819,-0.344504,1.28571,303.859,-460.99)">
            <path d="M763.43,746.252C763.43,743.371 761.647,740.653 758.604,738.899C755.562,737.145 751.606,736.554 747.902,737.3L647.998,757.411C642.605,758.497 638.855,762.168 638.855,766.363L638.855,1181.9C638.855,1184.79 640.639,1187.5 643.682,1189.26C646.724,1191.01 650.68,1191.6 654.384,1190.86L754.287,1170.74C759.68,1169.66 763.43,1165.99 763.43,1161.79L763.43,746.252Z" style="fill:white;"/>
        </g>
        <g transform="matrix(0.965926,0.258819,-0.344504,1.28571,934.439,-460.99)">
            <path d="M763.43,746.252C763.43,743.371 761.647,740.653 758.604,738.899C755.562,737.145 751.606,736.554 747.902,737.3L647.998,757.411C642.605,758.497 638.855,762.168 638.855,766.363L638.855,1181.9C638.855,1184.79 640.639,1187.5 643.682,1189.26C646.724,1191.01 650.68,1191.6 654.384,1190.86L754.287,1170.74C759.68,1169.66 763.43,1165.99 763.43,1161.79L763.43,746.252Z" style="fill:white;"/>
        </g>
    </g>
</svg>
