<?xml version="1.0" encoding="UTF-8" standalone="no"?>
<!DOCTYPE svg PUBLIC "-//W3C//DTD SVG 1.1//EN" "http://www.w3.org/Graphics/SVG/1.1/DTD/svg11.dtd">
<svg width="100%" height="100%" viewBox="0 0 1000 1000" version="1.1" xmlns="http://www.w3.org/2000/svg" xmlns:xlink="http://www.w3.org/1999/xlink" xml:space="preserve" xmlns:serif="http://www.serif.com/" style="fill-rule:evenodd;clip-rule:evenodd;stroke-linecap:round;stroke-linejoin:round;stroke-miterlimit:1.5;">
    <g>
        <g transform="matrix(0.999999,2.37432e-06,-4.18438e-06,1.00001,0.00184838,-0.00392396)">
            <g>
                <path d="M465.081,505.097C466.543,507.248 469.476,507.808 471.627,506.346C473.779,504.884 474.338,501.951 472.876,499.8C471.415,497.648 468.481,497.089 466.33,498.55C464.179,500.012 463.619,502.946 465.081,505.097Z" style="fill:rgb(22,32,47);"/>
                <path d="M378.285,375.37C377.171,373.73 377.597,371.495 379.236,370.382C380.876,369.268 383.11,369.694 384.224,371.333C385.338,372.973 384.912,375.207 383.273,376.321C381.633,377.435 379.398,377.009 378.285,375.37Z" style="fill:rgb(22,32,47);"/>
                <path d="M468.979,502.448L381.254,373.351" style="fill:none;stroke:rgb(22,32,47);stroke-width:1.05px;"/>
            </g>
        </g>
        <g transform="matrix(0.999999,2.37432e-06,-4.18438e-06,1.00001,0.00184838,-0.00392396)">
            <g>
                <path d="M468.501,501.825C468.157,502.089 468.092,502.582 468.355,502.926C468.619,503.27 469.113,503.335 469.457,503.071C469.801,502.808 469.866,502.314 469.602,501.97C469.338,501.626 468.845,501.561 468.501,501.825Z" style="fill:rgb(22,32,47);"/>
                <path d="M691.374,324.624C693.88,322.702 697.475,323.176 699.397,325.681C701.32,328.187 700.846,331.782 698.34,333.705C695.834,335.627 692.239,335.153 690.317,332.648C688.394,330.142 688.868,326.547 691.374,324.624Z" style="fill:rgb(22,32,47);"/>
                <path d="M468.979,502.448L694.857,329.165" style="fill:none;stroke:rgb(22,32,47);stroke-width:1.05px;"/>
            </g>
        </g>
        <g transform="matrix(0.999999,2.37432e-06,-4.18438e-06,1.00001,0.00184838,-0.00392396)">
            <g>
                <path d="M469.731,502.223C469.607,501.808 469.169,501.572 468.753,501.696C468.338,501.82 468.102,502.258 468.226,502.673C468.35,503.089 468.789,503.325 469.204,503.201C469.619,503.076 469.855,502.638 469.731,502.223Z" style="fill:rgb(22,32,47);"/>
                <path d="M533.584,698.338C534.49,701.363 532.768,704.555 529.743,705.461C526.717,706.366 523.525,704.645 522.62,701.62C521.714,698.594 523.435,695.402 526.461,694.497C529.487,693.591 532.678,695.312 533.584,698.338Z" style="fill:rgb(22,32,47);"/>
                <path d="M468.979,502.448L528.102,699.979" style="fill:none;stroke:rgb(22,32,47);stroke-width:1.05px;"/>
            </g>
        </g>
        <g transform="matrix(0.999999,2.37432e-06,-4.18438e-06,1.00001,0.00184838,-0.00392396)">
            <g>
                <path d="M838.79,656.74C840.634,656.463 841.905,654.742 841.629,652.899C841.352,651.055 839.63,649.783 837.787,650.06C835.944,650.337 834.672,652.058 834.949,653.902C835.226,655.745 836.947,657.017 838.79,656.74Z" style="fill:rgb(22,32,47);"/>
                <path d="M528.952,705.638C525.828,706.107 522.912,703.952 522.443,700.828C521.974,697.705 524.129,694.789 527.252,694.32C530.375,693.851 533.292,696.006 533.761,699.129C534.23,702.252 532.075,705.169 528.952,705.638Z" style="fill:rgb(22,32,47);"/>
                <path d="M838.289,653.4L528.102,699.979" style="fill:none;stroke:rgb(22,32,47);stroke-width:1.05px;"/>
            </g>
        </g>
        <g transform="matrix(0.999999,2.37432e-06,-4.18438e-06,1.00001,0.00184838,-0.00392396)">
            <g>
                <path d="M556.451,957.616C556.679,959.466 558.366,960.783 560.216,960.555C562.066,960.327 563.383,958.639 563.155,956.789C562.927,954.939 561.24,953.623 559.39,953.851C557.54,954.079 556.223,955.766 556.451,957.616Z" style="fill:rgb(22,32,47);"/>
                <path d="M522.422,700.679C522.036,697.544 524.267,694.686 527.402,694.299C530.536,693.913 533.395,696.144 533.781,699.279C534.168,702.413 531.936,705.272 528.802,705.658C525.667,706.044 522.809,703.813 522.422,700.679Z" style="fill:rgb(22,32,47);"/>
                <path d="M559.803,957.203L528.102,699.979" style="fill:none;stroke:rgb(22,32,47);stroke-width:1.05px;"/>
            </g>
        </g>
        <g transform="matrix(0.999999,2.37432e-06,-4.18438e-06,1.00001,0.00184838,-0.00392396)">
            <g>
                <path d="M559.451,953.844C557.597,954.038 556.25,955.701 556.444,957.555C556.639,959.409 558.302,960.756 560.156,960.561C562.01,960.367 563.357,958.704 563.162,956.85C562.967,954.996 561.304,953.649 559.451,953.844Z" style="fill:rgb(22,32,47);"/>
                <path d="M866.414,919.261C869.555,918.931 872.373,921.214 872.703,924.355C873.033,927.496 870.75,930.314 867.609,930.644C864.468,930.973 861.65,928.691 861.321,925.55C860.991,922.409 863.273,919.591 866.414,919.261Z" style="fill:rgb(22,32,47);"/>
                <path d="M559.803,957.203L867.012,924.952" style="fill:none;stroke:rgb(22,32,47);stroke-width:1.05px;"/>
            </g>
        </g>
        <g transform="matrix(0.999999,2.37432e-06,-4.18438e-06,1.00001,0.00184838,-0.00392396)">
            <g>
                <path d="M557.662,954.591C556.22,955.773 556.01,957.903 557.192,959.344C558.374,960.785 560.504,960.996 561.945,959.814C563.386,958.632 563.597,956.502 562.415,955.061C561.233,953.62 559.103,953.409 557.662,954.591Z" style="fill:rgb(22,32,47);"/>
                <path d="M750.333,793.553C752.775,791.55 756.384,791.907 758.386,794.349C760.389,796.791 760.032,800.4 757.59,802.403C755.148,804.405 751.539,804.049 749.537,801.607C747.534,799.164 747.891,795.556 750.333,793.553Z" style="fill:rgb(22,32,47);"/>
                <path d="M559.803,957.203L753.962,797.978" style="fill:none;stroke:rgb(22,32,47);stroke-width:1.05px;"/>
            </g>
        </g>
        <g transform="matrix(0.999999,2.37432e-06,-4.18438e-06,1.00001,0.00184838,-0.00392396)">
            <g>
                <path d="M840.229,650.636C838.703,649.565 836.595,649.934 835.524,651.46C834.453,652.986 834.823,655.094 836.349,656.165C837.874,657.235 839.982,656.866 841.053,655.34C842.124,653.814 841.755,651.706 840.229,650.636Z" style="fill:rgb(22,32,47);"/>
                <path d="M838.289,653.4L1072.41,817.702" style="fill:none;stroke:rgb(22,32,47);stroke-width:1.05px;"/>
            </g>
        </g>
        <g transform="matrix(0.999999,2.37432e-06,-4.18438e-06,1.00001,-0.00171466,-0.000174188)">
            <g>
                <path d="M75.713,813.018C78.298,814.832 78.924,818.404 77.11,820.989C75.296,823.575 71.724,824.201 69.139,822.386C66.554,820.572 65.928,817 67.742,814.415C69.556,811.83 73.128,811.204 75.713,813.018Z" style="fill:rgb(22,32,47);"/>
                <path d="M-161.7,653.4L72.426,817.702" style="fill:none;stroke:rgb(22,32,47);stroke-width:1.05px;"/>
            </g>
        </g>
        <g transform="matrix(0.999999,2.37432e-06,-4.18438e-06,1.00001,-0.00171466,-0.000174188)">
            <g>
                <path d="M206.613,635.315C207.695,633.798 207.341,631.687 205.824,630.605C204.306,629.523 202.195,629.876 201.113,631.394C200.031,632.912 200.385,635.023 201.902,636.105C203.42,637.187 205.531,636.833 206.613,635.315Z" style="fill:rgb(22,32,47);"/>
                <path d="M77.085,821.024C75.252,823.596 71.675,824.195 69.104,822.362C66.532,820.528 65.933,816.952 67.767,814.38C69.6,811.808 73.176,811.209 75.748,813.043C78.32,814.876 78.919,818.453 77.085,821.024Z" style="fill:rgb(22,32,47);"/>
                <path d="M203.863,633.355L72.426,817.702" style="fill:none;stroke:rgb(22,32,47);stroke-width:1.05px;"/>
            </g>
        </g>
        <g transform="matrix(0.999999,2.37432e-06,-4.18438e-06,1.00001,-0.00171466,-0.000174188)">
            <g>
                <path d="M89.75,537.743C89.843,535.882 88.407,534.295 86.545,534.202C84.684,534.11 83.097,535.546 83.004,537.407C82.911,539.269 84.348,540.856 86.209,540.949C88.071,541.041 89.658,539.605 89.75,537.743Z" style="fill:rgb(22,32,47);"/>
                <path d="M78.141,817.987C77.984,821.141 75.296,823.575 72.141,823.418C68.987,823.26 66.553,820.572 66.711,817.418C66.868,814.263 69.556,811.83 72.711,811.987C75.865,812.144 78.298,814.832 78.141,817.987Z" style="fill:rgb(22,32,47);"/>
                <path d="M86.377,537.575L72.426,817.702" style="fill:none;stroke:rgb(22,32,47);stroke-width:1.05px;"/>
            </g>
        </g>
        <g transform="matrix(0.999999,2.37432e-06,-4.18438e-06,1.00001,0.00184838,-0.00392396)">
            <g>
                <path d="M690.145,579.377C690.145,581.978 692.256,584.09 694.857,584.09C697.458,584.09 699.57,581.978 699.57,579.377C699.57,576.776 697.458,574.665 694.857,574.665C692.256,574.665 690.145,576.776 690.145,579.377Z" style="fill:rgb(22,32,47);"/>
                <path d="M694.464,329.165C694.464,328.948 694.64,328.772 694.857,328.772C695.074,328.772 695.25,328.948 695.25,329.165C695.25,329.381 695.074,329.557 694.857,329.557C694.64,329.557 694.464,329.381 694.464,329.165Z" style="fill:rgb(22,32,47);"/>
                <path d="M694.857,579.377L694.857,329.165" style="fill:none;stroke:rgb(22,32,47);stroke-width:1.05px;"/>
            </g>
        </g>
        <g transform="matrix(0.999999,2.37432e-06,-4.18438e-06,1.00001,0.00184838,-0.00392396)">
            <g>
                <path d="M692.035,575.603C689.952,577.161 689.525,580.117 691.083,582.2C692.641,584.282 695.597,584.709 697.679,583.151C699.762,581.594 700.189,578.638 698.631,576.555C697.073,574.472 694.118,574.046 692.035,575.603Z" style="fill:rgb(22,32,47);"/>
                <path d="M933.178,395.265C935.261,393.707 938.217,394.134 939.774,396.217C941.332,398.3 940.906,401.255 938.823,402.813C936.74,404.371 933.784,403.944 932.226,401.861C930.669,399.778 931.095,396.823 933.178,395.265Z" style="fill:rgb(22,32,47);"/>
                <path d="M694.857,579.377L936,399.039" style="fill:none;stroke:rgb(22,32,47);stroke-width:1.05px;"/>
            </g>
        </g>
        <g transform="matrix(0.999999,2.37432e-06,-4.18438e-06,1.00001,0.0022971,-0.00340691)">
            <g>
                <path d="M932.806,402.505C930.894,400.742 930.772,397.758 932.534,395.846C934.297,393.933 937.281,393.811 939.194,395.574C941.106,397.336 941.228,400.32 939.466,402.233C937.703,404.145 934.719,404.267 932.806,402.505Z" style="fill:rgb(22,32,47);"/>
                <path d="M1086.33,537.575L936,399.039" style="fill:none;stroke:rgb(22,32,47);stroke-width:1.05px;"/>
            </g>
        </g>
        <g transform="matrix(0.999999,2.37432e-06,-4.18438e-06,1.00001,0.0022971,-0.00340691)">
            <g>
                <path d="M936.72,403.696C934.15,404.094 931.74,402.33 931.343,399.759C930.945,397.189 932.709,394.779 935.28,394.382C937.85,393.984 940.26,395.748 940.657,398.319C941.055,400.889 939.291,403.299 936.72,403.696Z" style="fill:rgb(22,32,47);"/>
                <path d="M1102.09,373.351L936,399.039" style="fill:none;stroke:rgb(22,32,47);stroke-width:1.05px;"/>
            </g>
        </g>
        <g transform="matrix(0.999999,2.37432e-06,-4.18438e-06,1.00001,-0.000707325,-0.00034373)">
            <g>
                <path d="M83.14,541.041C85.053,542.804 88.037,542.682 89.799,540.769C91.562,538.856 91.44,535.872 89.528,534.11C87.615,532.347 84.631,532.469 82.868,534.382C81.106,536.295 81.228,539.278 83.14,541.041Z" style="fill:rgb(22,32,47);"/>
                <path d="M86.334,537.575L-64,399.039" style="fill:none;stroke:rgb(22,32,47);stroke-width:1.05px;"/>
            </g>
        </g>
        <g transform="matrix(0.999999,2.37432e-06,-4.18438e-06,1.00001,-0.000707325,-0.00034373)">
            <g>
                <path d="M102.519,376.11C104.042,375.874 105.086,374.447 104.851,372.925C104.615,371.403 103.188,370.358 101.666,370.593C100.144,370.829 99.099,372.256 99.334,373.778C99.57,375.3 100.997,376.345 102.519,376.11Z" style="fill:rgb(22,32,47);"/>
                <path d="M102.093,373.351L-64,399.039" style="fill:none;stroke:rgb(22,32,47);stroke-width:1.05px;"/>
            </g>
        </g>
        <g transform="matrix(0.999999,2.37432e-06,-4.18438e-06,1.00001,0.00184838,-0.00392396)">
            <g>
                <path d="M841.818,125.669C841.119,123.721 838.969,122.708 837.021,123.407C835.073,124.107 834.059,126.256 834.759,128.204C835.458,130.153 837.608,131.166 839.556,130.467C841.504,129.767 842.518,127.617 841.818,125.669Z" style="fill:rgb(22,32,47);"/>
                <path d="M940.436,397.446C941.315,399.894 940.041,402.595 937.593,403.474C935.145,404.353 932.444,403.08 931.565,400.632C930.686,398.184 931.96,395.483 934.408,394.604C936.856,393.725 939.557,394.998 940.436,397.446Z" style="fill:rgb(22,32,47);"/>
                <path d="M838.289,126.937L936,399.039" style="fill:none;stroke:rgb(22,32,47);stroke-width:1.05px;"/>
            </g>
        </g>
        <g transform="matrix(0.999999,2.37432e-06,-4.18438e-06,1.00001,0.00184838,-0.00392396)">
            <g>
                <path d="M920.625,563.388C920.479,565.453 922.037,567.248 924.102,567.394C926.166,567.54 927.961,565.982 928.107,563.917C928.253,561.852 926.695,560.058 924.63,559.912C922.566,559.766 920.771,561.324 920.625,563.388Z" style="fill:rgb(22,32,47);"/>
                <path d="M931.3,398.707C931.483,396.112 933.738,394.155 936.333,394.338C938.927,394.522 940.885,396.777 940.701,399.371C940.518,401.966 938.263,403.923 935.668,403.74C933.074,403.557 931.116,401.301 931.3,398.707Z" style="fill:rgb(22,32,47);"/>
                <path d="M924.366,563.653L936,399.039" style="fill:none;stroke:rgb(22,32,47);stroke-width:1.05px;"/>
            </g>
        </g>
        <g transform="matrix(0.999999,2.37432e-06,-4.18438e-06,1.00001,0.00184838,-0.00392396)">
            <g>
                <path d="M927.073,566.249C928.506,564.755 928.456,562.379 926.962,560.946C925.468,559.513 923.092,559.563 921.659,561.057C920.226,562.551 920.276,564.927 921.77,566.359C923.264,567.792 925.64,567.743 927.073,566.249Z" style="fill:rgb(22,32,47);"/>
                <path d="M841.69,656.662C839.889,658.539 836.904,658.602 835.027,656.801C833.15,655.001 833.087,652.015 834.888,650.138C836.688,648.261 839.674,648.199 841.551,649.999C843.428,651.799 843.49,654.785 841.69,656.662Z" style="fill:rgb(22,32,47);"/>
                <path d="M924.366,563.653L838.289,653.4" style="fill:none;stroke:rgb(22,32,47);stroke-width:1.05px;"/>
            </g>
        </g>
        <g transform="matrix(0.999999,2.37432e-06,-4.18438e-06,1.00001,-0.00110204,-0.000294236)">
            <g>
                <path d="M85.628,532.923C88.196,532.509 90.617,534.258 91.03,536.826C91.443,539.394 89.694,541.815 87.126,542.228C84.558,542.642 82.138,540.892 81.725,538.324C81.311,535.757 83.06,533.336 85.628,532.923Z" style="fill:rgb(22,32,47);"/>
                <path d="M-75.6,563.653L86.377,537.575" style="fill:none;stroke:rgb(22,32,47);stroke-width:1.05px;"/>
            </g>
        </g>
        <g transform="matrix(0.999999,2.37432e-06,-4.18438e-06,1.00001,0.00195853,-0.00347228)">
            <g>
                <path d="M923.804,559.95C921.76,560.279 920.368,562.205 920.697,564.249C921.026,566.292 922.953,567.685 924.996,567.355C927.04,567.026 928.432,565.1 928.103,563.057C927.774,561.013 925.847,559.621 923.804,559.95Z" style="fill:rgb(22,32,47);"/>
                <path d="M924.4,563.653L1086.38,537.575" style="fill:none;stroke:rgb(22,32,47);stroke-width:1.05px;"/>
            </g>
        </g>
        <g transform="matrix(0.999999,2.37432e-06,-4.18438e-06,1.00001,0.00184838,-0.00392396)">
            <g>
                <path d="M921.686,566.276C923.134,567.755 925.51,567.781 926.989,566.333C928.469,564.885 928.494,562.509 927.046,561.029C925.598,559.55 923.222,559.525 921.743,560.972C920.263,562.42 920.238,564.797 921.686,566.276Z" style="fill:rgb(22,32,47);"/>
                <path d="M691.489,332.461C689.67,330.602 689.702,327.616 691.561,325.797C693.42,323.977 696.406,324.009 698.225,325.868C700.044,327.727 700.012,330.713 698.153,332.532C696.295,334.352 693.309,334.32 691.489,332.461Z" style="fill:rgb(22,32,47);"/>
                <path d="M924.366,563.653L694.857,329.165" style="fill:none;stroke:rgb(22,32,47);stroke-width:1.05px;"/>
            </g>
        </g>
        <g transform="matrix(0.999999,2.37432e-06,-4.18438e-06,1.00001,0.00184838,-0.00392396)">
            <g>
                <path d="M692.27,583.316C694.443,584.744 697.368,584.139 698.796,581.965C700.224,579.791 699.619,576.867 697.445,575.439C695.271,574.01 692.347,574.616 690.918,576.79C689.49,578.963 690.096,581.888 692.27,583.316Z" style="fill:rgb(22,32,47);"/>
                <path d="M381.039,373.68C380.858,373.561 380.807,373.317 380.926,373.136C381.045,372.955 381.289,372.904 381.47,373.023C381.651,373.142 381.702,373.386 381.583,373.567C381.464,373.748 381.22,373.799 381.039,373.68Z" style="fill:rgb(22,32,47);"/>
                <path d="M694.857,579.377L381.254,373.351" style="fill:none;stroke:rgb(22,32,47);stroke-width:1.05px;"/>
            </g>
        </g>
        <g transform="matrix(0.999999,2.37432e-06,-4.18438e-06,1.00001,0.00184838,-0.00392396)">
            <g>
                <path d="M531.969,165.101C533.455,162.966 532.929,160.026 530.794,158.54C528.66,157.054 525.72,157.581 524.234,159.716C522.748,161.85 523.275,164.79 525.409,166.276C527.544,167.762 530.483,167.235 531.969,165.101Z" style="fill:rgb(22,32,47);"/>
                <path d="M381.577,373.576C381.453,373.754 381.208,373.798 381.03,373.674C380.852,373.55 380.808,373.305 380.932,373.127C381.056,372.949 381.301,372.905 381.479,373.029C381.657,373.153 381.701,373.398 381.577,373.576Z" style="fill:rgb(22,32,47);"/>
                <path d="M528.102,162.408L381.254,373.351" style="fill:none;stroke:rgb(22,32,47);stroke-width:1.05px;"/>
            </g>
        </g>
        <g transform="matrix(0.999999,2.37432e-06,-4.18438e-06,1.00001,0.00184838,-0.00392396)">
            <g>
                <path d="M524.745,165.716C526.57,167.568 529.556,167.591 531.409,165.765C533.262,163.94 533.284,160.954 531.459,159.101C529.633,157.248 526.647,157.226 524.794,159.051C522.942,160.877 522.919,163.863 524.745,165.716Z" style="fill:rgb(22,32,47);"/>
                <path d="M412.444,48.461C411.507,47.51 411.519,45.978 412.469,45.041C413.42,44.105 414.952,44.116 415.889,45.067C416.826,46.017 416.814,47.55 415.863,48.486C414.913,49.423 413.381,49.411 412.444,48.461Z" style="fill:rgb(22,32,47);"/>
                <path d="M528.102,162.408L414.166,46.764" style="fill:none;stroke:rgb(22,32,47);stroke-width:1.05px;"/>
            </g>
        </g>
        <g transform="matrix(0.999999,2.37432e-06,-4.18438e-06,1.00001,0.00184838,-0.00392396)">
            <g>
                <path d="M464.336,501.641C463.89,504.203 465.609,506.646 468.171,507.091C470.734,507.537 473.176,505.818 473.622,503.256C474.067,500.693 472.348,498.251 469.786,497.805C467.223,497.36 464.781,499.078 464.336,501.641Z" style="fill:rgb(22,32,47);"/>
                <path d="M524.564,161.793C524.904,159.841 526.764,158.531 528.717,158.871C530.669,159.21 531.979,161.071 531.639,163.023C531.3,164.976 529.439,166.285 527.487,165.946C525.534,165.606 524.225,163.745 524.564,161.793Z" style="fill:rgb(22,32,47);"/>
                <path d="M468.979,502.448L528.102,162.408" style="fill:none;stroke:rgb(22,32,47);stroke-width:1.05px;"/>
            </g>
        </g>
        <g transform="matrix(0.999999,2.37432e-06,-4.18438e-06,1.00001,0.00184838,-0.00392396)">
            <g>
                <path d="M469.599,502.93C469.865,502.588 469.803,502.094 469.46,501.828C469.118,501.562 468.624,501.624 468.358,501.966C468.092,502.309 468.155,502.803 468.497,503.069C468.839,503.334 469.333,503.272 469.599,502.93Z" style="fill:rgb(22,32,47);"/>
                <path d="M338.178,680.199C336.241,682.694 332.643,683.146 330.149,681.209C327.654,679.272 327.202,675.674 329.139,673.179C331.076,670.685 334.674,670.233 337.169,672.17C339.663,674.107 340.116,677.705 338.178,680.199Z" style="fill:rgb(22,32,47);"/>
                <path d="M468.979,502.448L333.659,676.689" style="fill:none;stroke:rgb(22,32,47);stroke-width:1.05px;"/>
            </g>
        </g>
        <g transform="matrix(0.999999,2.37432e-06,-4.18438e-06,1.00001,0.00184838,-0.00392396)">
            <g>
                <path d="M469.326,503.153C469.715,502.961 469.875,502.489 469.683,502.101C469.491,501.712 469.02,501.552 468.631,501.744C468.242,501.936 468.082,502.407 468.274,502.796C468.466,503.185 468.938,503.344 469.326,503.153Z" style="fill:rgb(22,32,47);"/>
                <path d="M206.397,638.486C203.565,639.884 200.13,638.72 198.732,635.888C197.334,633.056 198.498,629.622 201.329,628.224C204.161,626.825 207.596,627.989 208.994,630.821C210.392,633.653 209.228,637.087 206.397,638.486Z" style="fill:rgb(22,32,47);"/>
                <path d="M468.979,502.448L203.863,633.355" style="fill:none;stroke:rgb(22,32,47);stroke-width:1.05px;"/>
            </g>
        </g>
        <g transform="matrix(0.999999,2.37432e-06,-4.18438e-06,1.00001,0.00184838,-0.00392396)">
            <g>
                <path d="M197.767,896.442C197.767,899.806 200.499,902.538 203.863,902.538C207.227,902.538 209.959,899.806 209.959,896.442C209.959,893.078 207.227,890.347 203.863,890.347C200.499,890.347 197.767,893.078 197.767,896.442Z" style="fill:rgb(22,32,47);"/>
                <path d="M198.141,633.355C198.141,630.196 200.705,627.632 203.863,627.632C207.021,627.632 209.585,630.196 209.585,633.355C209.585,636.513 207.021,639.077 203.863,639.077C200.705,639.077 198.141,636.513 198.141,633.355Z" style="fill:rgb(22,32,47);"/>
                <path d="M203.863,896.442L203.863,633.355" style="fill:none;stroke:rgb(22,32,47);stroke-width:1.05px;"/>
            </g>
        </g>
        <g transform="matrix(0.999999,2.37432e-06,-4.18438e-06,1.00001,0.00184838,-0.00392396)">
            <g>
                <path d="M201.711,890.739C198.564,891.927 196.972,895.446 198.16,898.594C199.348,901.742 202.867,903.333 206.015,902.145C209.162,900.958 210.754,897.438 209.566,894.29C208.378,891.143 204.859,889.552 201.711,890.739Z" style="fill:rgb(22,32,47);"/>
                <path d="M412.106,816.192C412.917,815.886 413.824,816.296 414.13,817.107C414.436,817.918 414.026,818.825 413.215,819.131C412.404,819.437 411.497,819.027 411.191,818.216C410.885,817.405 411.295,816.498 412.106,816.192Z" style="fill:rgb(22,32,47);"/>
                <path d="M203.863,896.442L412.661,817.662" style="fill:none;stroke:rgb(22,32,47);stroke-width:1.05px;"/>
            </g>
        </g>
        <g transform="matrix(0.999999,2.37432e-06,-4.18438e-06,1.00001,0.00184838,-0.00392396)">
            <g>
                <path d="M754.312,804.063C757.671,803.87 760.241,800.986 760.047,797.627C759.853,794.268 756.969,791.699 753.611,791.892C750.252,792.086 747.682,794.97 747.876,798.329C748.07,801.687 750.954,804.257 754.312,804.063Z" style="fill:rgb(22,32,47);"/>
                <path d="M412.877,821.406C410.81,821.525 409.036,819.944 408.916,817.878C408.797,815.811 410.378,814.037 412.445,813.917C414.511,813.798 416.286,815.379 416.405,817.446C416.524,819.512 414.943,821.287 412.877,821.406Z" style="fill:rgb(22,32,47);"/>
                <path d="M753.962,797.978L412.661,817.662" style="fill:none;stroke:rgb(22,32,47);stroke-width:1.05px;"/>
            </g>
        </g>
        <g transform="matrix(0.999999,2.37432e-06,-4.18438e-06,1.00001,0.00184838,-0.00392396)">
            <g>
                <path d="M88.848,534.545C87.175,533.181 84.71,533.432 83.346,535.105C81.983,536.777 82.234,539.243 83.906,540.606C85.579,541.97 88.044,541.719 89.408,540.046C90.772,538.374 90.521,535.908 88.848,534.545Z" style="fill:rgb(22,32,47);"/>
                <path d="M207.479,628.919C209.927,630.915 210.294,634.523 208.298,636.971C206.303,639.419 202.695,639.786 200.247,637.79C197.799,635.794 197.432,632.187 199.428,629.739C201.423,627.291 205.031,626.924 207.479,628.919Z" style="fill:rgb(22,32,47);"/>
                <path d="M86.377,537.575L203.863,633.355" style="fill:none;stroke:rgb(22,32,47);stroke-width:1.05px;"/>
            </g>
        </g>
        <g transform="matrix(0.999999,2.37432e-06,-4.18438e-06,1.00001,0.00184838,-0.00392396)">
            <g>
                <path d="M334.06,673.336C332.21,673.114 330.527,674.437 330.305,676.288C330.084,678.139 331.406,679.821 333.257,680.043C335.108,680.265 336.791,678.942 337.012,677.091C337.234,675.24 335.911,673.558 334.06,673.336Z" style="fill:rgb(22,32,47);"/>
                <path d="M528.782,694.297C531.918,694.672 534.159,697.523 533.784,700.659C533.408,703.795 530.557,706.036 527.421,705.661C524.285,705.285 522.044,702.434 522.42,699.298C522.796,696.162 525.646,693.921 528.782,694.297Z" style="fill:rgb(22,32,47);"/>
                <path d="M333.659,676.689L528.102,699.979" style="fill:none;stroke:rgb(22,32,47);stroke-width:1.05px;"/>
            </g>
        </g>
        <g transform="matrix(0.999999,2.37432e-06,-4.18438e-06,1.00001,0.00184838,-0.00392396)">
            <g>
                <path d="M330.417,677.638C330.941,679.427 332.818,680.454 334.607,679.931C336.396,679.408 337.424,677.53 336.9,675.741C336.377,673.952 334.5,672.925 332.711,673.448C330.922,673.971 329.894,675.848 330.417,677.638Z" style="fill:rgb(22,32,47);"/>
                <path d="M262.103,452.427C261.216,449.395 262.957,446.214 265.989,445.328C269.02,444.441 272.201,446.182 273.087,449.214C273.974,452.245 272.233,455.426 269.201,456.312C266.17,457.199 262.989,455.458 262.103,452.427Z" style="fill:rgb(22,32,47);"/>
                <path d="M333.659,676.689L267.595,450.82" style="fill:none;stroke:rgb(22,32,47);stroke-width:1.05px;"/>
            </g>
        </g>
        <g transform="matrix(0.999999,2.37432e-06,-4.18438e-06,1.00001,0.00184838,-0.00392396)">
            <g>
                <path d="M336.605,675.038C335.694,673.412 333.634,672.832 332.008,673.743C330.382,674.654 329.801,676.714 330.713,678.341C331.624,679.967 333.684,680.547 335.31,679.636C336.936,678.724 337.516,676.664 336.605,675.038Z" style="fill:rgb(22,32,47);"/>
                <path d="M414.305,816.74C414.814,817.648 414.49,818.797 413.582,819.306C412.675,819.815 411.525,819.491 411.016,818.583C410.508,817.676 410.832,816.526 411.739,816.017C412.647,815.509 413.796,815.832 414.305,816.74Z" style="fill:rgb(22,32,47);"/>
                <path d="M333.659,676.689L412.661,817.662" style="fill:none;stroke:rgb(22,32,47);stroke-width:1.05px;"/>
            </g>
        </g>
        <g transform="matrix(0.999999,2.37432e-06,-4.18438e-06,1.00001,0.00184838,-0.00392396)">
            <g>
                <path d="M690.658,581.516C691.838,583.834 694.678,584.757 696.996,583.576C699.314,582.396 700.237,579.556 699.056,577.238C697.876,574.921 695.036,573.997 692.718,575.178C690.401,576.358 689.477,579.198 690.658,581.516Z" style="fill:rgb(22,32,47);"/>
                <path d="M589.471,373.338C589.372,373.145 589.449,372.908 589.642,372.81C589.835,372.712 590.072,372.788 590.17,372.982C590.269,373.175 590.192,373.411 589.999,373.51C589.806,373.608 589.569,373.531 589.471,373.338Z" style="fill:rgb(22,32,47);"/>
                <path d="M694.857,579.377L589.821,373.16" style="fill:none;stroke:rgb(22,32,47);stroke-width:1.05px;"/>
            </g>
        </g>
        <g transform="matrix(0.999999,2.37432e-06,-4.18438e-06,1.00001,0.00184838,-0.00392396)">
            <g>
                <path d="M692.755,578.711C692.388,579.871 693.031,581.111 694.191,581.479C695.351,581.847 696.591,581.203 696.959,580.044C697.327,578.884 696.683,577.643 695.523,577.275C694.363,576.908 693.123,577.551 692.755,578.711Z" style="fill:rgb(22,32,47);"/>
                <path d="M836.543,126.383C836.848,125.42 837.879,124.885 838.842,125.191C839.806,125.496 840.34,126.527 840.035,127.49C839.729,128.454 838.699,128.988 837.735,128.683C836.771,128.377 836.237,127.347 836.543,126.383Z" style="fill:rgb(22,32,47);"/>
                <path d="M694.857,579.377L838.289,126.937" style="fill:none;stroke:rgb(22,32,47);stroke-width:1.05px;"/>
            </g>
        </g>
        <g transform="matrix(0.999999,2.37432e-06,-4.18438e-06,1.00001,0.00184838,-0.00392396)">
            <g>
                <path d="M950.52,28.09C951.421,27.272 951.489,25.877 950.671,24.976C949.854,24.074 948.458,24.007 947.557,24.824C946.656,25.642 946.588,27.037 947.405,27.939C948.223,28.84 949.619,28.908 950.52,28.09Z" style="fill:rgb(22,32,47);"/>
                <path d="M839.519,128.293C838.771,128.973 837.611,128.916 836.932,128.168C836.253,127.419 836.309,126.26 837.058,125.58C837.807,124.901 838.966,124.957 839.645,125.706C840.325,126.455 840.268,127.614 839.519,128.293Z" style="fill:rgb(22,32,47);"/>
                <path d="M949.038,26.457L838.289,126.937" style="fill:none;stroke:rgb(22,32,47);stroke-width:1.05px;"/>
            </g>
        </g>
        <g transform="matrix(0.999999,2.37432e-06,-4.18438e-06,1.00001,0.00323804,-0.0106949)">
            <g>
                <path d="M865.587,926.103C864.952,925.317 865.074,924.163 865.861,923.527C866.647,922.892 867.801,923.015 868.437,923.801C869.072,924.588 868.949,925.742 868.163,926.377C867.376,927.013 866.222,926.89 865.587,926.103Z" style="fill:rgb(22,32,47);"/>
                <path d="M949.038,1026.5L867.012,924.952" style="fill:none;stroke:rgb(22,32,47);stroke-width:1.05px;"/>
            </g>
        </g>
        <g transform="matrix(0.999999,2.37432e-06,-4.18438e-06,1.00001,0.00230947,-0.00348577)">
            <g>
                <path d="M947.323,27.885C948.088,28.832 949.477,28.98 950.424,28.215C951.37,27.451 951.518,26.061 950.753,25.115C949.989,24.168 948.6,24.02 947.653,24.785C946.706,25.549 946.559,26.939 947.323,27.885Z" style="fill:rgb(22,32,47);"/>
                <path d="M949.038,26.5L867.012,-75.048" style="fill:none;stroke:rgb(22,32,47);stroke-width:1.05px;"/>
            </g>
        </g>
        <g transform="matrix(1.01014,-0.63159,-0.561418,1.14864,-528.896,1364.35)">
            <g transform="matrix(1.42564,0.783903,0.696808,1.25375,-196.678,-1295.95)">
                <path d="M70.849,816.77C71.364,815.9 72.488,815.611 73.358,816.125C74.228,816.64 74.517,817.764 74.003,818.634C73.488,819.505 72.364,819.793 71.494,819.279C70.624,818.765 70.335,817.64 70.849,816.77Z" style="fill:rgb(22,32,47);"/>
                <path d="M-51,1026.5L72.426,817.702" style="fill:none;stroke:rgb(22,32,47);stroke-width:1.05px;"/>
            </g>
            <g transform="matrix(1.42564,0.783903,0.696808,1.25375,1228.97,-512.044)">
                <path d="M-51,1026.5L72.426,817.702" style="fill:none;stroke:rgb(22,32,47);stroke-width:1.05px;"/>
            </g>
        </g>
        <g transform="matrix(0.999999,2.37432e-06,-4.18438e-06,1.00001,0.00201449,-0.00313243)">
            <g>
                <path d="M947.102,25.378C946.483,26.426 946.83,27.779 947.878,28.398C948.926,29.017 950.279,28.67 950.898,27.622C951.517,26.574 951.17,25.221 950.122,24.602C949.074,23.983 947.721,24.33 947.102,25.378Z" style="fill:rgb(22,32,47);"/>
                <path d="M949,26.5L1072.43,-182.298" style="fill:none;stroke:rgb(22,32,47);stroke-width:1.05px;"/>
            </g>
        </g>
        <g transform="matrix(0.999999,2.37432e-06,-4.18438e-06,1.00001,0.00184838,-0.00392396)">
            <g>
                <path d="M671.364,195.937C671.72,195.147 671.367,194.216 670.577,193.86C669.786,193.504 668.855,193.857 668.499,194.647C668.143,195.438 668.496,196.369 669.287,196.725C670.077,197.081 671.008,196.728 671.364,195.937Z" style="fill:rgb(22,32,47);"/>
                <path d="M594.117,375.095C593.049,377.467 590.257,378.525 587.885,377.457C585.514,376.389 584.455,373.596 585.524,371.225C586.592,368.853 589.384,367.795 591.756,368.863C594.127,369.931 595.186,372.724 594.117,375.095Z" style="fill:rgb(22,32,47);"/>
                <path d="M669.932,195.292L589.821,373.16" style="fill:none;stroke:rgb(22,32,47);stroke-width:1.05px;"/>
            </g>
        </g>
        <g transform="matrix(0.999999,2.37432e-06,-4.18438e-06,1.00001,0.00184838,-0.00392396)">
            <g>
                <path d="M690.658,581.516C691.838,583.834 694.678,584.757 696.996,583.576C699.314,582.396 700.237,579.556 699.056,577.238C697.876,574.921 695.036,573.997 692.718,575.178C690.401,576.358 689.477,579.198 690.658,581.516Z" style="fill:rgb(22,32,47);"/>
                <path d="M589.471,373.338C589.372,373.145 589.449,372.908 589.642,372.81C589.835,372.712 590.072,372.788 590.17,372.982C590.269,373.175 590.192,373.411 589.999,373.51C589.806,373.608 589.569,373.531 589.471,373.338Z" style="fill:rgb(22,32,47);"/>
                <path d="M694.857,579.377L589.821,373.16" style="fill:none;stroke:rgb(22,32,47);stroke-width:1.05px;"/>
            </g>
        </g>
        <g transform="matrix(0.999999,2.37432e-06,-4.18438e-06,1.00001,0.00184838,-0.00392396)">
            <g>
                <path d="M669.577,196.823C670.421,197.018 671.266,196.492 671.462,195.647C671.658,194.803 671.131,193.958 670.286,193.762C669.442,193.566 668.597,194.093 668.401,194.938C668.206,195.782 668.732,196.627 669.577,196.823Z" style="fill:rgb(22,32,47);"/>
                <path d="M527.037,166.999C524.504,166.411 522.923,163.877 523.511,161.344C524.098,158.81 526.632,157.23 529.166,157.817C531.7,158.405 533.28,160.939 532.693,163.473C532.105,166.006 529.571,167.586 527.037,166.999Z" style="fill:rgb(22,32,47);"/>
                <path d="M669.932,195.292L528.102,162.408" style="fill:none;stroke:rgb(22,32,47);stroke-width:1.05px;"/>
            </g>
        </g>
        <g transform="matrix(0.999999,2.37432e-06,-4.18438e-06,1.00001,0.00184838,-0.00392396)">
            <g>
                <path d="M690.658,581.516C691.838,583.834 694.678,584.757 696.996,583.576C699.314,582.396 700.237,579.556 699.056,577.238C697.876,574.921 695.036,573.997 692.718,575.178C690.401,576.358 689.477,579.198 690.658,581.516Z" style="fill:rgb(22,32,47);"/>
                <path d="M589.471,373.338C589.372,373.145 589.449,372.908 589.642,372.81C589.835,372.712 590.072,372.788 590.17,372.982C590.269,373.175 590.192,373.411 589.999,373.51C589.806,373.608 589.569,373.531 589.471,373.338Z" style="fill:rgb(22,32,47);"/>
                <path d="M694.857,579.377L589.821,373.16" style="fill:none;stroke:rgb(22,32,47);stroke-width:1.05px;"/>
            </g>
        </g>
        <g transform="matrix(0.999999,2.37432e-06,-4.18438e-06,1.00001,0.00184838,-0.00392396)">
            <g>
                <path d="M669.341,193.837C668.537,194.163 668.15,195.08 668.476,195.883C668.802,196.687 669.719,197.074 670.523,196.748C671.326,196.422 671.713,195.505 671.387,194.701C671.061,193.898 670.144,193.511 669.341,193.837Z" style="fill:rgb(22,32,47);"/>
                <path d="M836.516,122.57C838.926,121.592 841.677,122.754 842.655,125.164C843.634,127.574 842.471,130.325 840.062,131.303C837.652,132.282 834.901,131.12 833.922,128.71C832.944,126.3 834.106,123.549 836.516,122.57Z" style="fill:rgb(22,32,47);"/>
                <path d="M669.932,195.292L838.289,126.937" style="fill:none;stroke:rgb(22,32,47);stroke-width:1.05px;"/>
            </g>
        </g>
        <g transform="matrix(0.999999,2.37432e-06,-4.18438e-06,1.00001,0.00184838,-0.00392396)">
            <g>
                <path d="M837.854,128.446C838.687,128.686 839.558,128.205 839.798,127.372C840.038,126.538 839.557,125.667 838.723,125.427C837.89,125.187 837.019,125.669 836.779,126.502C836.539,127.335 837.021,128.206 837.854,128.446Z" style="fill:rgb(22,32,47);"/>
                <path d="M650.235,77.684C647.736,76.964 646.291,74.35 647.011,71.851C647.731,69.352 650.344,67.907 652.843,68.627C655.343,69.346 656.788,71.96 656.068,74.459C655.348,76.959 652.734,78.403 650.235,77.684Z" style="fill:rgb(22,32,47);"/>
                <path d="M838.289,126.937L651.539,73.155" style="fill:none;stroke:rgb(22,32,47);stroke-width:1.05px;"/>
            </g>
        </g>
        <g transform="matrix(0.999999,2.37432e-06,-4.18438e-06,1.00001,0.00184838,-0.00392396)">
            <g>
                <path d="M527.181,161.135C526.479,161.643 526.321,162.626 526.829,163.329C527.337,164.031 528.32,164.189 529.022,163.681C529.725,163.173 529.883,162.19 529.375,161.488C528.867,160.785 527.884,160.627 527.181,161.135Z" style="fill:rgb(22,32,47);"/>
                <path d="M648.778,69.336C650.886,67.812 653.834,68.286 655.358,70.394C656.882,72.501 656.408,75.45 654.301,76.974C652.193,78.498 649.244,78.024 647.72,75.916C646.196,73.809 646.67,70.86 648.778,69.336Z" style="fill:rgb(22,32,47);"/>
                <path d="M528.102,162.408L651.539,73.155" style="fill:none;stroke:rgb(22,32,47);stroke-width:1.05px;"/>
            </g>
        </g>
        <g transform="matrix(0.999999,2.37432e-06,-4.18438e-06,1.00001,0.00995856,-0.0170401)">
            <g>
                <path d="M561.035,956.228C560.497,955.548 559.508,955.433 558.829,955.971C558.149,956.509 558.033,957.497 558.571,958.177C559.109,958.857 560.098,958.972 560.778,958.434C561.458,957.896 561.573,956.908 561.035,956.228Z" style="fill:rgb(22,32,47);"/>
                <path d="M559.803,957.203L651.539,1073.15" style="fill:none;stroke:rgb(22,32,47);stroke-width:1.05px;"/>
            </g>
        </g>
        <g transform="matrix(0.999999,2.37432e-06,-4.18438e-06,1.00001,0.00995856,-0.0170401)">
            <g>
                <path d="M867.902,926.247C868.616,925.755 868.797,924.777 868.306,924.062C867.815,923.348 866.836,923.167 866.122,923.658C865.407,924.149 865.226,925.128 865.717,925.843C866.209,926.557 867.188,926.738 867.902,926.247Z" style="fill:rgb(22,32,47);"/>
                <path d="M867.012,924.952L651.539,1073.15" style="fill:none;stroke:rgb(22,32,47);stroke-width:1.05px;"/>
            </g>
        </g>
        <g transform="matrix(0.999999,2.37432e-06,-4.18438e-06,1.00001,0.0020018,-0.00338347)">
            <g>
                <path d="M655.232,70.27C656.846,72.31 656.5,75.276 654.46,76.89C652.42,78.504 649.454,78.158 647.84,76.119C646.226,74.079 646.572,71.113 648.612,69.499C650.652,67.885 653.618,68.231 655.232,70.27Z" style="fill:rgb(22,32,47);"/>
                <path d="M559.8,-42.75L651.536,73.195" style="fill:none;stroke:rgb(22,32,47);stroke-width:1.05px;"/>
            </g>
        </g>
        <g transform="matrix(0.999999,2.37432e-06,-4.18438e-06,1.00001,0.0020018,-0.00338347)">
            <g>
                <path d="M654.207,77.077C652.064,78.551 649.127,78.008 647.653,75.865C646.179,73.722 646.723,70.786 648.866,69.312C651.009,67.838 653.945,68.381 655.419,70.524C656.893,72.667 656.35,75.604 654.207,77.077Z" style="fill:rgb(22,32,47);"/>
                <path d="M867.009,-75L651.536,73.195" style="fill:none;stroke:rgb(22,32,47);stroke-width:1.05px;"/>
            </g>
        </g>
        <g transform="matrix(0.999999,2.37432e-06,-4.18438e-06,1.00001,0.00184838,-0.00392396)">
            <g>
                <path d="M699.406,578.147C698.728,575.636 696.138,574.149 693.627,574.828C691.116,575.507 689.629,578.096 690.308,580.607C690.987,583.118 693.576,584.605 696.087,583.926C698.598,583.248 700.085,580.658 699.406,578.147Z" style="fill:rgb(22,32,47);"/>
                <path d="M760.309,796.262C761.256,799.765 759.181,803.378 755.678,804.325C752.175,805.272 748.561,803.197 747.614,799.694C746.667,796.191 748.742,792.578 752.245,791.631C755.749,790.683 759.362,792.759 760.309,796.262Z" style="fill:rgb(22,32,47);"/>
                <path d="M694.857,579.377L753.962,797.978" style="fill:none;stroke:rgb(22,32,47);stroke-width:1.05px;"/>
            </g>
        </g>
        <g transform="matrix(0.999999,2.37432e-06,-4.18438e-06,1.00001,0.00184838,-0.00392396)">
            <g>
                <path d="M863.492,928.086C865.222,930.029 868.203,930.202 870.146,928.472C872.088,926.743 872.261,923.761 870.531,921.819C868.802,919.876 865.821,919.703 863.878,921.433C861.935,923.162 861.763,926.144 863.492,928.086Z" style="fill:rgb(22,32,47);"/>
                <path d="M749.051,802.35C746.638,799.64 746.879,795.48 749.589,793.067C752.3,790.654 756.459,790.895 758.872,793.606C761.285,796.316 761.044,800.476 758.334,802.889C755.623,805.302 751.464,805.061 749.051,802.35Z" style="fill:rgb(22,32,47);"/>
                <path d="M867.012,924.952L753.962,797.978" style="fill:none;stroke:rgb(22,32,47);stroke-width:1.05px;"/>
            </g>
        </g>
        <g transform="matrix(0.999999,2.37432e-06,-4.18438e-06,1.00001,-0.00154171,-0.000226274)">
            <g>
                <path d="M70.666,814.33C72.527,813.359 74.826,814.081 75.798,815.942C76.769,817.803 76.047,820.102 74.186,821.074C72.325,822.046 70.026,821.324 69.054,819.463C68.083,817.602 68.805,815.302 70.666,814.33Z" style="fill:rgb(22,32,47);"/>
                <path d="M-133,924.952L72.426,817.702" style="fill:none;stroke:rgb(22,32,47);stroke-width:1.05px;"/>
            </g>
        </g>
        <g transform="matrix(0.999999,2.37432e-06,-4.18438e-06,1.00001,0.00140658,-0.00317459)">
            <g>
                <path d="M864.819,920.775C862.513,921.979 861.619,924.828 862.822,927.133C864.026,929.439 866.875,930.334 869.181,929.13C871.487,927.926 872.381,925.077 871.178,922.771C869.974,920.466 867.125,919.571 864.819,920.775Z" style="fill:rgb(22,32,47);"/>
                <path d="M867,924.952L1072.43,817.702" style="fill:none;stroke:rgb(22,32,47);stroke-width:1.05px;"/>
            </g>
        </g>
        <g transform="matrix(0.999999,2.37432e-06,-4.18438e-06,1.00001,0.00184838,-0.00392396)">
            <g>
                <path d="M309.796,221.474C308.623,219.152 305.786,218.22 303.465,219.393C301.143,220.566 300.211,223.403 301.384,225.724C302.557,228.046 305.394,228.978 307.715,227.805C310.037,226.632 310.969,223.795 309.796,221.474Z" style="fill:rgb(22,32,47);"/>
                <path d="M381.605,373.174C381.703,373.368 381.625,373.604 381.432,373.702C381.238,373.8 381.002,373.722 380.904,373.529C380.806,373.335 380.884,373.099 381.077,373.001C381.271,372.903 381.507,372.981 381.605,373.174Z" style="fill:rgb(22,32,47);"/>
                <path d="M305.59,223.599L381.254,373.351" style="fill:none;stroke:rgb(22,32,47);stroke-width:1.05px;"/>
            </g>
        </g>
        <g transform="matrix(0.999999,2.37432e-06,-4.18438e-06,1.00001,0.00184838,-0.00392396)">
            <g>
                <path d="M308.384,227.394C310.478,225.852 310.927,222.9 309.385,220.805C307.844,218.711 304.891,218.262 302.797,219.804C300.702,221.345 300.253,224.298 301.795,226.392C303.337,228.487 306.289,228.936 308.384,227.394Z" style="fill:rgb(22,32,47);"/>
                <path d="M104.106,376.029C102.629,377.116 100.546,376.799 99.459,375.322C98.371,373.844 98.688,371.762 100.165,370.674C101.643,369.587 103.725,369.903 104.813,371.381C105.9,372.859 105.584,374.941 104.106,376.029Z" style="fill:rgb(22,32,47);"/>
                <path d="M305.59,223.599L102.136,373.351" style="fill:none;stroke:rgb(22,32,47);stroke-width:1.05px;"/>
            </g>
        </g>
        <g transform="matrix(0.999999,2.37432e-06,-4.18438e-06,1.00001,0.00184838,-0.00392396)">
            <g>
                <path d="M304.341,219.055C301.833,219.745 300.357,222.341 301.046,224.848C301.736,227.356 304.332,228.832 306.84,228.143C309.348,227.453 310.824,224.857 310.134,222.349C309.444,219.841 306.848,218.365 304.341,219.055Z" style="fill:rgb(22,32,47);"/>
                <path d="M527.22,159.203C528.989,158.717 530.82,159.758 531.307,161.527C531.793,163.296 530.752,165.127 528.983,165.613C527.214,166.1 525.383,165.058 524.897,163.29C524.41,161.521 525.451,159.69 527.22,159.203Z" style="fill:rgb(22,32,47);"/>
                <path d="M305.59,223.599L528.102,162.408" style="fill:none;stroke:rgb(22,32,47);stroke-width:1.05px;"/>
            </g>
        </g>
        <g transform="matrix(0.999999,2.37432e-06,-4.18438e-06,1.00001,0.00184838,-0.00392396)">
            <g>
                <path d="M265.597,455.088C267.952,456.191 270.76,455.174 271.863,452.818C272.966,450.463 271.949,447.655 269.593,446.552C267.238,445.449 264.43,446.466 263.327,448.822C262.224,451.177 263.241,453.985 265.597,455.088Z" style="fill:rgb(22,32,47);"/>
                <path d="M100.726,376.362C99.065,375.584 98.348,373.603 99.125,371.942C99.903,370.28 101.884,369.563 103.545,370.341C105.207,371.119 105.924,373.099 105.146,374.761C104.368,376.422 102.388,377.14 100.726,376.362Z" style="fill:rgb(22,32,47);"/>
                <path d="M267.595,450.82L102.136,373.351" style="fill:none;stroke:rgb(22,32,47);stroke-width:1.05px;"/>
            </g>
        </g>
        <g transform="matrix(0.999999,2.37432e-06,-4.18438e-06,1.00001,0.00184838,-0.00392396)">
            <g>
                <path d="M269.63,455.071C271.976,453.948 272.969,451.131 271.846,448.785C270.722,446.439 267.906,445.446 265.56,446.569C263.214,447.693 262.221,450.509 263.344,452.855C264.467,455.201 267.284,456.194 269.63,455.071Z" style="fill:rgb(22,32,47);"/>
                <path d="M87.813,540.574C86.158,541.366 84.171,540.666 83.379,539.011C82.587,537.356 83.287,535.369 84.942,534.577C86.597,533.785 88.583,534.485 89.375,536.14C90.168,537.795 89.467,539.781 87.813,540.574Z" style="fill:rgb(22,32,47);"/>
                <path d="M267.595,450.82L86.377,537.575" style="fill:none;stroke:rgb(22,32,47);stroke-width:1.05px;"/>
            </g>
        </g>
        <g transform="matrix(0.999999,2.37432e-06,-4.18438e-06,1.00001,0.00184838,-0.00392396)">
            <g>
                <path d="M264.941,446.926C262.792,448.391 262.236,451.325 263.701,453.474C265.166,455.623 268.1,456.179 270.249,454.714C272.398,453.249 272.954,450.315 271.489,448.166C270.024,446.017 267.09,445.461 264.941,446.926Z" style="fill:rgb(22,32,47);"/>
                <path d="M379.382,370.605C380.898,369.571 382.968,369.963 384.001,371.479C385.034,372.995 384.643,375.065 383.127,376.098C381.611,377.131 379.541,376.74 378.508,375.224C377.475,373.708 377.866,371.638 379.382,370.605Z" style="fill:rgb(22,32,47);"/>
                <path d="M267.595,450.82L381.254,373.351" style="fill:none;stroke:rgb(22,32,47);stroke-width:1.05px;"/>
            </g>
        </g>
        <g transform="matrix(0.999999,2.37432e-06,-4.18438e-06,1.00001,0.00184838,-0.00392396)">
            <g>
                <path d="M84.097,104.212C83.878,101.621 81.596,99.694 79.004,99.914C76.413,100.133 74.487,102.415 74.706,105.007C74.925,107.598 77.207,109.525 79.799,109.305C82.391,109.086 84.317,106.804 84.097,104.212Z" style="fill:rgb(22,32,47);"/>
                <path d="M105.448,373.071C105.603,374.899 104.244,376.509 102.416,376.664C100.588,376.818 98.978,375.46 98.824,373.632C98.669,371.804 100.028,370.194 101.856,370.039C103.684,369.885 105.293,371.243 105.448,373.071Z" style="fill:rgb(22,32,47);"/>
                <path d="M79.402,104.61L102.136,373.351" style="fill:none;stroke:rgb(22,32,47);stroke-width:1.05px;"/>
            </g>
        </g>
        <g transform="matrix(0.999999,2.37432e-06,-4.18438e-06,1.00001,0.00088784,-0.0029669)">
            <g>
                <path d="M947.329,29.308C945.756,28.365 945.244,26.321 946.187,24.748C947.131,23.174 949.174,22.663 950.748,23.606C952.321,24.549 952.833,26.593 951.889,28.166C950.946,29.74 948.903,30.251 947.329,29.308Z" style="fill:rgb(22,32,47);"/>
                <path d="M1079.4,104.61L949.038,26.457" style="fill:none;stroke:rgb(22,32,47);stroke-width:1.05px;"/>
            </g>
        </g>
        <g transform="matrix(0.999999,2.37432e-06,-4.18438e-06,1.00001,0.00088784,-0.0029669)">
            <g>
                <path d="M838.595,130.247C836.768,130.416 835.148,129.07 834.979,127.243C834.81,125.417 836.155,123.796 837.982,123.627C839.809,123.458 841.429,124.804 841.599,126.63C841.768,128.457 840.422,130.078 838.595,130.247Z" style="fill:rgb(22,32,47);"/>
                <path d="M1079.4,104.61L838.289,126.937" style="fill:none;stroke:rgb(22,32,47);stroke-width:1.05px;"/>
            </g>
        </g>
        <g transform="matrix(0.999999,2.37432e-06,-4.18438e-06,1.00001,0.00088784,-0.0029669)">
            <g>
                <path d="M938.989,400.495C938.186,402.144 936.194,402.831 934.545,402.028C932.896,401.224 932.209,399.233 933.012,397.584C933.815,395.934 935.807,395.247 937.456,396.051C939.105,396.854 939.792,398.845 938.989,400.495Z" style="fill:rgb(22,32,47);"/>
                <path d="M1079.4,104.61L936,399.039" style="fill:none;stroke:rgb(22,32,47);stroke-width:1.05px;"/>
            </g>
        </g>
        <g transform="matrix(0.999999,2.37432e-06,-4.18438e-06,1.00001,0.00264648,-0.00375377)">
            <g>
                <path d="M76.988,108.651C79.219,109.989 82.116,109.263 83.453,107.033C84.791,104.802 84.065,101.905 81.834,100.568C79.604,99.23 76.707,99.956 75.369,102.186C74.032,104.417 74.757,107.314 76.988,108.651Z" style="fill:rgb(22,32,47);"/>
                <path d="M79.411,104.61L-50.95,26.457" style="fill:none;stroke:rgb(22,32,47);stroke-width:1.05px;"/>
            </g>
        </g>
        <g transform="matrix(0.999999,2.37432e-06,-4.18438e-06,1.00001,0.00264648,-0.00375377)">
            <g>
                <path d="M79.846,109.302C82.436,109.062 84.344,106.765 84.104,104.175C83.864,101.585 81.567,99.677 78.977,99.917C76.387,100.157 74.479,102.454 74.719,105.044C74.959,107.634 77.256,109.542 79.846,109.302Z" style="fill:rgb(22,32,47);"/>
                <path d="M79.411,104.61L-161.7,126.937" style="fill:none;stroke:rgb(22,32,47);stroke-width:1.05px;"/>
            </g>
        </g>
        <g transform="matrix(0.999999,2.37432e-06,-4.18438e-06,1.00001,0.00264648,-0.00375377)">
            <g>
                <path d="M83.648,106.673C84.787,104.335 83.813,101.512 81.475,100.373C79.136,99.234 76.313,100.208 75.175,102.546C74.036,104.884 75.009,107.707 77.348,108.846C79.686,109.985 82.509,109.011 83.648,106.673Z" style="fill:rgb(22,32,47);"/>
                <path d="M79.411,104.61L-63.988,399.039" style="fill:none;stroke:rgb(22,32,47);stroke-width:1.05px;"/>
            </g>
        </g>
        <g transform="matrix(0.999999,2.37432e-06,-4.18438e-06,1.00001,0.00184838,-0.00392396)">
            <g>
                <path d="M277.137,106.033C277.922,104.811 277.568,103.182 276.347,102.396C275.125,101.611 273.496,101.965 272.71,103.187C271.925,104.408 272.279,106.037 273.501,106.823C274.722,107.608 276.351,107.254 277.137,106.033Z" style="fill:rgb(22,32,47);"/>
                <path d="M104.779,375.051C103.841,376.509 101.895,376.932 100.437,375.994C98.978,375.056 98.555,373.111 99.493,371.652C100.431,370.194 102.376,369.771 103.835,370.709C105.293,371.647 105.716,373.592 104.779,375.051Z" style="fill:rgb(22,32,47);"/>
                <path d="M274.924,104.61L102.136,373.351" style="fill:none;stroke:rgb(22,32,47);stroke-width:1.05px;"/>
            </g>
        </g>
        <g transform="matrix(0.999999,2.37432e-06,-4.18438e-06,1.00001,0.00434438,-0.0055537)">
            <g>
                <path d="M201.01,894.736C201.951,893.162 203.994,892.648 205.569,893.589C207.143,894.531 207.657,896.573 206.716,898.148C205.774,899.723 203.732,900.237 202.157,899.295C200.583,898.354 200.069,896.311 201.01,894.736Z" style="fill:rgb(22,32,47);"/>
                <path d="M79.402,1104.6L203.863,896.442" style="fill:none;stroke:rgb(22,32,47);stroke-width:1.05px;"/>
            </g>
        </g>
        <g transform="matrix(0.999999,2.37432e-06,-4.18438e-06,1.00001,0.00218234,-0.00356141)">
            <g>
                <path d="M75.357,102.182C74.022,104.414 74.751,107.31 76.983,108.645C79.216,109.979 82.112,109.251 83.446,107.018C84.781,104.786 84.052,101.89 81.82,100.555C79.588,99.221 76.692,99.949 75.357,102.182Z" style="fill:rgb(22,32,47);"/>
                <path d="M79.402,104.6L203.863,-103.558" style="fill:none;stroke:rgb(22,32,47);stroke-width:1.05px;"/>
            </g>
        </g>
        <g transform="matrix(0.999999,2.37432e-06,-4.18438e-06,1.00001,0.00218234,-0.00356141)">
            <g>
                <circle cx="79.402" cy="104.6" r="4.713" style="fill:rgb(22,32,47);"/>
                <circle cx="274.924" cy="104.6" r="3.324" style="fill:rgb(22,32,47);"/>
                <path d="M79.402,104.6L274.924,104.6" style="fill:none;stroke:rgb(22,32,47);stroke-width:1.05px;"/>
            </g>
        </g>
        <g transform="matrix(0.999999,2.37432e-06,-4.18438e-06,1.00001,0.00184838,-0.00392396)">
            <g>
                <path d="M301.029,224.784C301.683,227.302 304.258,228.814 306.776,228.16C309.293,227.506 310.805,224.931 310.151,222.413C309.497,219.896 306.922,218.383 304.404,219.038C301.887,219.692 300.375,222.267 301.029,224.784Z" style="fill:rgb(22,32,47);"/>
                <path d="M271.706,106.462C271.245,104.686 272.312,102.87 274.087,102.408C275.863,101.947 277.679,103.014 278.141,104.789C278.602,106.565 277.535,108.381 275.76,108.843C273.984,109.304 272.168,108.237 271.706,106.462Z" style="fill:rgb(22,32,47);"/>
                <path d="M305.59,223.599L274.924,105.625" style="fill:none;stroke:rgb(22,32,47);stroke-width:1.05px;"/>
            </g>
        </g>
        <g transform="matrix(0.999999,2.37432e-06,-4.18438e-06,1.00001,0.00184838,-0.00392396)">
            <g>
                <path d="M416.001,51.104C418.397,50.092 419.52,47.325 418.507,44.929C417.494,42.533 414.727,41.41 412.332,42.423C409.936,43.436 408.813,46.203 409.826,48.599C410.838,50.994 413.606,52.117 416.001,51.104Z" style="fill:rgb(22,32,47);"/>
                <path d="M276.218,108.687C274.528,109.402 272.576,108.61 271.862,106.92C271.148,105.23 271.939,103.278 273.629,102.564C275.319,101.849 277.271,102.641 277.985,104.331C278.7,106.021 277.908,107.973 276.218,108.687Z" style="fill:rgb(22,32,47);"/>
                <path d="M414.166,46.764L274.924,105.625" style="fill:none;stroke:rgb(22,32,47);stroke-width:1.05px;"/>
            </g>
        </g>
        <g transform="matrix(0.999999,2.37432e-06,-4.18438e-06,1.00001,-0.00237614,0.0007915)">
            <g>
                <path d="M201.93,899.146C200.437,898.079 200.092,896.001 201.159,894.509C202.226,893.017 204.304,892.671 205.796,893.738C207.289,894.805 207.634,896.883 206.567,898.375C205.5,899.868 203.422,900.213 201.93,899.146Z" style="fill:rgb(22,32,47);"/>
                <path d="M414.166,1046.8L203.863,896.442" style="fill:none;stroke:rgb(22,32,47);stroke-width:1.05px;"/>
            </g>
        </g>
        <g transform="matrix(0.999999,2.37432e-06,-4.18438e-06,1.00001,-0.00237614,0.0007915)">
            <g>
                <path d="M409.337,817.683C409.325,815.849 410.804,814.35 412.639,814.338C414.473,814.326 415.973,815.805 415.985,817.64C415.997,819.474 414.517,820.974 412.682,820.986C410.848,820.998 409.349,819.518 409.337,817.683Z" style="fill:rgb(22,32,47);"/>
                <path d="M414.166,1046.8L412.661,817.662" style="fill:none;stroke:rgb(22,32,47);stroke-width:1.05px;"/>
            </g>
        </g>
        <g transform="matrix(0.999999,2.37432e-06,-4.18438e-06,1.00001,-0.00237614,0.0007915)">
            <g>
                <path d="M558.061,954.371C559.624,953.41 561.673,953.898 562.634,955.461C563.596,957.023 563.108,959.072 561.545,960.034C559.982,960.995 557.933,960.507 556.972,958.944C556.011,957.382 556.499,955.333 558.061,954.371Z" style="fill:rgb(22,32,47);"/>
                <path d="M414.166,1046.8L559.803,957.203" style="fill:none;stroke:rgb(22,32,47);stroke-width:1.05px;"/>
            </g>
        </g>
        <g transform="matrix(0.999999,2.37432e-06,-4.18438e-06,1.00001,0.00153297,-0.0029048)">
            <g>
                <path d="M411.426,50.672C413.541,52.185 416.487,51.695 418,49.579C419.513,47.463 419.023,44.518 416.907,43.005C414.791,41.492 411.846,41.982 410.333,44.098C408.82,46.213 409.31,49.159 411.426,50.672Z" style="fill:rgb(22,32,47);"/>
                <path d="M414.166,46.838L203.863,-103.519" style="fill:none;stroke:rgb(22,32,47);stroke-width:1.05px;"/>
            </g>
        </g>
        <g transform="matrix(0.999999,2.37432e-06,-4.18438e-06,1.00001,0.00153297,-0.0029048)">
            <g>
                <path d="M409.454,46.869C409.471,49.47 411.597,51.568 414.197,51.551C416.798,51.534 418.896,49.408 418.879,46.807C418.862,44.207 416.736,42.109 414.135,42.126C411.535,42.143 409.437,44.268 409.454,46.869Z" style="fill:rgb(22,32,47);"/>
                <path d="M414.166,46.838L412.661,-182.3" style="fill:none;stroke:rgb(22,32,47);stroke-width:1.05px;"/>
            </g>
        </g>
        <g transform="matrix(0.999999,2.37432e-06,-4.18438e-06,1.00001,0.00153297,-0.0029048)">
            <g>
                <path d="M411.697,42.825C409.482,44.187 408.79,47.092 410.153,49.308C411.515,51.523 414.42,52.215 416.636,50.852C418.851,49.489 419.543,46.584 418.18,44.369C416.817,42.154 413.912,41.462 411.697,42.825Z" style="fill:rgb(22,32,47);"/>
                <path d="M414.166,46.838L559.803,-42.759" style="fill:none;stroke:rgb(22,32,47);stroke-width:1.05px;"/>
            </g>
        </g>
    </g>
</svg>
