<?xml version="1.0" encoding="UTF-8" standalone="no"?>
<!DOCTYPE svg PUBLIC "-//W3C//DTD SVG 1.1//EN" "http://www.w3.org/Graphics/SVG/1.1/DTD/svg11.dtd">
<svg width="100%" height="100%" viewBox="0 0 193 112" version="1.1" xmlns="http://www.w3.org/2000/svg" xmlns:xlink="http://www.w3.org/1999/xlink" xml:space="preserve" xmlns:serif="http://www.serif.com/" style="fill-rule:evenodd;clip-rule:evenodd;stroke-linejoin:round;stroke-miterlimit:2;">
    <g transform="matrix(1,0,0,1,-1000,-559.832)">
        <g transform="matrix(1,0,0,1,-66.8678,2.77642)">
            <path d="M1151.17,656.137C1149.41,657.308 1147.02,658.625 1144,660.088C1140.97,661.552 1137.43,662.771 1133.38,663.747C1129.34,664.723 1124.92,665.211 1120.14,665.211C1111.94,665.113 1104.55,663.65 1097.97,660.82C1091.38,657.991 1085.8,654.137 1081.21,649.258C1076.62,644.38 1073.09,638.745 1070.6,632.354C1068.11,625.964 1066.87,619.158 1066.87,611.938C1066.87,604.035 1068.16,596.742 1070.75,590.058C1073.33,583.375 1076.97,577.569 1081.65,572.642C1086.33,567.715 1091.87,563.885 1098.26,561.153C1104.65,558.422 1111.65,557.056 1119.26,557.056C1125.6,557.056 1131.36,557.909 1136.53,559.617C1141.7,561.324 1146.14,563.349 1149.85,565.69L1144.14,578.862C1141.21,576.911 1137.68,575.057 1133.53,573.301C1129.38,571.545 1124.78,570.666 1119.7,570.666C1114.53,570.666 1109.65,571.691 1105.07,573.74C1100.48,575.789 1096.43,578.667 1092.92,582.375C1089.41,586.082 1086.65,590.4 1084.65,595.327C1082.65,600.254 1081.65,605.547 1081.65,611.206C1081.65,616.963 1082.55,622.305 1084.36,627.232C1086.16,632.159 1088.75,636.428 1092.11,640.038C1095.48,643.648 1099.55,646.477 1104.33,648.526C1109.12,650.575 1114.48,651.6 1120.43,651.6C1125.8,651.6 1130.58,650.77 1134.78,649.112C1138.97,647.453 1142.43,645.599 1145.17,643.55L1151.17,656.137Z" style="fill:white;fill-rule:nonzero;"/>
            <path d="M1182.63,558.226L1217.46,645.746L1209.42,644.136L1242.49,558.226L1259.03,558.226L1212.34,668.869L1165.8,558.226L1182.63,558.226Z" style="fill:white;fill-rule:nonzero;"/>
        </g>
    </g>
</svg>
