<?xml version="1.0" encoding="UTF-8" standalone="no"?>
<!DOCTYPE svg PUBLIC "-//W3C//DTD SVG 1.1//EN" "http://www.w3.org/Graphics/SVG/1.1/DTD/svg11.dtd">
<svg width="100%" height="100%" viewBox="0 0 1801 1630" version="1.1" xmlns="http://www.w3.org/2000/svg" xmlns:xlink="http://www.w3.org/1999/xlink" xml:space="preserve" xmlns:serif="http://www.serif.com/" style="fill-rule:evenodd;clip-rule:evenodd;stroke-linecap:round;stroke-linejoin:round;stroke-miterlimit:1.5;">
    <g transform="matrix(1,0,0,1,-94.0999,-187.039)">
        <g>
            <g transform="matrix(1,0,0,1,-179.326,-37.8577)">
                <g transform="matrix(1,0,0,1,-54.141,-239.976)">
                    <g transform="matrix(0.454887,0,0,0.454887,184.326,250.128)">
                        <circle cx="942.054" cy="805.97" r="116.769" style="fill:none;stroke:white;stroke-width:13.74px;"/>
                    </g>
                    <g transform="matrix(0.454887,0,0,0.454887,204.225,230.229)">
                        <circle cx="942.054" cy="805.97" r="116.769" style="fill:none;stroke:white;stroke-width:13.74px;"/>
                    </g>
                    <g transform="matrix(0.454887,0,0,0.454887,227.959,206.495)">
                        <circle cx="942.054" cy="805.97" r="116.769" style="fill:none;stroke:white;stroke-width:13.74px;"/>
                    </g>
                    <g transform="matrix(0.454887,0,0,0.454887,184.326,250.128)">
                        <circle cx="942.054" cy="805.97" r="116.769" style="fill:none;stroke:white;stroke-width:13.74px;"/>
                    </g>
                    <g transform="matrix(0.454887,0,0,0.454887,204.225,230.229)">
                        <circle cx="942.054" cy="805.97" r="116.769" style="fill:none;stroke:white;stroke-width:13.74px;"/>
                    </g>
                    <g transform="matrix(0.454887,0,0,0.454887,227.959,206.495)">
                        <circle cx="942.054" cy="805.97" r="116.769" style="fill:none;stroke:white;stroke-width:13.74px;"/>
                    </g>
                </g>
                <g transform="matrix(1,0,0,1,-54.141,-70.817)">
                    <g transform="matrix(0.454887,0,0,0.454887,184.326,250.128)">
                        <circle cx="942.054" cy="805.97" r="116.769" style="fill:none;stroke:white;stroke-width:13.74px;"/>
                    </g>
                    <g transform="matrix(0.454887,0,0,0.454887,204.225,230.229)">
                        <circle cx="942.054" cy="805.97" r="116.769" style="fill:none;stroke:white;stroke-width:13.74px;"/>
                    </g>
                    <g transform="matrix(0.454887,0,0,0.454887,227.959,206.495)">
                        <circle cx="942.054" cy="805.97" r="116.769" style="fill:none;stroke:white;stroke-width:13.74px;"/>
                    </g>
                    <g transform="matrix(0.454887,0,0,0.454887,184.326,250.128)">
                        <circle cx="942.054" cy="805.97" r="116.769" style="fill:none;stroke:white;stroke-width:13.74px;"/>
                    </g>
                    <g transform="matrix(0.454887,0,0,0.454887,204.225,230.229)">
                        <circle cx="942.054" cy="805.97" r="116.769" style="fill:none;stroke:white;stroke-width:13.74px;"/>
                    </g>
                    <g transform="matrix(0.454887,0,0,0.454887,227.959,206.495)">
                        <circle cx="942.054" cy="805.97" r="116.769" style="fill:none;stroke:white;stroke-width:13.74px;"/>
                    </g>
                </g>
                <g transform="matrix(1,0,0,1,-54.141,98.3424)">
                    <g transform="matrix(0.454887,0,0,0.454887,184.326,250.128)">
                        <circle cx="942.054" cy="805.97" r="116.769" style="fill:none;stroke:white;stroke-width:13.74px;"/>
                    </g>
                    <g transform="matrix(0.454887,0,0,0.454887,204.225,230.229)">
                        <circle cx="942.054" cy="805.97" r="116.769" style="fill:none;stroke:white;stroke-width:13.74px;"/>
                    </g>
                    <g transform="matrix(0.454887,0,0,0.454887,227.959,206.495)">
                        <circle cx="942.054" cy="805.97" r="116.769" style="fill:none;stroke:white;stroke-width:13.74px;"/>
                    </g>
                    <g transform="matrix(0.454887,0,0,0.454887,184.326,250.128)">
                        <circle cx="942.054" cy="805.97" r="116.769" style="fill:none;stroke:white;stroke-width:13.74px;"/>
                    </g>
                    <g transform="matrix(0.454887,0,0,0.454887,204.225,230.229)">
                        <circle cx="942.054" cy="805.97" r="116.769" style="fill:none;stroke:white;stroke-width:13.74px;"/>
                    </g>
                    <g transform="matrix(0.454887,0,0,0.454887,227.959,206.495)">
                        <circle cx="942.054" cy="805.97" r="116.769" style="fill:none;stroke:white;stroke-width:13.74px;"/>
                    </g>
                </g>
                <g transform="matrix(1,0,0,1,-54.141,267.502)">
                    <g transform="matrix(0.454887,0,0,0.454887,184.326,250.128)">
                        <circle cx="942.054" cy="805.97" r="116.769" style="fill:none;stroke:white;stroke-width:13.74px;"/>
                    </g>
                    <g transform="matrix(0.454887,0,0,0.454887,204.225,230.229)">
                        <circle cx="942.054" cy="805.97" r="116.769" style="fill:none;stroke:white;stroke-width:13.74px;"/>
                    </g>
                    <g transform="matrix(0.454887,0,0,0.454887,227.959,206.495)">
                        <circle cx="942.054" cy="805.97" r="116.769" style="fill:none;stroke:white;stroke-width:13.74px;"/>
                    </g>
                    <g transform="matrix(0.454887,0,0,0.454887,184.326,250.128)">
                        <circle cx="942.054" cy="805.97" r="116.769" style="fill:none;stroke:white;stroke-width:13.74px;"/>
                    </g>
                    <g transform="matrix(0.454887,0,0,0.454887,204.225,230.229)">
                        <circle cx="942.054" cy="805.97" r="116.769" style="fill:none;stroke:white;stroke-width:13.74px;"/>
                    </g>
                    <g transform="matrix(0.454887,0,0,0.454887,227.959,206.495)">
                        <circle cx="942.054" cy="805.97" r="116.769" style="fill:none;stroke:white;stroke-width:13.74px;"/>
                    </g>
                </g>
            </g>
            <g transform="matrix(1,0,0,1,-179.326,856.567)">
                <g transform="matrix(1,0,0,1,-54.141,-55.1797)">
                    <g transform="matrix(0.454887,0,0,0.454887,184.326,250.128)">
                        <circle cx="942.054" cy="805.97" r="116.769" style="fill:none;stroke:white;stroke-width:13.74px;"/>
                    </g>
                    <g transform="matrix(0.454887,0,0,0.454887,204.225,230.229)">
                        <circle cx="942.054" cy="805.97" r="116.769" style="fill:none;stroke:white;stroke-width:13.74px;"/>
                    </g>
                    <g transform="matrix(0.454887,0,0,0.454887,227.959,206.495)">
                        <circle cx="942.054" cy="805.97" r="116.769" style="fill:none;stroke:white;stroke-width:13.74px;"/>
                    </g>
                    <g transform="matrix(0.454887,0,0,0.454887,184.326,250.128)">
                        <circle cx="942.054" cy="805.97" r="116.769" style="fill:none;stroke:white;stroke-width:13.74px;"/>
                    </g>
                    <g transform="matrix(0.454887,0,0,0.454887,204.225,230.229)">
                        <circle cx="942.054" cy="805.97" r="116.769" style="fill:none;stroke:white;stroke-width:13.74px;"/>
                    </g>
                    <g transform="matrix(0.454887,0,0,0.454887,227.959,206.495)">
                        <circle cx="942.054" cy="805.97" r="116.769" style="fill:none;stroke:white;stroke-width:13.74px;"/>
                    </g>
                </g>
                <g transform="matrix(1,0,0,1,-54.141,-226.032)">
                    <g transform="matrix(0.454887,0,0,0.454887,184.326,250.128)">
                        <circle cx="942.054" cy="805.97" r="116.769" style="fill:none;stroke:white;stroke-width:13.74px;"/>
                    </g>
                    <g transform="matrix(0.454887,0,0,0.454887,204.225,230.229)">
                        <circle cx="942.054" cy="805.97" r="116.769" style="fill:none;stroke:white;stroke-width:13.74px;"/>
                    </g>
                    <g transform="matrix(0.454887,0,0,0.454887,227.959,206.495)">
                        <circle cx="942.054" cy="805.97" r="116.769" style="fill:none;stroke:white;stroke-width:13.74px;"/>
                    </g>
                    <g transform="matrix(0.454887,0,0,0.454887,184.326,250.128)">
                        <circle cx="942.054" cy="805.97" r="116.769" style="fill:none;stroke:white;stroke-width:13.74px;"/>
                    </g>
                    <g transform="matrix(0.454887,0,0,0.454887,204.225,230.229)">
                        <circle cx="942.054" cy="805.97" r="116.769" style="fill:none;stroke:white;stroke-width:13.74px;"/>
                    </g>
                    <g transform="matrix(0.454887,0,0,0.454887,227.959,206.495)">
                        <circle cx="942.054" cy="805.97" r="116.769" style="fill:none;stroke:white;stroke-width:13.74px;"/>
                    </g>
                </g>
                <g transform="matrix(1,0,0,1,-54.141,115.672)">
                    <g transform="matrix(0.454887,0,0,0.454887,184.326,250.128)">
                        <circle cx="942.054" cy="805.97" r="116.769" style="fill:none;stroke:white;stroke-width:13.74px;"/>
                    </g>
                    <g transform="matrix(0.454887,0,0,0.454887,204.225,230.229)">
                        <circle cx="942.054" cy="805.97" r="116.769" style="fill:none;stroke:white;stroke-width:13.74px;"/>
                    </g>
                    <g transform="matrix(0.454887,0,0,0.454887,227.959,206.495)">
                        <circle cx="942.054" cy="805.97" r="116.769" style="fill:none;stroke:white;stroke-width:13.74px;"/>
                    </g>
                    <g transform="matrix(0.454887,0,0,0.454887,184.326,250.128)">
                        <circle cx="942.054" cy="805.97" r="116.769" style="fill:none;stroke:white;stroke-width:13.74px;"/>
                    </g>
                    <g transform="matrix(0.454887,0,0,0.454887,204.225,230.229)">
                        <circle cx="942.054" cy="805.97" r="116.769" style="fill:none;stroke:white;stroke-width:13.74px;"/>
                    </g>
                    <g transform="matrix(0.454887,0,0,0.454887,227.959,206.495)">
                        <circle cx="942.054" cy="805.97" r="116.769" style="fill:none;stroke:white;stroke-width:13.74px;"/>
                    </g>
                </g>
                <g transform="matrix(1,0,0,1,-54.141,286.524)">
                    <g transform="matrix(0.454887,0,0,0.454887,184.326,250.128)">
                        <circle cx="942.054" cy="805.97" r="116.769" style="fill:none;stroke:white;stroke-width:13.74px;"/>
                    </g>
                    <g transform="matrix(0.454887,0,0,0.454887,204.225,230.229)">
                        <circle cx="942.054" cy="805.97" r="116.769" style="fill:none;stroke:white;stroke-width:13.74px;"/>
                    </g>
                    <g transform="matrix(0.454887,0,0,0.454887,227.959,206.495)">
                        <circle cx="942.054" cy="805.97" r="116.769" style="fill:none;stroke:white;stroke-width:13.74px;"/>
                    </g>
                    <g transform="matrix(0.454887,0,0,0.454887,184.326,250.128)">
                        <circle cx="942.054" cy="805.97" r="116.769" style="fill:none;stroke:white;stroke-width:13.74px;"/>
                    </g>
                    <g transform="matrix(0.454887,0,0,0.454887,204.225,230.229)">
                        <circle cx="942.054" cy="805.97" r="116.769" style="fill:none;stroke:white;stroke-width:13.74px;"/>
                    </g>
                    <g transform="matrix(0.454887,0,0,0.454887,227.959,206.495)">
                        <circle cx="942.054" cy="805.97" r="116.769" style="fill:none;stroke:white;stroke-width:13.74px;"/>
                    </g>
                </g>
            </g>
            <g transform="matrix(1,0,0,1,43.0916,-202.901)">
                <g transform="matrix(0.454887,0,0,0.454887,184.326,250.128)">
                    <circle cx="942.054" cy="805.97" r="116.769" style="fill:none;stroke:white;stroke-width:13.74px;"/>
                </g>
                <g transform="matrix(0.454887,0,0,0.454887,204.225,230.229)">
                    <circle cx="942.054" cy="805.97" r="116.769" style="fill:none;stroke:white;stroke-width:13.74px;"/>
                </g>
                <g transform="matrix(0.454887,0,0,0.454887,227.959,206.495)">
                    <circle cx="942.054" cy="805.97" r="116.769" style="fill:none;stroke:white;stroke-width:13.74px;"/>
                </g>
                <g transform="matrix(0.454887,0,0,0.454887,184.326,250.128)">
                    <circle cx="942.054" cy="805.97" r="116.769" style="fill:none;stroke:white;stroke-width:13.74px;"/>
                </g>
                <g transform="matrix(0.454887,0,0,0.454887,204.225,230.229)">
                    <circle cx="942.054" cy="805.97" r="116.769" style="fill:none;stroke:white;stroke-width:13.74px;"/>
                </g>
                <g transform="matrix(0.454887,0,0,0.454887,227.959,206.495)">
                    <circle cx="942.054" cy="805.97" r="116.769" style="fill:none;stroke:white;stroke-width:13.74px;"/>
                </g>
            </g>
            <g transform="matrix(1,0,0,1,43.0916,129.262)">
                <g transform="matrix(0.454887,0,0,0.454887,184.326,250.128)">
                    <circle cx="942.054" cy="805.97" r="116.769" style="fill:none;stroke:white;stroke-width:13.74px;"/>
                </g>
                <g transform="matrix(0.454887,0,0,0.454887,204.225,230.229)">
                    <circle cx="942.054" cy="805.97" r="116.769" style="fill:none;stroke:white;stroke-width:13.74px;"/>
                </g>
                <g transform="matrix(0.454887,0,0,0.454887,227.959,206.495)">
                    <circle cx="942.054" cy="805.97" r="116.769" style="fill:none;stroke:white;stroke-width:13.74px;"/>
                </g>
                <g transform="matrix(0.454887,0,0,0.454887,184.326,250.128)">
                    <circle cx="942.054" cy="805.97" r="116.769" style="fill:none;stroke:white;stroke-width:13.74px;"/>
                </g>
                <g transform="matrix(0.454887,0,0,0.454887,204.225,230.229)">
                    <circle cx="942.054" cy="805.97" r="116.769" style="fill:none;stroke:white;stroke-width:13.74px;"/>
                </g>
                <g transform="matrix(0.454887,0,0,0.454887,227.959,206.495)">
                    <circle cx="942.054" cy="805.97" r="116.769" style="fill:none;stroke:white;stroke-width:13.74px;"/>
                </g>
            </g>
            <g transform="matrix(1,0,0,1,43.0916,713.107)">
                <g transform="matrix(0.454887,0,0,0.454887,184.326,250.128)">
                    <circle cx="942.054" cy="805.97" r="116.769" style="fill:none;stroke:white;stroke-width:13.74px;"/>
                </g>
                <g transform="matrix(0.454887,0,0,0.454887,204.225,230.229)">
                    <circle cx="942.054" cy="805.97" r="116.769" style="fill:none;stroke:white;stroke-width:13.74px;"/>
                </g>
                <g transform="matrix(0.454887,0,0,0.454887,227.959,206.495)">
                    <circle cx="942.054" cy="805.97" r="116.769" style="fill:none;stroke:white;stroke-width:13.74px;"/>
                </g>
                <g transform="matrix(0.454887,0,0,0.454887,184.326,250.128)">
                    <circle cx="942.054" cy="805.97" r="116.769" style="fill:none;stroke:white;stroke-width:13.74px;"/>
                </g>
                <g transform="matrix(0.454887,0,0,0.454887,204.225,230.229)">
                    <circle cx="942.054" cy="805.97" r="116.769" style="fill:none;stroke:white;stroke-width:13.74px;"/>
                </g>
                <g transform="matrix(0.454887,0,0,0.454887,227.959,206.495)">
                    <circle cx="942.054" cy="805.97" r="116.769" style="fill:none;stroke:white;stroke-width:13.74px;"/>
                </g>
            </g>
            <g transform="matrix(1,0,0,1,43.0916,1047.17)">
                <g transform="matrix(0.454887,0,0,0.454887,184.326,250.128)">
                    <circle cx="942.054" cy="805.97" r="116.769" style="fill:none;stroke:white;stroke-width:13.74px;"/>
                </g>
                <g transform="matrix(0.454887,0,0,0.454887,204.225,230.229)">
                    <circle cx="942.054" cy="805.97" r="116.769" style="fill:none;stroke:white;stroke-width:13.74px;"/>
                </g>
                <g transform="matrix(0.454887,0,0,0.454887,227.959,206.495)">
                    <circle cx="942.054" cy="805.97" r="116.769" style="fill:none;stroke:white;stroke-width:13.74px;"/>
                </g>
                <g transform="matrix(0.454887,0,0,0.454887,184.326,250.128)">
                    <circle cx="942.054" cy="805.97" r="116.769" style="fill:none;stroke:white;stroke-width:13.74px;"/>
                </g>
                <g transform="matrix(0.454887,0,0,0.454887,204.225,230.229)">
                    <circle cx="942.054" cy="805.97" r="116.769" style="fill:none;stroke:white;stroke-width:13.74px;"/>
                </g>
                <g transform="matrix(0.454887,0,0,0.454887,227.959,206.495)">
                    <circle cx="942.054" cy="805.97" r="116.769" style="fill:none;stroke:white;stroke-width:13.74px;"/>
                </g>
            </g>
            <g transform="matrix(0.454887,0,0,0.454887,497.867,0.449826)">
                <circle cx="942.054" cy="805.97" r="116.769" style="fill:none;stroke:white;stroke-width:13.74px;"/>
            </g>
            <g transform="matrix(0.454887,0,0,0.454887,497.867,197.522)">
                <circle cx="942.054" cy="805.97" r="116.769" style="fill:none;stroke:white;stroke-width:13.74px;"/>
            </g>
            <g transform="matrix(0.454887,0,0,0.454887,497.867,394.594)">
                <circle cx="942.054" cy="805.97" r="116.769" style="fill:none;stroke:white;stroke-width:13.74px;"/>
            </g>
            <g transform="matrix(0.454887,0,0,0.454887,497.867,909.141)">
                <circle cx="942.054" cy="805.97" r="116.769" style="fill:none;stroke:white;stroke-width:13.74px;"/>
            </g>
            <g transform="matrix(0.454887,0,0,0.454887,497.867,1106.21)">
                <circle cx="942.054" cy="805.97" r="116.769" style="fill:none;stroke:white;stroke-width:13.74px;"/>
            </g>
            <g transform="matrix(0.454887,0,0,0.454887,497.867,1303.28)">
                <circle cx="942.054" cy="805.97" r="116.769" style="fill:none;stroke:white;stroke-width:13.74px;"/>
            </g>
            <g transform="matrix(0.454887,0,0,0.454887,771.499,0.449826)">
                <circle cx="942.054" cy="805.97" r="116.769" style="fill:none;stroke:white;stroke-width:13.74px;"/>
            </g>
            <g transform="matrix(0.454887,0,0,0.454887,771.499,197.522)">
                <circle cx="942.054" cy="805.97" r="116.769" style="fill:none;stroke:white;stroke-width:13.74px;"/>
            </g>
            <g transform="matrix(0.454887,0,0,0.454887,771.499,394.594)">
                <circle cx="942.054" cy="805.97" r="116.769" style="fill:none;stroke:white;stroke-width:13.74px;"/>
            </g>
            <g transform="matrix(0.454887,0,0,0.454887,1102.2,477.096)">
                <circle cx="942.054" cy="805.97" r="116.769" style="fill:none;stroke:white;stroke-width:13.74px;"/>
            </g>
            <g transform="matrix(0.454887,0,0,0.454887,1102.2,674.168)">
                <circle cx="942.054" cy="805.97" r="116.769" style="fill:none;stroke:white;stroke-width:13.74px;"/>
            </g>
            <g transform="matrix(0.454887,0,0,0.454887,1102.2,871.24)">
                <circle cx="942.054" cy="805.97" r="116.769" style="fill:none;stroke:white;stroke-width:13.74px;"/>
            </g>
            <g transform="matrix(0.454887,0,0,0.454887,771.499,909.141)">
                <circle cx="942.054" cy="805.97" r="116.769" style="fill:none;stroke:white;stroke-width:13.74px;"/>
            </g>
            <g transform="matrix(0.454887,0,0,0.454887,771.499,1106.21)">
                <circle cx="942.054" cy="805.97" r="116.769" style="fill:none;stroke:white;stroke-width:13.74px;"/>
            </g>
            <g transform="matrix(0.454887,0,0,0.454887,771.499,1303.28)">
                <circle cx="942.054" cy="805.97" r="116.769" style="fill:none;stroke:white;stroke-width:13.74px;"/>
            </g>
            <g transform="matrix(0.454887,0,0,0.454887,1410.21,674.168)">
                <circle cx="942.054" cy="805.97" r="116.769" style="fill:none;stroke:white;stroke-width:13.74px;"/>
            </g>
            <g transform="matrix(1,0,0,1,44.9784,3.57359)">
                <path d="M71.847,521.842L71.847,553.342L88.197,553.342L88.197,556.842L67.847,556.842L67.847,521.842L71.847,521.842Z" style="fill:white;fill-rule:nonzero;"/>
                <path d="M107.897,557.192C105.43,557.192 103.138,556.758 101.022,555.892C98.905,555.025 97.055,553.8 95.472,552.217C93.888,550.633 92.655,548.75 91.772,546.567C90.888,544.383 90.447,541.975 90.447,539.342C90.447,536.708 90.888,534.3 91.772,532.117C92.655,529.933 93.888,528.05 95.472,526.467C97.055,524.883 98.905,523.658 101.022,522.792C103.138,521.925 105.43,521.492 107.897,521.492C110.33,521.492 112.605,521.925 114.722,522.792C116.838,523.658 118.68,524.883 120.247,526.467C121.813,528.05 123.038,529.933 123.922,532.117C124.805,534.3 125.247,536.708 125.247,539.342C125.247,541.975 124.805,544.383 123.922,546.567C123.038,548.75 121.813,550.633 120.247,552.217C118.68,553.8 116.838,555.025 114.722,555.892C112.605,556.758 110.33,557.192 107.897,557.192ZM107.897,553.692C110.397,553.692 112.647,553.108 114.647,551.942C116.647,550.775 118.23,549.117 119.397,546.967C120.563,544.817 121.147,542.275 121.147,539.342C121.147,536.375 120.563,533.817 119.397,531.667C118.23,529.517 116.647,527.867 114.647,526.717C112.647,525.567 110.397,524.992 107.897,524.992C105.363,524.992 103.088,525.567 101.072,526.717C99.055,527.867 97.463,529.517 96.297,531.667C95.13,533.817 94.547,536.375 94.547,539.342C94.547,542.275 95.13,544.817 96.297,546.967C97.463,549.117 99.055,550.775 101.072,551.942C103.088,553.108 105.363,553.692 107.897,553.692Z" style="fill:white;fill-rule:nonzero;"/>
                <path d="M129.497,539.342C129.497,536.708 129.93,534.3 130.797,532.117C131.663,529.933 132.888,528.05 134.472,526.467C136.055,524.883 137.888,523.658 139.972,522.792C142.055,521.925 144.33,521.492 146.797,521.492C150.397,521.492 153.555,522.325 156.272,523.992C158.988,525.658 161.047,528.025 162.447,531.092L159.197,532.292C158.43,530.658 157.413,529.317 156.147,528.267C154.88,527.217 153.447,526.425 151.847,525.892C150.247,525.358 148.563,525.092 146.797,525.092C144.297,525.092 142.047,525.658 140.047,526.792C138.047,527.925 136.472,529.558 135.322,531.692C134.172,533.825 133.597,536.375 133.597,539.342C133.597,542.275 134.172,544.808 135.322,546.942C136.472,549.075 138.047,550.717 140.047,551.867C142.047,553.017 144.297,553.592 146.797,553.592C148.597,553.592 150.313,553.308 151.947,552.742C153.58,552.175 155.055,551.292 156.372,550.092C157.688,548.892 158.747,547.392 159.547,545.592L162.797,546.792C161.363,550.225 159.263,552.817 156.497,554.567C153.73,556.317 150.497,557.192 146.797,557.192C144.33,557.192 142.055,556.758 139.972,555.892C137.888,555.025 136.055,553.792 134.472,552.192C132.888,550.592 131.663,548.7 130.797,546.517C129.93,544.333 129.497,541.942 129.497,539.342Z" style="fill:white;fill-rule:nonzero;"/>
                <path d="M183.297,525.342L181.647,525.342L170.097,556.842L166.047,556.842L178.847,521.842L186.047,521.842L198.797,556.842L194.747,556.842L183.297,525.342ZM172.297,544.142L192.697,544.142L192.697,547.642L172.297,547.642L172.297,544.142Z" style="fill:white;fill-rule:nonzero;"/>
                <path d="M207.447,521.842L207.447,553.342L223.797,553.342L223.797,556.842L203.447,556.842L203.447,521.842L207.447,521.842Z" style="fill:white;fill-rule:nonzero;"/>
                <rect x="76.797" y="571.842" width="4" height="35" style="fill:white;fill-rule:nonzero;"/>
                <path d="M116.047,571.842L116.047,606.842L111.997,606.842L93.297,578.242L93.297,606.842L89.297,606.842L89.297,571.842L93.347,571.842L112.047,600.392L112.047,571.842L116.047,571.842Z" style="fill:white;fill-rule:nonzero;"/>
                <path d="M136.897,589.042C138.763,589.042 140.28,588.758 141.447,588.192C142.613,587.625 143.472,586.825 144.022,585.792C144.572,584.758 144.847,583.558 144.847,582.192C144.847,580.025 144.222,578.342 142.972,577.142C141.722,575.942 139.697,575.342 136.897,575.342L128.547,575.342L128.547,589.042L136.897,589.042ZM148.797,582.192C148.797,583.558 148.572,584.867 148.122,586.117C147.672,587.367 146.963,588.475 145.997,589.442C145.03,590.408 143.797,591.167 142.297,591.717C140.797,592.267 138.997,592.542 136.897,592.542L128.547,592.542L128.547,606.842L124.547,606.842L124.547,571.842L136.897,571.842C139.63,571.842 141.872,572.308 143.622,573.242C145.372,574.175 146.672,575.425 147.522,576.992C148.372,578.558 148.797,580.292 148.797,582.192Z" style="fill:white;fill-rule:nonzero;"/>
                <path d="M154.947,571.842L158.947,571.842L158.947,593.942C158.947,596.242 159.363,598.108 160.197,599.542C161.03,600.975 162.155,602.025 163.572,602.692C164.988,603.358 166.597,603.692 168.397,603.692C170.163,603.692 171.747,603.358 173.147,602.692C174.547,602.025 175.663,600.975 176.497,599.542C177.33,598.108 177.747,596.242 177.747,593.942L177.747,571.842L181.747,571.842L181.747,593.892C181.747,596.192 181.388,598.175 180.672,599.842C179.955,601.508 178.963,602.883 177.697,603.967C176.43,605.05 174.997,605.858 173.397,606.392C171.797,606.925 170.113,607.192 168.347,607.192C165.947,607.192 163.73,606.717 161.697,605.767C159.663,604.817 158.03,603.358 156.797,601.392C155.563,599.425 154.947,596.925 154.947,593.892L154.947,571.842Z" style="fill:white;fill-rule:nonzero;"/>
                <path d="M187.897,571.842L214.147,571.842L214.147,575.342L203.047,575.342L203.047,606.842L199.047,606.842L199.047,575.342L187.897,575.342L187.897,571.842Z" style="fill:white;fill-rule:nonzero;"/>
            </g>
            <g transform="matrix(0.671489,0,0,0.671489,301.087,-162.701)">
                <path d="M-20.628,525.342L-25.528,525.342L-25.528,521.842L-16.628,521.842L-16.628,556.842L-20.628,556.842L-20.628,525.342Z" style="fill:white;fill-rule:nonzero;"/>
                <path d="M3.422,521.842C7.288,521.842 10.597,522.55 13.347,523.967C16.097,525.383 18.213,527.408 19.697,530.042C21.18,532.675 21.922,535.808 21.922,539.442C21.922,543.042 21.18,546.142 19.697,548.742C18.213,551.342 16.097,553.342 13.347,554.742C10.597,556.142 7.288,556.842 3.422,556.842L-8.128,556.842L-8.128,521.842L3.422,521.842ZM3.422,553.342C8.188,553.342 11.788,552.125 14.222,549.692C16.655,547.258 17.872,543.842 17.872,539.442C17.872,535.008 16.655,531.55 14.222,529.067C11.788,526.583 8.188,525.342 3.422,525.342L-4.128,525.342L-4.128,553.342L3.422,553.342Z" style="fill:white;fill-rule:nonzero;"/>
                <path d="M40.222,539.342C40.222,536.708 40.655,534.3 41.522,532.117C42.388,529.933 43.613,528.05 45.197,526.467C46.78,524.883 48.613,523.658 50.697,522.792C52.78,521.925 55.055,521.492 57.522,521.492C61.122,521.492 64.28,522.325 66.997,523.992C69.713,525.658 71.772,528.025 73.172,531.092L69.922,532.292C69.155,530.658 68.138,529.317 66.872,528.267C65.605,527.217 64.172,526.425 62.572,525.892C60.972,525.358 59.288,525.092 57.522,525.092C55.022,525.092 52.772,525.658 50.772,526.792C48.772,527.925 47.197,529.558 46.047,531.692C44.897,533.825 44.322,536.375 44.322,539.342C44.322,542.275 44.897,544.808 46.047,546.942C47.197,549.075 48.772,550.717 50.772,551.867C52.772,553.017 55.022,553.592 57.522,553.592C59.322,553.592 61.038,553.308 62.672,552.742C64.305,552.175 65.78,551.292 67.097,550.092C68.413,548.892 69.472,547.392 70.272,545.592L73.522,546.792C72.088,550.225 69.988,552.817 67.222,554.567C64.455,556.317 61.222,557.192 57.522,557.192C55.055,557.192 52.78,556.758 50.697,555.892C48.613,555.025 46.78,553.792 45.197,552.192C43.613,550.592 42.388,548.7 41.522,546.517C40.655,544.333 40.222,541.942 40.222,539.342Z" style="fill:white;fill-rule:nonzero;"/>
                <path d="M90.972,557.192C88.605,557.192 86.488,556.675 84.622,555.642C82.755,554.608 81.288,553.133 80.222,551.217C79.155,549.3 78.622,547.025 78.622,544.392C78.622,541.725 79.163,539.425 80.247,537.492C81.33,535.558 82.813,534.075 84.697,533.042C86.58,532.008 88.705,531.492 91.072,531.492C93.438,531.492 95.563,532.008 97.447,533.042C99.33,534.075 100.813,535.55 101.897,537.467C102.98,539.383 103.522,541.658 103.522,544.292C103.522,546.958 102.972,549.258 101.872,551.192C100.772,553.125 99.272,554.608 97.372,555.642C95.472,556.675 93.338,557.192 90.972,557.192ZM90.922,553.642C92.388,553.642 93.772,553.317 95.072,552.667C96.372,552.017 97.43,551 98.247,549.617C99.063,548.233 99.472,546.475 99.472,544.342C99.472,542.175 99.072,540.408 98.272,539.042C97.472,537.675 96.43,536.667 95.147,536.017C93.863,535.367 92.488,535.042 91.022,535.042C89.555,535.042 88.188,535.367 86.922,536.017C85.655,536.667 84.63,537.683 83.847,539.067C83.063,540.45 82.672,542.208 82.672,544.342C82.672,546.508 83.055,548.275 83.822,549.642C84.588,551.008 85.597,552.017 86.847,552.667C88.097,553.317 89.455,553.642 90.922,553.642Z" style="fill:white;fill-rule:nonzero;"/>
                <path d="M109.672,531.842L113.122,531.842L113.322,535.392C114.122,534.158 115.172,533.2 116.472,532.517C117.772,531.833 119.288,531.492 121.022,531.492C122.922,531.492 124.588,531.9 126.022,532.717C127.455,533.533 128.572,534.75 129.372,536.367C130.172,537.983 130.572,540.008 130.572,542.442L130.572,556.842L126.822,556.842L126.822,542.892C126.822,540.292 126.263,538.317 125.147,536.967C124.03,535.617 122.422,534.942 120.322,534.942C118.155,534.942 116.463,535.658 115.247,537.092C114.03,538.525 113.422,540.642 113.422,543.442L113.422,556.842L109.672,556.842L109.672,531.842Z" style="fill:white;fill-rule:nonzero;"/>
                <path d="M138.772,531.842L146.672,552.642L154.622,531.842L158.572,531.842L148.572,556.842L144.672,556.842L134.772,531.842L138.772,531.842Z" style="fill:white;fill-rule:nonzero;"/>
                <path d="M173.972,557.192C171.605,557.192 169.488,556.675 167.622,555.642C165.755,554.608 164.288,553.133 163.222,551.217C162.155,549.3 161.622,547.025 161.622,544.392C161.622,541.725 162.163,539.425 163.247,537.492C164.33,535.558 165.813,534.075 167.697,533.042C169.58,532.008 171.705,531.492 174.072,531.492C176.438,531.492 178.563,532.008 180.447,533.042C182.33,534.075 183.813,535.55 184.897,537.467C185.98,539.383 186.522,541.658 186.522,544.292C186.522,546.958 185.972,549.258 184.872,551.192C183.772,553.125 182.272,554.608 180.372,555.642C178.472,556.675 176.338,557.192 173.972,557.192ZM173.922,553.642C175.388,553.642 176.772,553.317 178.072,552.667C179.372,552.017 180.43,551 181.247,549.617C182.063,548.233 182.472,546.475 182.472,544.342C182.472,542.175 182.072,540.408 181.272,539.042C180.472,537.675 179.43,536.667 178.147,536.017C176.863,535.367 175.488,535.042 174.022,535.042C172.555,535.042 171.188,535.367 169.922,536.017C168.655,536.667 167.63,537.683 166.847,539.067C166.063,540.45 165.672,542.208 165.672,544.342C165.672,546.508 166.055,548.275 166.822,549.642C167.588,551.008 168.597,552.017 169.847,552.667C171.097,553.317 172.455,553.642 173.922,553.642Z" style="fill:white;fill-rule:nonzero;"/>
                <rect x="192.672" y="520.842" width="3.75" height="36" style="fill:white;fill-rule:nonzero;"/>
                <path d="M224.522,556.842L221.122,556.842L220.872,553.242C220.105,554.508 219.072,555.483 217.772,556.167C216.472,556.85 214.955,557.192 213.222,557.192C211.288,557.192 209.605,556.792 208.172,555.992C206.738,555.192 205.63,553.992 204.847,552.392C204.063,550.792 203.672,548.775 203.672,546.342L203.672,531.842L207.372,531.842L207.372,545.942C207.372,548.508 207.93,550.45 209.047,551.767C210.163,553.083 211.772,553.742 213.872,553.742C216.005,553.742 217.697,553.05 218.947,551.667C220.197,550.283 220.822,548.192 220.822,545.392L220.822,531.842L224.522,531.842L224.522,556.842Z" style="fill:white;fill-rule:nonzero;"/>
                <path d="M233.772,531.842L233.772,524.842L237.522,524.842L237.522,531.842L244.172,531.842L244.172,535.342L237.522,535.342L237.522,548.792C237.522,550.325 237.847,551.442 238.497,552.142C239.147,552.842 239.98,553.258 240.997,553.392C242.013,553.525 243.072,553.525 244.172,553.392L244.172,556.642C242.872,556.942 241.597,557.025 240.347,556.892C239.097,556.758 237.98,556.383 236.997,555.767C236.013,555.15 235.23,554.275 234.647,553.142C234.063,552.008 233.772,550.558 233.772,548.792L233.772,535.342L230.022,535.342L230.022,531.842L233.772,531.842Z" style="fill:white;fill-rule:nonzero;"/>
                <path d="M250.522,531.842L254.222,531.842L254.222,556.842L250.522,556.842L250.522,531.842ZM252.422,526.842C251.655,526.842 251.022,526.592 250.522,526.092C250.022,525.592 249.772,524.975 249.772,524.242C249.772,523.475 250.022,522.842 250.522,522.342C251.022,521.842 251.655,521.592 252.422,521.592C253.122,521.592 253.73,521.842 254.247,522.342C254.763,522.842 255.022,523.475 255.022,524.242C255.022,524.975 254.763,525.592 254.247,526.092C253.73,526.592 253.122,526.842 252.422,526.842Z" style="fill:white;fill-rule:nonzero;"/>
                <path d="M273.472,557.192C271.105,557.192 268.988,556.675 267.122,555.642C265.255,554.608 263.788,553.133 262.722,551.217C261.655,549.3 261.122,547.025 261.122,544.392C261.122,541.725 261.663,539.425 262.747,537.492C263.83,535.558 265.313,534.075 267.197,533.042C269.08,532.008 271.205,531.492 273.572,531.492C275.938,531.492 278.063,532.008 279.947,533.042C281.83,534.075 283.313,535.55 284.397,537.467C285.48,539.383 286.022,541.658 286.022,544.292C286.022,546.958 285.472,549.258 284.372,551.192C283.272,553.125 281.772,554.608 279.872,555.642C277.972,556.675 275.838,557.192 273.472,557.192ZM273.422,553.642C274.888,553.642 276.272,553.317 277.572,552.667C278.872,552.017 279.93,551 280.747,549.617C281.563,548.233 281.972,546.475 281.972,544.342C281.972,542.175 281.572,540.408 280.772,539.042C279.972,537.675 278.93,536.667 277.647,536.017C276.363,535.367 274.988,535.042 273.522,535.042C272.055,535.042 270.688,535.367 269.422,536.017C268.155,536.667 267.13,537.683 266.347,539.067C265.563,540.45 265.172,542.208 265.172,544.342C265.172,546.508 265.555,548.275 266.322,549.642C267.088,551.008 268.097,552.017 269.347,552.667C270.597,553.317 271.955,553.642 273.422,553.642Z" style="fill:white;fill-rule:nonzero;"/>
                <path d="M292.172,531.842L295.622,531.842L295.822,535.392C296.622,534.158 297.672,533.2 298.972,532.517C300.272,531.833 301.788,531.492 303.522,531.492C305.422,531.492 307.088,531.9 308.522,532.717C309.955,533.533 311.072,534.75 311.872,536.367C312.672,537.983 313.072,540.008 313.072,542.442L313.072,556.842L309.322,556.842L309.322,542.892C309.322,540.292 308.763,538.317 307.647,536.967C306.53,535.617 304.922,534.942 302.822,534.942C300.655,534.942 298.963,535.658 297.747,537.092C296.53,538.525 295.922,540.642 295.922,543.442L295.922,556.842L292.172,556.842L292.172,531.842Z" style="fill:white;fill-rule:nonzero;"/>
            </g>
            <g transform="matrix(0.671489,0,0,0.671489,587.111,-78.0378)">
                <path d="M13.522,556.842L9.522,556.842L9.522,521.842L13.922,521.842L26.922,551.342L39.872,521.842L44.222,521.842L44.222,556.842L40.222,556.842L40.222,529.742L28.322,556.842L25.472,556.842L13.522,529.742L13.522,556.842Z" style="fill:white;fill-rule:nonzero;"/>
                <path d="M67.972,556.842L67.672,552.342C66.972,553.875 65.938,555.067 64.572,555.917C63.205,556.767 61.472,557.192 59.372,557.192C57.572,557.192 56.038,556.908 54.772,556.342C53.505,555.775 52.53,554.967 51.847,553.917C51.163,552.867 50.822,551.625 50.822,550.192C50.822,548.092 51.605,546.367 53.172,545.017C54.738,543.667 57.005,542.842 59.972,542.542L67.672,541.692L67.672,539.692C67.672,538.292 67.155,537.167 66.122,536.317C65.088,535.467 63.688,535.042 61.922,535.042C60.188,535.042 58.747,535.442 57.597,536.242C56.447,537.042 55.655,538.192 55.222,539.692L51.822,538.492C52.488,536.292 53.713,534.575 55.497,533.342C57.28,532.108 59.455,531.492 62.022,531.492C64.988,531.492 67.297,532.25 68.947,533.767C70.597,535.283 71.422,537.342 71.422,539.942L71.422,556.842L67.972,556.842ZM67.672,544.892L59.922,545.792C58.255,545.992 56.988,546.45 56.122,547.167C55.255,547.883 54.822,548.825 54.822,549.992C54.822,551.158 55.247,552.092 56.097,552.792C56.947,553.492 58.172,553.842 59.772,553.842C61.605,553.842 63.105,553.475 64.272,552.742C65.438,552.008 66.297,551.017 66.847,549.767C67.397,548.517 67.672,547.158 67.672,545.692L67.672,544.892Z" style="fill:white;fill-rule:nonzero;"/>
                <path d="M75.922,531.842L80.222,531.842L86.622,541.392L93.022,531.842L97.372,531.842L88.722,544.292L97.372,556.842L93.022,556.842L86.622,547.192L80.222,556.842L75.922,556.842L84.572,544.292L75.922,531.842Z" style="fill:white;fill-rule:nonzero;"/>
                <path d="M129.522,539.042C131.388,539.042 132.905,538.758 134.072,538.192C135.238,537.625 136.097,536.825 136.647,535.792C137.197,534.758 137.472,533.558 137.472,532.192C137.472,530.025 136.847,528.342 135.597,527.142C134.347,525.942 132.322,525.342 129.522,525.342L121.172,525.342L121.172,539.042L129.522,539.042ZM141.422,532.192C141.422,533.558 141.197,534.867 140.747,536.117C140.297,537.367 139.588,538.475 138.622,539.442C137.655,540.408 136.422,541.167 134.922,541.717C133.422,542.267 131.622,542.542 129.522,542.542L121.172,542.542L121.172,556.842L117.172,556.842L117.172,521.842L129.522,521.842C132.255,521.842 134.497,522.308 136.247,523.242C137.997,524.175 139.297,525.425 140.147,526.992C140.997,528.558 141.422,530.292 141.422,532.192Z" style="fill:white;fill-rule:nonzero;"/>
                <path d="M156.422,557.192C154.055,557.192 151.938,556.675 150.072,555.642C148.205,554.608 146.738,553.133 145.672,551.217C144.605,549.3 144.072,547.025 144.072,544.392C144.072,541.725 144.613,539.425 145.697,537.492C146.78,535.558 148.263,534.075 150.147,533.042C152.03,532.008 154.155,531.492 156.522,531.492C158.888,531.492 161.013,532.008 162.897,533.042C164.78,534.075 166.263,535.55 167.347,537.467C168.43,539.383 168.972,541.658 168.972,544.292C168.972,546.958 168.422,549.258 167.322,551.192C166.222,553.125 164.722,554.608 162.822,555.642C160.922,556.675 158.788,557.192 156.422,557.192ZM156.372,553.642C157.838,553.642 159.222,553.317 160.522,552.667C161.822,552.017 162.88,551 163.697,549.617C164.513,548.233 164.922,546.475 164.922,544.342C164.922,542.175 164.522,540.408 163.722,539.042C162.922,537.675 161.88,536.667 160.597,536.017C159.313,535.367 157.938,535.042 156.472,535.042C155.005,535.042 153.638,535.367 152.372,536.017C151.105,536.667 150.08,537.683 149.297,539.067C148.513,540.45 148.122,542.208 148.122,544.342C148.122,546.508 148.505,548.275 149.272,549.642C150.038,551.008 151.047,552.017 152.297,552.667C153.547,553.317 154.905,553.642 156.372,553.642Z" style="fill:white;fill-rule:nonzero;"/>
                <path d="M185.922,557.192C183.555,557.192 181.438,556.675 179.572,555.642C177.705,554.608 176.238,553.133 175.172,551.217C174.105,549.3 173.572,547.025 173.572,544.392C173.572,541.725 174.113,539.425 175.197,537.492C176.28,535.558 177.763,534.075 179.647,533.042C181.53,532.008 183.655,531.492 186.022,531.492C188.388,531.492 190.513,532.008 192.397,533.042C194.28,534.075 195.763,535.55 196.847,537.467C197.93,539.383 198.472,541.658 198.472,544.292C198.472,546.958 197.922,549.258 196.822,551.192C195.722,553.125 194.222,554.608 192.322,555.642C190.422,556.675 188.288,557.192 185.922,557.192ZM185.872,553.642C187.338,553.642 188.722,553.317 190.022,552.667C191.322,552.017 192.38,551 193.197,549.617C194.013,548.233 194.422,546.475 194.422,544.342C194.422,542.175 194.022,540.408 193.222,539.042C192.422,537.675 191.38,536.667 190.097,536.017C188.813,535.367 187.438,535.042 185.972,535.042C184.505,535.042 183.138,535.367 181.872,536.017C180.605,536.667 179.58,537.683 178.797,539.067C178.013,540.45 177.622,542.208 177.622,544.342C177.622,546.508 178.005,548.275 178.772,549.642C179.538,551.008 180.547,552.017 181.797,552.667C183.047,553.317 184.405,553.642 185.872,553.642Z" style="fill:white;fill-rule:nonzero;"/>
                <rect x="204.622" y="520.842" width="3.75" height="36" style="fill:white;fill-rule:nonzero;"/>
                <path d="M216.772,531.842L220.472,531.842L220.472,556.842L216.772,556.842L216.772,531.842ZM218.672,526.842C217.905,526.842 217.272,526.592 216.772,526.092C216.272,525.592 216.022,524.975 216.022,524.242C216.022,523.475 216.272,522.842 216.772,522.342C217.272,521.842 217.905,521.592 218.672,521.592C219.372,521.592 219.98,521.842 220.497,522.342C221.013,522.842 221.272,523.475 221.272,524.242C221.272,524.975 221.013,525.592 220.497,526.092C219.98,526.592 219.372,526.842 218.672,526.842Z" style="fill:white;fill-rule:nonzero;"/>
                <path d="M228.922,531.842L232.372,531.842L232.572,535.392C233.372,534.158 234.422,533.2 235.722,532.517C237.022,531.833 238.538,531.492 240.272,531.492C242.172,531.492 243.838,531.9 245.272,532.717C246.705,533.533 247.822,534.75 248.622,536.367C249.422,537.983 249.822,540.008 249.822,542.442L249.822,556.842L246.072,556.842L246.072,542.892C246.072,540.292 245.513,538.317 244.397,536.967C243.28,535.617 241.672,534.942 239.572,534.942C237.405,534.942 235.713,535.658 234.497,537.092C233.28,538.525 232.672,540.642 232.672,543.442L232.672,556.842L228.922,556.842L228.922,531.842Z" style="fill:white;fill-rule:nonzero;"/>
                <path d="M276.272,531.842L279.722,531.842L279.722,552.242C279.722,555.308 279.038,557.933 277.672,560.117C276.305,562.3 274.322,563.967 271.722,565.117C269.122,566.267 265.955,566.842 262.222,566.842L261.622,563.392C266.322,563.325 269.888,562.35 272.322,560.467C274.755,558.583 275.972,555.842 275.972,552.242L275.972,551.692L276.372,551.792C275.605,553.258 274.455,554.517 272.922,555.567C271.388,556.617 269.405,557.158 266.972,557.192C264.672,557.192 262.663,556.667 260.947,555.617C259.23,554.567 257.897,553.075 256.947,551.142C255.997,549.208 255.522,546.942 255.522,544.342C255.522,541.742 255.997,539.483 256.947,537.567C257.897,535.65 259.23,534.158 260.947,533.092C262.663,532.025 264.672,531.492 266.972,531.492C268.472,531.492 269.805,531.717 270.972,532.167C272.138,532.617 273.138,533.217 273.972,533.967C274.805,534.717 275.488,535.558 276.022,536.492L276.272,531.842ZM259.572,544.342C259.572,547.208 260.313,549.483 261.797,551.167C263.28,552.85 265.288,553.692 267.822,553.692C269.355,553.692 270.738,553.325 271.972,552.592C273.205,551.858 274.18,550.792 274.897,549.392C275.613,547.992 275.972,546.308 275.972,544.342C275.972,542.375 275.613,540.7 274.897,539.317C274.18,537.933 273.205,536.867 271.972,536.117C270.738,535.367 269.355,534.992 267.822,534.992C265.322,534.992 263.322,535.842 261.822,537.542C260.322,539.242 259.572,541.508 259.572,544.342Z" style="fill:white;fill-rule:nonzero;"/>
            </g>
            <g transform="matrix(0.671489,0,0,0.671489,827.37,-78.0378)">
                <path d="M87.822,521.842C91.688,521.842 94.997,522.55 97.747,523.967C100.497,525.383 102.613,527.408 104.097,530.042C105.58,532.675 106.322,535.808 106.322,539.442C106.322,543.042 105.58,546.142 104.097,548.742C102.613,551.342 100.497,553.342 97.747,554.742C94.997,556.142 91.688,556.842 87.822,556.842L76.272,556.842L76.272,521.842L87.822,521.842ZM87.822,553.342C92.588,553.342 96.188,552.125 98.622,549.692C101.055,547.258 102.272,543.842 102.272,539.442C102.272,535.008 101.055,531.55 98.622,529.067C96.188,526.583 92.588,525.342 87.822,525.342L80.272,525.342L80.272,553.342L87.822,553.342Z" style="fill:white;fill-rule:nonzero;"/>
                <path d="M122.822,557.192C120.488,557.192 118.413,556.625 116.597,555.492C114.78,554.358 113.355,552.808 112.322,550.842C111.288,548.875 110.772,546.625 110.772,544.092C110.772,541.658 111.288,539.492 112.322,537.592C113.355,535.692 114.772,534.2 116.572,533.117C118.372,532.033 120.422,531.492 122.722,531.492C124.988,531.492 127.013,531.992 128.797,532.992C130.58,533.992 131.972,535.375 132.972,537.142C133.972,538.908 134.438,540.925 134.372,543.192C134.372,543.558 134.355,543.942 134.322,544.342C134.288,544.742 134.255,545.175 134.222,545.642L114.872,545.642C114.938,547.208 115.322,548.592 116.022,549.792C116.722,550.992 117.647,551.933 118.797,552.617C119.947,553.3 121.255,553.642 122.722,553.642C124.655,553.642 126.297,553.275 127.647,552.542C128.997,551.808 129.972,550.758 130.572,549.392L133.822,550.692C132.822,552.792 131.372,554.4 129.472,555.517C127.572,556.633 125.355,557.192 122.822,557.192ZM130.272,542.392C130.305,540.958 129.997,539.692 129.347,538.592C128.697,537.492 127.788,536.625 126.622,535.992C125.455,535.358 124.105,535.042 122.572,535.042C121.238,535.042 120.022,535.358 118.922,535.992C117.822,536.625 116.913,537.5 116.197,538.617C115.48,539.733 115.055,540.992 114.922,542.392L130.272,542.392Z" style="fill:white;fill-rule:nonzero;"/>
                <path d="M140.522,531.842L143.972,531.842L144.172,535.392C144.972,534.158 146.022,533.2 147.322,532.517C148.622,531.833 150.138,531.492 151.872,531.492C153.772,531.492 155.438,531.9 156.872,532.717C158.305,533.533 159.422,534.75 160.222,536.367C161.022,537.983 161.422,540.008 161.422,542.442L161.422,556.842L157.672,556.842L157.672,542.892C157.672,540.292 157.113,538.317 155.997,536.967C154.88,535.617 153.272,534.942 151.172,534.942C149.005,534.942 147.313,535.658 146.097,537.092C144.88,538.525 144.272,540.642 144.272,543.442L144.272,556.842L140.522,556.842L140.522,531.842Z" style="fill:white;fill-rule:nonzero;"/>
                <path d="M170.722,549.192C170.922,550.192 171.288,551.017 171.822,551.667C172.355,552.317 173.047,552.808 173.897,553.142C174.747,553.475 175.738,553.642 176.872,553.642C178.638,553.642 179.98,553.3 180.897,552.617C181.813,551.933 182.272,551.075 182.272,550.042C182.272,549.175 181.997,548.475 181.447,547.942C180.897,547.408 180.172,546.967 179.272,546.617C178.372,546.267 177.372,545.958 176.272,545.692C175.405,545.492 174.472,545.25 173.472,544.967C172.472,544.683 171.522,544.292 170.622,543.792C169.722,543.292 168.988,542.642 168.422,541.842C167.855,541.042 167.572,539.992 167.572,538.692C167.572,537.258 167.963,536 168.747,534.917C169.53,533.833 170.613,532.992 171.997,532.392C173.38,531.792 174.972,531.492 176.772,531.492C178.838,531.492 180.68,531.942 182.297,532.842C183.913,533.742 185.038,535.142 185.672,537.042L182.172,538.242C181.938,537.375 181.513,536.708 180.897,536.242C180.28,535.775 179.597,535.458 178.847,535.292C178.097,535.125 177.355,535.042 176.622,535.042C175.122,535.042 173.913,535.333 172.997,535.917C172.08,536.5 171.622,537.375 171.622,538.542C171.622,539.175 171.772,539.7 172.072,540.117C172.372,540.533 172.788,540.875 173.322,541.142C173.855,541.408 174.488,541.633 175.222,541.817C175.955,542 176.755,542.208 177.622,542.442C178.588,542.675 179.572,542.967 180.572,543.317C181.572,543.667 182.505,544.117 183.372,544.667C184.238,545.217 184.947,545.917 185.497,546.767C186.047,547.617 186.322,548.675 186.322,549.942C186.322,551.408 185.922,552.683 185.122,553.767C184.322,554.85 183.213,555.692 181.797,556.292C180.38,556.892 178.738,557.192 176.872,557.192C174.305,557.192 172.18,556.617 170.497,555.467C168.813,554.317 167.688,552.625 167.122,550.392L170.722,549.192Z" style="fill:white;fill-rule:nonzero;"/>
                <path d="M202.922,557.192C200.588,557.192 198.513,556.625 196.697,555.492C194.88,554.358 193.455,552.808 192.422,550.842C191.388,548.875 190.872,546.625 190.872,544.092C190.872,541.658 191.388,539.492 192.422,537.592C193.455,535.692 194.872,534.2 196.672,533.117C198.472,532.033 200.522,531.492 202.822,531.492C205.088,531.492 207.113,531.992 208.897,532.992C210.68,533.992 212.072,535.375 213.072,537.142C214.072,538.908 214.538,540.925 214.472,543.192C214.472,543.558 214.455,543.942 214.422,544.342C214.388,544.742 214.355,545.175 214.322,545.642L194.972,545.642C195.038,547.208 195.422,548.592 196.122,549.792C196.822,550.992 197.747,551.933 198.897,552.617C200.047,553.3 201.355,553.642 202.822,553.642C204.755,553.642 206.397,553.275 207.747,552.542C209.097,551.808 210.072,550.758 210.672,549.392L213.922,550.692C212.922,552.792 211.472,554.4 209.572,555.517C207.672,556.633 205.455,557.192 202.922,557.192ZM210.372,542.392C210.405,540.958 210.097,539.692 209.447,538.592C208.797,537.492 207.888,536.625 206.722,535.992C205.555,535.358 204.205,535.042 202.672,535.042C201.338,535.042 200.122,535.358 199.022,535.992C197.922,536.625 197.013,537.5 196.297,538.617C195.58,539.733 195.155,540.992 195.022,542.392L210.372,542.392Z" style="fill:white;fill-rule:nonzero;"/>
            </g>
            <g transform="matrix(0.671489,0,0,0.671489,1103.67,-75.1336)">
                <path d="M87.822,521.842C91.688,521.842 94.997,522.55 97.747,523.967C100.497,525.383 102.613,527.408 104.097,530.042C105.58,532.675 106.322,535.808 106.322,539.442C106.322,543.042 105.58,546.142 104.097,548.742C102.613,551.342 100.497,553.342 97.747,554.742C94.997,556.142 91.688,556.842 87.822,556.842L76.272,556.842L76.272,521.842L87.822,521.842ZM87.822,553.342C92.588,553.342 96.188,552.125 98.622,549.692C101.055,547.258 102.272,543.842 102.272,539.442C102.272,535.008 101.055,531.55 98.622,529.067C96.188,526.583 92.588,525.342 87.822,525.342L80.272,525.342L80.272,553.342L87.822,553.342Z" style="fill:white;fill-rule:nonzero;"/>
                <path d="M122.822,557.192C120.488,557.192 118.413,556.625 116.597,555.492C114.78,554.358 113.355,552.808 112.322,550.842C111.288,548.875 110.772,546.625 110.772,544.092C110.772,541.658 111.288,539.492 112.322,537.592C113.355,535.692 114.772,534.2 116.572,533.117C118.372,532.033 120.422,531.492 122.722,531.492C124.988,531.492 127.013,531.992 128.797,532.992C130.58,533.992 131.972,535.375 132.972,537.142C133.972,538.908 134.438,540.925 134.372,543.192C134.372,543.558 134.355,543.942 134.322,544.342C134.288,544.742 134.255,545.175 134.222,545.642L114.872,545.642C114.938,547.208 115.322,548.592 116.022,549.792C116.722,550.992 117.647,551.933 118.797,552.617C119.947,553.3 121.255,553.642 122.722,553.642C124.655,553.642 126.297,553.275 127.647,552.542C128.997,551.808 129.972,550.758 130.572,549.392L133.822,550.692C132.822,552.792 131.372,554.4 129.472,555.517C127.572,556.633 125.355,557.192 122.822,557.192ZM130.272,542.392C130.305,540.958 129.997,539.692 129.347,538.592C128.697,537.492 127.788,536.625 126.622,535.992C125.455,535.358 124.105,535.042 122.572,535.042C121.238,535.042 120.022,535.358 118.922,535.992C117.822,536.625 116.913,537.5 116.197,538.617C115.48,539.733 115.055,540.992 114.922,542.392L130.272,542.392Z" style="fill:white;fill-rule:nonzero;"/>
                <path d="M140.522,531.842L143.972,531.842L144.172,535.392C144.972,534.158 146.022,533.2 147.322,532.517C148.622,531.833 150.138,531.492 151.872,531.492C153.772,531.492 155.438,531.9 156.872,532.717C158.305,533.533 159.422,534.75 160.222,536.367C161.022,537.983 161.422,540.008 161.422,542.442L161.422,556.842L157.672,556.842L157.672,542.892C157.672,540.292 157.113,538.317 155.997,536.967C154.88,535.617 153.272,534.942 151.172,534.942C149.005,534.942 147.313,535.658 146.097,537.092C144.88,538.525 144.272,540.642 144.272,543.442L144.272,556.842L140.522,556.842L140.522,531.842Z" style="fill:white;fill-rule:nonzero;"/>
                <path d="M170.722,549.192C170.922,550.192 171.288,551.017 171.822,551.667C172.355,552.317 173.047,552.808 173.897,553.142C174.747,553.475 175.738,553.642 176.872,553.642C178.638,553.642 179.98,553.3 180.897,552.617C181.813,551.933 182.272,551.075 182.272,550.042C182.272,549.175 181.997,548.475 181.447,547.942C180.897,547.408 180.172,546.967 179.272,546.617C178.372,546.267 177.372,545.958 176.272,545.692C175.405,545.492 174.472,545.25 173.472,544.967C172.472,544.683 171.522,544.292 170.622,543.792C169.722,543.292 168.988,542.642 168.422,541.842C167.855,541.042 167.572,539.992 167.572,538.692C167.572,537.258 167.963,536 168.747,534.917C169.53,533.833 170.613,532.992 171.997,532.392C173.38,531.792 174.972,531.492 176.772,531.492C178.838,531.492 180.68,531.942 182.297,532.842C183.913,533.742 185.038,535.142 185.672,537.042L182.172,538.242C181.938,537.375 181.513,536.708 180.897,536.242C180.28,535.775 179.597,535.458 178.847,535.292C178.097,535.125 177.355,535.042 176.622,535.042C175.122,535.042 173.913,535.333 172.997,535.917C172.08,536.5 171.622,537.375 171.622,538.542C171.622,539.175 171.772,539.7 172.072,540.117C172.372,540.533 172.788,540.875 173.322,541.142C173.855,541.408 174.488,541.633 175.222,541.817C175.955,542 176.755,542.208 177.622,542.442C178.588,542.675 179.572,542.967 180.572,543.317C181.572,543.667 182.505,544.117 183.372,544.667C184.238,545.217 184.947,545.917 185.497,546.767C186.047,547.617 186.322,548.675 186.322,549.942C186.322,551.408 185.922,552.683 185.122,553.767C184.322,554.85 183.213,555.692 181.797,556.292C180.38,556.892 178.738,557.192 176.872,557.192C174.305,557.192 172.18,556.617 170.497,555.467C168.813,554.317 167.688,552.625 167.122,550.392L170.722,549.192Z" style="fill:white;fill-rule:nonzero;"/>
                <path d="M202.922,557.192C200.588,557.192 198.513,556.625 196.697,555.492C194.88,554.358 193.455,552.808 192.422,550.842C191.388,548.875 190.872,546.625 190.872,544.092C190.872,541.658 191.388,539.492 192.422,537.592C193.455,535.692 194.872,534.2 196.672,533.117C198.472,532.033 200.522,531.492 202.822,531.492C205.088,531.492 207.113,531.992 208.897,532.992C210.68,533.992 212.072,535.375 213.072,537.142C214.072,538.908 214.538,540.925 214.472,543.192C214.472,543.558 214.455,543.942 214.422,544.342C214.388,544.742 214.355,545.175 214.322,545.642L194.972,545.642C195.038,547.208 195.422,548.592 196.122,549.792C196.822,550.992 197.747,551.933 198.897,552.617C200.047,553.3 201.355,553.642 202.822,553.642C204.755,553.642 206.397,553.275 207.747,552.542C209.097,551.808 210.072,550.758 210.672,549.392L213.922,550.692C212.922,552.792 211.472,554.4 209.572,555.517C207.672,556.633 205.455,557.192 202.922,557.192ZM210.372,542.392C210.405,540.958 210.097,539.692 209.447,538.592C208.797,537.492 207.888,536.625 206.722,535.992C205.555,535.358 204.205,535.042 202.672,535.042C201.338,535.042 200.122,535.358 199.022,535.992C197.922,536.625 197.013,537.5 196.297,538.617C195.58,539.733 195.155,540.992 195.022,542.392L210.372,542.392Z" style="fill:white;fill-rule:nonzero;"/>
            </g>
            <g transform="matrix(0.671489,0,0,0.671489,1434.31,397.377)">
                <path d="M87.822,521.842C91.688,521.842 94.997,522.55 97.747,523.967C100.497,525.383 102.613,527.408 104.097,530.042C105.58,532.675 106.322,535.808 106.322,539.442C106.322,543.042 105.58,546.142 104.097,548.742C102.613,551.342 100.497,553.342 97.747,554.742C94.997,556.142 91.688,556.842 87.822,556.842L76.272,556.842L76.272,521.842L87.822,521.842ZM87.822,553.342C92.588,553.342 96.188,552.125 98.622,549.692C101.055,547.258 102.272,543.842 102.272,539.442C102.272,535.008 101.055,531.55 98.622,529.067C96.188,526.583 92.588,525.342 87.822,525.342L80.272,525.342L80.272,553.342L87.822,553.342Z" style="fill:white;fill-rule:nonzero;"/>
                <path d="M122.822,557.192C120.488,557.192 118.413,556.625 116.597,555.492C114.78,554.358 113.355,552.808 112.322,550.842C111.288,548.875 110.772,546.625 110.772,544.092C110.772,541.658 111.288,539.492 112.322,537.592C113.355,535.692 114.772,534.2 116.572,533.117C118.372,532.033 120.422,531.492 122.722,531.492C124.988,531.492 127.013,531.992 128.797,532.992C130.58,533.992 131.972,535.375 132.972,537.142C133.972,538.908 134.438,540.925 134.372,543.192C134.372,543.558 134.355,543.942 134.322,544.342C134.288,544.742 134.255,545.175 134.222,545.642L114.872,545.642C114.938,547.208 115.322,548.592 116.022,549.792C116.722,550.992 117.647,551.933 118.797,552.617C119.947,553.3 121.255,553.642 122.722,553.642C124.655,553.642 126.297,553.275 127.647,552.542C128.997,551.808 129.972,550.758 130.572,549.392L133.822,550.692C132.822,552.792 131.372,554.4 129.472,555.517C127.572,556.633 125.355,557.192 122.822,557.192ZM130.272,542.392C130.305,540.958 129.997,539.692 129.347,538.592C128.697,537.492 127.788,536.625 126.622,535.992C125.455,535.358 124.105,535.042 122.572,535.042C121.238,535.042 120.022,535.358 118.922,535.992C117.822,536.625 116.913,537.5 116.197,538.617C115.48,539.733 115.055,540.992 114.922,542.392L130.272,542.392Z" style="fill:white;fill-rule:nonzero;"/>
                <path d="M140.522,531.842L143.972,531.842L144.172,535.392C144.972,534.158 146.022,533.2 147.322,532.517C148.622,531.833 150.138,531.492 151.872,531.492C153.772,531.492 155.438,531.9 156.872,532.717C158.305,533.533 159.422,534.75 160.222,536.367C161.022,537.983 161.422,540.008 161.422,542.442L161.422,556.842L157.672,556.842L157.672,542.892C157.672,540.292 157.113,538.317 155.997,536.967C154.88,535.617 153.272,534.942 151.172,534.942C149.005,534.942 147.313,535.658 146.097,537.092C144.88,538.525 144.272,540.642 144.272,543.442L144.272,556.842L140.522,556.842L140.522,531.842Z" style="fill:white;fill-rule:nonzero;"/>
                <path d="M170.722,549.192C170.922,550.192 171.288,551.017 171.822,551.667C172.355,552.317 173.047,552.808 173.897,553.142C174.747,553.475 175.738,553.642 176.872,553.642C178.638,553.642 179.98,553.3 180.897,552.617C181.813,551.933 182.272,551.075 182.272,550.042C182.272,549.175 181.997,548.475 181.447,547.942C180.897,547.408 180.172,546.967 179.272,546.617C178.372,546.267 177.372,545.958 176.272,545.692C175.405,545.492 174.472,545.25 173.472,544.967C172.472,544.683 171.522,544.292 170.622,543.792C169.722,543.292 168.988,542.642 168.422,541.842C167.855,541.042 167.572,539.992 167.572,538.692C167.572,537.258 167.963,536 168.747,534.917C169.53,533.833 170.613,532.992 171.997,532.392C173.38,531.792 174.972,531.492 176.772,531.492C178.838,531.492 180.68,531.942 182.297,532.842C183.913,533.742 185.038,535.142 185.672,537.042L182.172,538.242C181.938,537.375 181.513,536.708 180.897,536.242C180.28,535.775 179.597,535.458 178.847,535.292C178.097,535.125 177.355,535.042 176.622,535.042C175.122,535.042 173.913,535.333 172.997,535.917C172.08,536.5 171.622,537.375 171.622,538.542C171.622,539.175 171.772,539.7 172.072,540.117C172.372,540.533 172.788,540.875 173.322,541.142C173.855,541.408 174.488,541.633 175.222,541.817C175.955,542 176.755,542.208 177.622,542.442C178.588,542.675 179.572,542.967 180.572,543.317C181.572,543.667 182.505,544.117 183.372,544.667C184.238,545.217 184.947,545.917 185.497,546.767C186.047,547.617 186.322,548.675 186.322,549.942C186.322,551.408 185.922,552.683 185.122,553.767C184.322,554.85 183.213,555.692 181.797,556.292C180.38,556.892 178.738,557.192 176.872,557.192C174.305,557.192 172.18,556.617 170.497,555.467C168.813,554.317 167.688,552.625 167.122,550.392L170.722,549.192Z" style="fill:white;fill-rule:nonzero;"/>
                <path d="M202.922,557.192C200.588,557.192 198.513,556.625 196.697,555.492C194.88,554.358 193.455,552.808 192.422,550.842C191.388,548.875 190.872,546.625 190.872,544.092C190.872,541.658 191.388,539.492 192.422,537.592C193.455,535.692 194.872,534.2 196.672,533.117C198.472,532.033 200.522,531.492 202.822,531.492C205.088,531.492 207.113,531.992 208.897,532.992C210.68,533.992 212.072,535.375 213.072,537.142C214.072,538.908 214.538,540.925 214.472,543.192C214.472,543.558 214.455,543.942 214.422,544.342C214.388,544.742 214.355,545.175 214.322,545.642L194.972,545.642C195.038,547.208 195.422,548.592 196.122,549.792C196.822,550.992 197.747,551.933 198.897,552.617C200.047,553.3 201.355,553.642 202.822,553.642C204.755,553.642 206.397,553.275 207.747,552.542C209.097,551.808 210.072,550.758 210.672,549.392L213.922,550.692C212.922,552.792 211.472,554.4 209.572,555.517C207.672,556.633 205.455,557.192 202.922,557.192ZM210.372,542.392C210.405,540.958 210.097,539.692 209.447,538.592C208.797,537.492 207.888,536.625 206.722,535.992C205.555,535.358 204.205,535.042 202.672,535.042C201.338,535.042 200.122,535.358 199.022,535.992C197.922,536.625 197.013,537.5 196.297,538.617C195.58,539.733 195.155,540.992 195.022,542.392L210.372,542.392Z" style="fill:white;fill-rule:nonzero;"/>
            </g>
            <g transform="matrix(0.671489,0,0,0.671489,1741.79,594.912)">
                <path d="M83.622,557.192C81.155,557.192 78.863,556.758 76.747,555.892C74.63,555.025 72.78,553.8 71.197,552.217C69.613,550.633 68.38,548.75 67.497,546.567C66.613,544.383 66.172,541.975 66.172,539.342C66.172,536.708 66.613,534.3 67.497,532.117C68.38,529.933 69.613,528.05 71.197,526.467C72.78,524.883 74.63,523.658 76.747,522.792C78.863,521.925 81.155,521.492 83.622,521.492C86.055,521.492 88.33,521.925 90.447,522.792C92.563,523.658 94.405,524.883 95.972,526.467C97.538,528.05 98.763,529.933 99.647,532.117C100.53,534.3 100.972,536.708 100.972,539.342C100.972,541.975 100.53,544.383 99.647,546.567C98.763,548.75 97.538,550.633 95.972,552.217C94.405,553.8 92.563,555.025 90.447,555.892C88.33,556.758 86.055,557.192 83.622,557.192ZM83.622,553.692C86.122,553.692 88.372,553.108 90.372,551.942C92.372,550.775 93.955,549.117 95.122,546.967C96.288,544.817 96.872,542.275 96.872,539.342C96.872,536.375 96.288,533.817 95.122,531.667C93.955,529.517 92.372,527.867 90.372,526.717C88.372,525.567 86.122,524.992 83.622,524.992C81.088,524.992 78.813,525.567 76.797,526.717C74.78,527.867 73.188,529.517 72.022,531.667C70.855,533.817 70.272,536.375 70.272,539.342C70.272,542.275 70.855,544.817 72.022,546.967C73.188,549.117 74.78,550.775 76.797,551.942C78.813,553.108 81.088,553.692 83.622,553.692Z" style="fill:white;fill-rule:nonzero;"/>
                <path d="M127.372,556.842L123.972,556.842L123.722,553.242C122.955,554.508 121.922,555.483 120.622,556.167C119.322,556.85 117.805,557.192 116.072,557.192C114.138,557.192 112.455,556.792 111.022,555.992C109.588,555.192 108.48,553.992 107.697,552.392C106.913,550.792 106.522,548.775 106.522,546.342L106.522,531.842L110.222,531.842L110.222,545.942C110.222,548.508 110.78,550.45 111.897,551.767C113.013,553.083 114.622,553.742 116.722,553.742C118.855,553.742 120.547,553.05 121.797,551.667C123.047,550.283 123.672,548.192 123.672,545.392L123.672,531.842L127.372,531.842L127.372,556.842Z" style="fill:white;fill-rule:nonzero;"/>
                <path d="M136.622,531.842L136.622,524.842L140.372,524.842L140.372,531.842L147.022,531.842L147.022,535.342L140.372,535.342L140.372,548.792C140.372,550.325 140.697,551.442 141.347,552.142C141.997,552.842 142.83,553.258 143.847,553.392C144.863,553.525 145.922,553.525 147.022,553.392L147.022,556.642C145.722,556.942 144.447,557.025 143.197,556.892C141.947,556.758 140.83,556.383 139.847,555.767C138.863,555.15 138.08,554.275 137.497,553.142C136.913,552.008 136.622,550.558 136.622,548.792L136.622,535.342L132.872,535.342L132.872,531.842L136.622,531.842Z" style="fill:white;fill-rule:nonzero;"/>
                <path d="M155.972,551.792L156.372,551.742L156.372,566.842L152.622,566.842L152.622,531.842L156.072,531.842L156.322,536.492C157.088,535.092 158.222,533.908 159.722,532.942C161.222,531.975 163.105,531.492 165.372,531.492C167.538,531.492 169.488,532.017 171.222,533.067C172.955,534.117 174.322,535.6 175.322,537.517C176.322,539.433 176.822,541.708 176.822,544.342C176.822,546.942 176.347,549.2 175.397,551.117C174.447,553.033 173.113,554.525 171.397,555.592C169.68,556.658 167.672,557.192 165.372,557.192C162.972,557.192 160.988,556.675 159.422,555.642C157.855,554.608 156.705,553.325 155.972,551.792ZM172.772,544.342C172.772,541.475 172.03,539.2 170.547,537.517C169.063,535.833 167.072,534.992 164.572,534.992C163.005,534.992 161.597,535.358 160.347,536.092C159.097,536.825 158.122,537.892 157.422,539.292C156.722,540.692 156.372,542.375 156.372,544.342C156.372,546.275 156.722,547.942 157.422,549.342C158.122,550.742 159.097,551.817 160.347,552.567C161.597,553.317 163.005,553.692 164.572,553.692C167.072,553.692 169.063,552.85 170.547,551.167C172.03,549.483 172.772,547.208 172.772,544.342Z" style="fill:white;fill-rule:nonzero;"/>
                <path d="M203.372,556.842L199.972,556.842L199.722,553.242C198.955,554.508 197.922,555.483 196.622,556.167C195.322,556.85 193.805,557.192 192.072,557.192C190.138,557.192 188.455,556.792 187.022,555.992C185.588,555.192 184.48,553.992 183.697,552.392C182.913,550.792 182.522,548.775 182.522,546.342L182.522,531.842L186.222,531.842L186.222,545.942C186.222,548.508 186.78,550.45 187.897,551.767C189.013,553.083 190.622,553.742 192.722,553.742C194.855,553.742 196.547,553.05 197.797,551.667C199.047,550.283 199.672,548.192 199.672,545.392L199.672,531.842L203.372,531.842L203.372,556.842Z" style="fill:white;fill-rule:nonzero;"/>
                <path d="M212.622,531.842L212.622,524.842L216.372,524.842L216.372,531.842L223.022,531.842L223.022,535.342L216.372,535.342L216.372,548.792C216.372,550.325 216.697,551.442 217.347,552.142C217.997,552.842 218.83,553.258 219.847,553.392C220.863,553.525 221.922,553.525 223.022,553.392L223.022,556.642C221.722,556.942 220.447,557.025 219.197,556.892C217.947,556.758 216.83,556.383 215.847,555.767C214.863,555.15 214.08,554.275 213.497,553.142C212.913,552.008 212.622,550.558 212.622,548.792L212.622,535.342L208.872,535.342L208.872,531.842L212.622,531.842Z" style="fill:white;fill-rule:nonzero;"/>
            </g>
            <g transform="matrix(1,0,0,1,44.9784,920.404)">
                <path d="M78.622,532.342C77.355,529.842 75.672,528 73.572,526.817C71.472,525.633 69.138,525.042 66.572,525.042C64.038,525.042 61.755,525.625 59.722,526.792C57.688,527.958 56.088,529.608 54.922,531.742C53.755,533.875 53.172,536.408 53.172,539.342C53.172,542.242 53.755,544.758 54.922,546.892C56.088,549.025 57.688,550.675 59.722,551.842C61.755,553.008 64.038,553.592 66.572,553.592C68.472,553.592 70.238,553.267 71.872,552.617C73.505,551.967 74.922,551.033 76.122,549.817C77.322,548.6 78.238,547.142 78.872,545.442L78.872,541.392L66.872,541.392L66.872,538.142L82.922,538.142L82.922,545.642C82.155,547.875 80.988,549.858 79.422,551.592C77.855,553.325 75.972,554.692 73.772,555.692C71.572,556.692 69.172,557.192 66.572,557.192C64.105,557.192 61.813,556.758 59.697,555.892C57.58,555.025 55.73,553.8 54.147,552.217C52.563,550.633 51.33,548.75 50.447,546.567C49.563,544.383 49.122,541.975 49.122,539.342C49.122,536.708 49.563,534.3 50.447,532.117C51.33,529.933 52.563,528.05 54.147,526.467C55.73,524.883 57.58,523.658 59.697,522.792C61.813,521.925 64.105,521.492 66.572,521.492C68.872,521.492 71.03,521.867 73.047,522.617C75.063,523.367 76.855,524.45 78.422,525.867C79.988,527.283 81.222,529.008 82.122,531.042L78.622,532.342Z" style="fill:white;fill-rule:nonzero;"/>
                <path d="M93.722,521.842L93.722,553.342L110.072,553.342L110.072,556.842L89.722,556.842L89.722,521.842L93.722,521.842Z" style="fill:white;fill-rule:nonzero;"/>
                <path d="M129.772,557.192C127.305,557.192 125.013,556.758 122.897,555.892C120.78,555.025 118.93,553.8 117.347,552.217C115.763,550.633 114.53,548.75 113.647,546.567C112.763,544.383 112.322,541.975 112.322,539.342C112.322,536.708 112.763,534.3 113.647,532.117C114.53,529.933 115.763,528.05 117.347,526.467C118.93,524.883 120.78,523.658 122.897,522.792C125.013,521.925 127.305,521.492 129.772,521.492C132.205,521.492 134.48,521.925 136.597,522.792C138.713,523.658 140.555,524.883 142.122,526.467C143.688,528.05 144.913,529.933 145.797,532.117C146.68,534.3 147.122,536.708 147.122,539.342C147.122,541.975 146.68,544.383 145.797,546.567C144.913,548.75 143.688,550.633 142.122,552.217C140.555,553.8 138.713,555.025 136.597,555.892C134.48,556.758 132.205,557.192 129.772,557.192ZM129.772,553.692C132.272,553.692 134.522,553.108 136.522,551.942C138.522,550.775 140.105,549.117 141.272,546.967C142.438,544.817 143.022,542.275 143.022,539.342C143.022,536.375 142.438,533.817 141.272,531.667C140.105,529.517 138.522,527.867 136.522,526.717C134.522,525.567 132.272,524.992 129.772,524.992C127.238,524.992 124.963,525.567 122.947,526.717C120.93,527.867 119.338,529.517 118.172,531.667C117.005,533.817 116.422,536.375 116.422,539.342C116.422,542.275 117.005,544.817 118.172,546.967C119.338,549.117 120.93,550.775 122.947,551.942C124.963,553.108 127.238,553.692 129.772,553.692Z" style="fill:white;fill-rule:nonzero;"/>
                <path d="M174.622,531.342C174.622,529.508 174.013,528.05 172.797,526.967C171.58,525.883 169.772,525.342 167.372,525.342L157.472,525.342L157.472,537.292L167.522,537.292C169.788,537.292 171.538,536.758 172.772,535.692C174.005,534.625 174.622,533.175 174.622,531.342ZM153.472,556.842L153.472,521.842L167.722,521.842C170.188,521.842 172.222,522.258 173.822,523.092C175.422,523.925 176.613,525.017 177.397,526.367C178.18,527.717 178.572,529.208 178.572,530.842C178.572,532.442 178.28,533.783 177.697,534.867C177.113,535.95 176.33,536.808 175.347,537.442C174.363,538.075 173.288,538.508 172.122,538.742L172.122,539.092C173.522,539.292 174.772,539.733 175.872,540.417C176.972,541.1 177.838,542.025 178.472,543.192C179.105,544.358 179.422,545.775 179.422,547.442C179.422,549.175 178.988,550.758 178.122,552.192C177.255,553.625 175.98,554.758 174.297,555.592C172.613,556.425 170.555,556.842 168.122,556.842L153.472,556.842ZM157.472,553.342L167.822,553.342C170.222,553.342 172.097,552.8 173.447,551.717C174.797,550.633 175.472,549.075 175.472,547.042C175.472,545.008 174.763,543.458 173.347,542.392C171.93,541.325 170.038,540.792 167.672,540.792L157.472,540.792L157.472,553.342Z" style="fill:white;fill-rule:nonzero;"/>
                <path d="M199.922,525.342L198.272,525.342L186.722,556.842L182.672,556.842L195.472,521.842L202.672,521.842L215.422,556.842L211.372,556.842L199.922,525.342ZM188.922,544.142L209.322,544.142L209.322,547.642L188.922,547.642L188.922,544.142Z" style="fill:white;fill-rule:nonzero;"/>
                <path d="M224.072,521.842L224.072,553.342L240.422,553.342L240.422,556.842L220.072,556.842L220.072,521.842L224.072,521.842Z" style="fill:white;fill-rule:nonzero;"/>
                <rect x="76.797" y="571.842" width="4" height="35" style="fill:white;fill-rule:nonzero;"/>
                <path d="M116.047,571.842L116.047,606.842L111.997,606.842L93.297,578.242L93.297,606.842L89.297,606.842L89.297,571.842L93.347,571.842L112.047,600.392L112.047,571.842L116.047,571.842Z" style="fill:white;fill-rule:nonzero;"/>
                <path d="M136.897,589.042C138.763,589.042 140.28,588.758 141.447,588.192C142.613,587.625 143.472,586.825 144.022,585.792C144.572,584.758 144.847,583.558 144.847,582.192C144.847,580.025 144.222,578.342 142.972,577.142C141.722,575.942 139.697,575.342 136.897,575.342L128.547,575.342L128.547,589.042L136.897,589.042ZM148.797,582.192C148.797,583.558 148.572,584.867 148.122,586.117C147.672,587.367 146.963,588.475 145.997,589.442C145.03,590.408 143.797,591.167 142.297,591.717C140.797,592.267 138.997,592.542 136.897,592.542L128.547,592.542L128.547,606.842L124.547,606.842L124.547,571.842L136.897,571.842C139.63,571.842 141.872,572.308 143.622,573.242C145.372,574.175 146.672,575.425 147.522,576.992C148.372,578.558 148.797,580.292 148.797,582.192Z" style="fill:white;fill-rule:nonzero;"/>
                <path d="M154.947,571.842L158.947,571.842L158.947,593.942C158.947,596.242 159.363,598.108 160.197,599.542C161.03,600.975 162.155,602.025 163.572,602.692C164.988,603.358 166.597,603.692 168.397,603.692C170.163,603.692 171.747,603.358 173.147,602.692C174.547,602.025 175.663,600.975 176.497,599.542C177.33,598.108 177.747,596.242 177.747,593.942L177.747,571.842L181.747,571.842L181.747,593.892C181.747,596.192 181.388,598.175 180.672,599.842C179.955,601.508 178.963,602.883 177.697,603.967C176.43,605.05 174.997,605.858 173.397,606.392C171.797,606.925 170.113,607.192 168.347,607.192C165.947,607.192 163.73,606.717 161.697,605.767C159.663,604.817 158.03,603.358 156.797,601.392C155.563,599.425 154.947,596.925 154.947,593.892L154.947,571.842Z" style="fill:white;fill-rule:nonzero;"/>
                <path d="M187.897,571.842L214.147,571.842L214.147,575.342L203.047,575.342L203.047,606.842L199.047,606.842L199.047,575.342L187.897,575.342L187.897,571.842Z" style="fill:white;fill-rule:nonzero;"/>
            </g>
            <g transform="matrix(1,0,0,1,-49.4603,40.7931)">
                <path d="M483.75,465.134L652.29,373.059L482.791,294.917" style="fill:none;stroke:white;stroke-width:6.25px;"/>
            </g>
            <g transform="matrix(1,0,0,1,-49.4603,40.7931)">
                <path d="M503.888,270.463L652.29,373.059L504.367,447.393" style="fill:none;stroke:white;stroke-width:6.25px;"/>
            </g>
            <g transform="matrix(1,0,0,1,-49.4603,40.7931)">
                <path d="M525.598,250.805L652.29,373.059L525.598,423.652" style="fill:none;stroke:white;stroke-width:6.25px;"/>
            </g>
            <g transform="matrix(1,0,0,1,-49.4603,40.7931)">
                <path d="M525.598,589.8L652.29,709.671L482.791,810.843" style="fill:none;stroke:white;stroke-width:6.25px;"/>
            </g>
            <g transform="matrix(1,0,0,1,-49.4603,40.7931)">
                <path d="M503.888,782.074L652.29,709.671L503.888,609.939" style="fill:none;stroke:white;stroke-width:6.25px;"/>
            </g>
            <g transform="matrix(1,0,0,1,-49.4603,40.7931)">
                <path d="M482.791,638.708L652.29,709.671L525.598,758.099" style="fill:none;stroke:white;stroke-width:6.25px;"/>
            </g>
            <g transform="matrix(1,0,0,1,-49.4603,40.7931)">
                <path d="M482.791,1207.86L652.29,1296.56L482.791,1381.91" style="fill:none;stroke:white;stroke-width:6.25px;"/>
            </g>
            <g transform="matrix(1,0,0,1,-49.4603,40.7931)">
                <path d="M503.888,1357.93L652.29,1296.56L503.888,1189.16" style="fill:none;stroke:white;stroke-width:6.25px;"/>
            </g>
            <g transform="matrix(1,0,0,1,-49.4603,40.7931)">
                <path d="M525.598,1165.18L652.29,1296.56L528.821,1335.88" style="fill:none;stroke:white;stroke-width:6.25px;"/>
            </g>
            <g transform="matrix(1,0,0,1,-49.4603,40.7931)">
                <path d="M482.791,1550.21L652.29,1625.97L482.791,1721.38" style="fill:none;stroke:white;stroke-width:6.25px;"/>
            </g>
            <g transform="matrix(1,0,0,1,-49.4603,40.7931)">
                <path d="M503.888,1700.29L652.29,1625.97L503.888,1527.67" style="fill:none;stroke:white;stroke-width:6.25px;"/>
            </g>
            <g transform="matrix(1,0,0,1,-49.4603,40.7931)">
                <path d="M525.598,1504.66L652.29,1625.97L525.598,1676.79" style="fill:none;stroke:white;stroke-width:6.25px;"/>
            </g>
            <g transform="matrix(1,0,0,1,-49.4603,40.7931)">
                <path d="M761.401,1622.49L922.028,1629.68L781.539,1606.19" style="fill:none;stroke:white;stroke-width:6.25px;"/>
            </g>
            <g transform="matrix(1,0,0,1,-49.4603,40.7931)">
                <path d="M803.116,1579.34L922.028,1629.68L761.401,1293.56" style="fill:none;stroke:white;stroke-width:6.25px;"/>
            </g>
            <g transform="matrix(1,0,0,1,-49.4603,40.7931)">
                <path d="M781.06,1270.07L922.028,1629.68L805.034,1243.7" style="fill:none;stroke:white;stroke-width:6.25px;"/>
            </g>
            <g transform="matrix(1,0,0,1,-49.4603,40.7931)">
                <path d="M761.401,1623.13L922.028,1436.69L761.401,1293.56" style="fill:none;stroke:white;stroke-width:6.25px;"/>
            </g>
            <g transform="matrix(1,0,0,1,-49.4603,40.7931)">
                <path d="M781.06,1271.51L922.028,1436.69L781.06,1606.19" style="fill:none;stroke:white;stroke-width:6.25px;"/>
            </g>
            <g transform="matrix(1,0,0,1,-49.4603,40.7931)">
                <path d="M802.964,1579.85L922.028,1436.69L806.952,1243.7" style="fill:none;stroke:white;stroke-width:6.25px;"/>
            </g>
            <g transform="matrix(1,0,0,1,-49.4603,40.7931)">
                <path d="M806.952,1243.7L922.028,1236.99L781.06,1271.51" style="fill:none;stroke:white;stroke-width:6.25px;"/>
            </g>
            <g transform="matrix(1,0,0,1,-49.4603,40.7931)">
                <path d="M761.401,1293.56L922.028,1236.99L802.964,1579.85" style="fill:none;stroke:white;stroke-width:6.25px;"/>
            </g>
            <g transform="matrix(1,0,0,1,-49.4603,40.7931)">
                <path d="M781.06,1611.46L922.028,1236.99L761.401,1629.68" style="fill:none;stroke:white;stroke-width:6.25px;"/>
            </g>
            <g transform="matrix(1,0,0,1,-49.4603,40.7931)">
                <path d="M802.156,1568.35L917.942,1436.69" style="fill:none;stroke:white;stroke-width:6.25px;"/>
            </g>
            <g transform="matrix(1,0,0,1,-49.4603,40.7931)">
                <path d="M776.014,1586L917.942,1440.24" style="fill:none;stroke:white;stroke-width:6.25px;"/>
            </g>
            <g transform="matrix(1,0,0,1,-49.4603,40.7931)">
                <path d="M1031.29,1632.62L1194.96,1632.62L1031.29,1436.69L1194.14,1429.19L1031.29,1233.21L1196.59,1233.62L1034.26,1440.24" style="fill:none;stroke:white;stroke-width:6.25px;"/>
            </g>
            <g transform="matrix(1,0,0,1,-49.4603,40.7931)">
                <path d="M1196.59,1432.91L1035.38,1632.62" style="fill:none;stroke:white;stroke-width:6.25px;"/>
            </g>
            <g transform="matrix(1,0,0,1,-49.4603,40.7931)">
                <path d="M1196.59,1632.62L1031.29,1236.99" style="fill:none;stroke:white;stroke-width:6.25px;"/>
            </g>
            <g transform="matrix(1,0,0,1,-49.4603,40.7931)">
                <path d="M1196.59,1236.99L1031.29,1632.62" style="fill:none;stroke:white;stroke-width:6.25px;"/>
            </g>
            <g transform="matrix(1,0,0,1,-49.4603,40.7931)">
                <path d="M1304.76,1625.86L1528.16,1202.79L1304.76,1432.91L1525.7,1000L1306.39,1233.21L1527.34,800.172L1305.58,1632.62" style="fill:none;stroke:white;stroke-width:6.25px;"/>
            </g>
            <g transform="matrix(1,0,0,1,-49.4603,40.7931)">
                <path d="M1528.16,1202.79L1306.39,1233.21" style="fill:none;stroke:white;stroke-width:6.25px;"/>
            </g>
            <g transform="matrix(1,0,0,1,-49.4603,40.7931)">
                <path d="M1528.16,811.105L1306.39,1432.91" style="fill:none;stroke:white;stroke-width:6.25px;"/>
            </g>
            <g transform="matrix(1,0,0,1,-49.4603,40.7931)">
                <path d="M1528.16,1000L1306.39,1632.62" style="fill:none;stroke:white;stroke-width:6.25px;"/>
            </g>
            <g transform="matrix(1,0,0,1,-49.4603,40.7931)">
                <path d="M759.658,706.68L922.222,725.785L779.434,682.881L921.217,522.664L802.478,648.022L922.222,725.785L759.323,372.334L921.217,522.664L779.434,350.128L921.887,329.426L802.156,329.426L921.217,522.664" style="fill:none;stroke:white;stroke-width:6.25px;"/>
            </g>
            <g transform="matrix(1,0,0,1,-49.4603,40.7931)">
                <path d="M781.886,353.111L922.222,725.785L805.83,329.426" style="fill:none;stroke:white;stroke-width:6.25px;"/>
            </g>
            <g transform="matrix(1,0,0,1,-49.4603,40.7931)">
                <path d="M759.323,718.411L917.697,527.606" style="fill:none;stroke:white;stroke-width:6.25px;"/>
            </g>
            <g transform="matrix(1,0,0,1,-49.4603,40.7931)">
                <path d="M922.222,329.426L759.323,377.78" style="fill:none;stroke:white;stroke-width:6.25px;"/>
            </g>
            <g transform="matrix(1,0,0,1,-49.4603,40.7931)">
                <path d="M917.697,329.426L805.156,656.786" style="fill:none;stroke:white;stroke-width:6.25px;"/>
            </g>
            <g transform="matrix(1,0,0,1,-49.4603,40.7931)">
                <path d="M917.697,329.426L781.886,692.315" style="fill:none;stroke:white;stroke-width:6.25px;"/>
            </g>
            <g transform="matrix(1,0,0,1,-49.4603,40.7931)">
                <path d="M759.323,718.411L917.697,329.426" style="fill:none;stroke:white;stroke-width:6.25px;"/>
            </g>
            <g transform="matrix(1,0,0,1,-49.4603,40.7931)">
                <path d="M1030.66,718.411L1196.58,718.411L1034.85,523.919L1195.74,523.919L1031.5,329.426L1197.41,320.876L1034.85,523.919" style="fill:none;stroke:white;stroke-width:6.25px;"/>
            </g>
            <g transform="matrix(1,0,0,1,-49.4603,40.7931)">
                <path d="M1030.66,718.411L1195.74,523.919" style="fill:none;stroke:white;stroke-width:6.25px;"/>
            </g>
            <g transform="matrix(1,0,0,1,-49.4603,40.7931)">
                <path d="M1195.74,718.411L1030.66,329.426" style="fill:none;stroke:white;stroke-width:6.25px;"/>
            </g>
            <g transform="matrix(1,0,0,1,-49.4603,40.7931)">
                <path d="M1030.66,718.411L1195.74,320.876" style="fill:none;stroke:white;stroke-width:6.25px;"/>
            </g>
            <g transform="matrix(1,0,0,1,-49.4603,40.7931)">
                <path d="M1306.74,329.426L1526.62,800.223L1304.95,523.919L1526.62,1001.76L1302.61,720.426L1525.72,1201.55L1304.95,523.919" style="fill:none;stroke:white;stroke-width:6.25px;"/>
            </g>
            <g transform="matrix(1,0,0,1,-49.4603,40.7931)">
                <path d="M1306.74,329.426L1526.62,1001.76" style="fill:none;stroke:white;stroke-width:6.25px;"/>
            </g>
            <g transform="matrix(1,0,0,1,-49.4603,40.7931)">
                <path d="M1526.62,1201.55L1306.74,329.426" style="fill:none;stroke:white;stroke-width:6.25px;"/>
            </g>
            <g transform="matrix(1,0,0,1,-49.4603,40.7931)">
                <path d="M1306.74,729.835L1526.62,796.872" style="fill:none;stroke:white;stroke-width:6.25px;"/>
            </g>
            <g transform="matrix(1,0,0,1,-49.4603,40.7931)">
                <path d="M1633.72,796.872L1834.83,1001.76L1633.72,1201.55" style="fill:none;stroke:white;stroke-width:6.25px;"/>
            </g>
            <g transform="matrix(1,0,0,1,-49.4603,40.7931)">
                <path d="M1633.72,1001.76L1834.83,1001.76" style="fill:none;stroke:white;stroke-width:6.25px;"/>
            </g>
        </g>
    </g>
</svg>
