<?xml version="1.0" encoding="UTF-8" standalone="no"?>
<!DOCTYPE svg PUBLIC "-//W3C//DTD SVG 1.1//EN" "http://www.w3.org/Graphics/SVG/1.1/DTD/svg11.dtd">
<svg width="100%" height="100%" viewBox="0 0 1300 1265" version="1.1" xmlns="http://www.w3.org/2000/svg" xmlns:xlink="http://www.w3.org/1999/xlink" xml:space="preserve" xmlns:serif="http://www.serif.com/" style="fill-rule:evenodd;clip-rule:evenodd;stroke-linejoin:round;stroke-miterlimit:2;">
    <g transform="matrix(0.1,0,0,-0.1,-100.592,1499.5)">
        <g>
            <path d="M7125,14990C5962,14919 4874,14558 3914,13924C2333,12880 1283,11189 1051,9315C1013,9012 1005,8871 1006,8500C1006,8107 1018,7919 1066,7590C1358,5546 2601,3776 4439,2785C4699,2645 5032,2498 5315,2398C5448,2351 5460,2349 5541,2352C5657,2356 5751,2401 5839,2495C5906,2567 5971,2689 5989,2778C5996,2812 6000,2998 6000,3291C6000,3725 5999,3751 5983,3746C5973,3743 5895,3729 5810,3714C5680,3692 5614,3687 5400,3683C5125,3678 4988,3690 4785,3741C4378,3841 3999,4089 3760,4411C3680,4518 3658,4558 3593,4703C3390,5158 3211,5407 2945,5605C2700,5786 2659,5889 2805,5950C2859,5972 2879,5974 2995,5974C3103,5973 3142,5969 3223,5947C3545,5861 3812,5657 4025,5335C4316,4895 4714,4681 5310,4645C5497,4634 5759,4667 5926,4723L5995,4746L6002,4900C6016,5201 6054,5411 6119,5555C6140,5601 6146,5622 6137,5625C6130,5627 6055,5643 5970,5660C4931,5868 4103,6326 3595,6975C3184,7500 2981,8159 3003,8895C3028,9726 3293,10420 3798,10978L3874,11061L3857,11088C3657,11399 3592,11987 3706,12450C3751,12632 3839,12833 3926,12951C3961,12999 3963,13000 4013,13000C4175,13000 4445,12959 4637,12905C5055,12787 5484,12535 5795,12224L5890,12129L5959,12154C6184,12235 6515,12303 6890,12346C7085,12368 7713,12377 7933,12360C8356,12329 8778,12255 9035,12167L9105,12143L9220,12254C9550,12573 9986,12815 10430,12924C10603,12966 10741,12987 10910,12996L11035,13003L11082,12933C11220,12724 11306,12471 11341,12170C11358,12019 11348,11698 11321,11545C11293,11387 11257,11264 11209,11161L11170,11078L11231,11011C11312,10923 11452,10737 11521,10625C11770,10222 11912,9795 11977,9250C12001,9043 12001,8566 11976,8385C11926,8017 11849,7757 11700,7455C11553,7155 11414,6963 11166,6715C10893,6443 10639,6260 10285,6083C9886,5882 9419,5729 8930,5639C8894,5632 8864,5626 8862,5624C8860,5623 8874,5589 8893,5548C8933,5466 8953,5396 8977,5253C8992,5167 8994,5011 8999,3965C9005,2840 9006,2772 9024,2725C9060,2626 9105,2554 9175,2484C9270,2388 9335,2358 9455,2352C9538,2349 9553,2351 9650,2385C11141,2907 12403,3968 13178,5352C14004,6825 14217,8585 13769,10226C13419,11509 12660,12677 11625,13525C10595,14369 9359,14868 8020,14980C7850,14994 7297,15000 7125,14990Z" style="fill:white;fill-rule:nonzero;"/>
        </g>
    </g>
</svg>
