<?xml version="1.0" encoding="UTF-8" standalone="no"?>
<!DOCTYPE svg PUBLIC "-//W3C//DTD SVG 1.1//EN" "http://www.w3.org/Graphics/SVG/1.1/DTD/svg11.dtd">
<svg width="100%" height="100%" viewBox="0 0 611 610" version="1.1" xmlns="http://www.w3.org/2000/svg" xmlns:xlink="http://www.w3.org/1999/xlink" xml:space="preserve" xmlns:serif="http://www.serif.com/" style="fill-rule:evenodd;clip-rule:evenodd;stroke-linejoin:round;stroke-miterlimit:2;">
    <g transform="matrix(0.1,0,0,-0.1,-294.995,619.942)">
        <path d="M3368,6184C3227,6150 3076,6031 3011,5903C2946,5773 2950,5970 2950,3150C2950,330 2946,527 3011,397C3053,315 3165,203 3247,161C3377,96 3180,100 6000,100C8820,100 8623,96 8753,161C8835,203 8947,315 8989,397C9054,527 9050,330 9050,3150C9050,5970 9054,5773 8989,5903C8947,5985 8835,6097 8753,6139C8623,6204 8821,6200 5995,6199C3840,6198 3416,6196 3368,6184ZM4561,5483C4768,5401 4921,5224 4965,5015C5037,4676 4833,4344 4499,4254C4413,4231 4255,4231 4171,4254C3886,4331 3690,4587 3690,4881C3690,5144 3852,5380 4101,5479C4201,5518 4206,5519 4355,5516C4473,5513 4492,5510 4561,5483ZM7556,3971C7816,3918 8016,3787 8159,3577C8215,3495 8288,3330 8319,3215C8398,2923 8410,2724 8410,1700C8410,946 8409,903 8391,864C8381,841 8359,813 8342,802C8312,780 8306,780 7898,780C7506,780 7483,781 7453,800C7435,810 7413,834 7403,852C7386,883 7385,943 7379,1770C7373,2760 7375,2720 7300,2877C7214,3054 7072,3140 6865,3141C6756,3141 6719,3134 6634,3095C6480,3025 6375,2869 6313,2620C6299,2563 6296,2450 6293,1725C6290,809 6292,848 6226,802C6194,780 6192,780 5796,780C5359,780 5363,779 5318,842L5295,875L5295,3855L5317,3886C5368,3957 5353,3955 5780,3958L6165,3961L6209,3938C6279,3901 6290,3870 6290,3708C6290,3632 6293,3570 6298,3571C6302,3571 6328,3601 6355,3637C6471,3788 6651,3906 6839,3955C7056,4010 7332,4017 7556,3971ZM4767,3924C4788,3907 4811,3882 4817,3869C4827,3850 4830,3520 4830,2365C4830,906 4830,885 4810,852C4799,834 4776,811 4758,800C4727,781 4707,780 4334,780C3945,780 3943,780 3910,803C3891,815 3867,841 3856,860C3835,895 3835,900 3835,2365C3835,3746 3836,3837 3852,3867C3871,3902 3923,3945 3955,3953C3966,3956 4144,3957 4352,3957L4728,3955L4767,3924Z" style="fill:white;fill-rule:nonzero;"/>
    </g>
</svg>
