<?xml version="1.0" encoding="UTF-8" standalone="no"?>
<!DOCTYPE svg PUBLIC "-//W3C//DTD SVG 1.1//EN" "http://www.w3.org/Graphics/SVG/1.1/DTD/svg11.dtd">
<svg width="100%" height="100%" viewBox="0 0 204 293" version="1.1" xmlns="http://www.w3.org/2000/svg" xmlns:xlink="http://www.w3.org/1999/xlink" xml:space="preserve" xmlns:serif="http://www.serif.com/" style="fill-rule:evenodd;clip-rule:evenodd;stroke-linejoin:round;stroke-miterlimit:2;">
    <g transform="matrix(1,0,0,1,-642.343,-559.281)">
        <g>
            <g transform="matrix(1,0,0,1,-81.027,-16.1106)">
                <path d="M756.821,751.999C756.962,751.894 757.12,751.784 757.24,751.683C757.903,751.124 758.789,750.558 759.84,749.944C760.99,749.272 762.31,748.547 763.818,747.831C766.691,746.468 770.087,744.995 774.033,743.869C778.5,742.595 783.548,741.692 788.945,741.223C789.539,741.204 790.006,740.706 789.987,740.112C789.968,739.519 789.47,739.052 788.876,739.071C784.03,738.984 779.434,739.377 775.196,739.892C769.939,740.53 765.282,741.407 761.508,742.616C759.761,743.176 758.218,743.805 756.893,744.458C754.863,745.459 753.35,746.577 752.336,747.559C750.853,748.994 750.298,750.486 750.249,751.675C750.179,753.535 750.908,755.331 752.665,756.932C754.232,758.361 756.87,759.715 760.567,760.839C769.081,763.427 783.904,765.159 803.552,766.314C814.077,766.986 828.014,765.969 841.607,764.188C846.705,763.52 851.772,762.846 856.548,761.91C858.841,761.461 861.04,760.913 863.178,760.377C869.063,758.903 874.248,757.381 878.497,756.202C879.082,756.099 879.474,755.54 879.371,754.955C879.268,754.37 878.71,753.978 878.124,754.081C875.06,754.306 871.527,754.526 867.589,754.83C864.299,755.084 860.792,755.35 857.1,755.678C856.168,755.761 855.23,755.85 854.283,755.963C852.138,756.218 849.957,756.539 847.748,756.837C840.573,757.806 833.125,758.759 825.985,759.381C817.937,760.082 810.294,760.424 803.932,760.058C791.209,759.256 780.568,758.225 772.433,756.881C766.419,755.887 761.84,754.749 758.904,753.351C758.107,752.971 757.456,752.593 756.985,752.169C756.933,752.122 756.874,752.06 756.821,751.999ZM756.655,752.129C756.502,752.254 756.42,752.359 756.534,752.409C756.651,752.46 756.661,752.296 756.655,752.129Z" style="fill:rgb(229,95,93);"/>
            </g>
            <g transform="matrix(1,0,0,1,-81.027,-16.1106)">
                <path d="M770.168,780.708C770.235,780.28 770.45,779.895 770.779,779.581C771.772,778.632 772.634,777.557 773.715,777.204C775.617,776.998 776.994,775.286 776.787,773.384C776.581,771.482 774.869,770.105 772.967,770.311C770.571,770.076 767.794,770.883 765.159,772.107C763.953,772.667 763.006,773.54 762.053,774.421C760.519,775.838 759.665,777.754 759.191,779.81C758.885,781.141 758.989,782.587 759.288,784.103C759.673,785.929 760.754,787.773 762.786,789.328C764.37,790.54 766.779,791.692 769.813,792.566C778.798,795.154 794.283,795.993 804.026,795.91C810.841,795.847 819.693,794.959 828.818,793.704C842.225,791.861 856.214,789.277 864.965,787.66C866.854,787.356 868.141,785.576 867.837,783.687C867.533,781.798 865.753,780.511 863.864,780.815C855.135,782.01 841.182,783.913 827.839,785.126C819.103,785.92 810.643,786.409 804.157,786.175C798.207,785.953 789.979,785.225 782.686,784.035C777.548,783.197 772.913,782.172 770.211,780.728L770.168,780.708ZM770.148,781.108C770.158,781.299 770.197,781.496 770.266,781.698C770.234,781.561 770.197,781.338 770.148,781.108ZM770.033,780.651C769.933,780.334 769.798,780.132 769.611,780.347C769.503,780.471 769.791,780.558 770.033,780.651Z" style="fill:rgb(229,95,93);"/>
            </g>
            <g transform="matrix(1,0,0,1,-81.027,-16.1106)">
                <path d="M784.937,810.527C784.952,810.458 784.921,810.369 784.831,810.258C785.272,810.017 785.667,809.678 785.986,809.248C787.182,807.635 786.844,805.355 785.231,804.159C785.024,803.969 784.735,803.862 784.434,803.696C783.911,803.406 782.852,802.8 780.373,804.265C779.784,804.613 778.616,805.589 775.995,808.071C774.812,809.192 774.578,810.526 774.433,811.71C774.166,813.879 775.948,816.73 780.041,818.957C783.342,820.752 788.683,822.424 793.844,823.618C797.309,824.42 800.676,824.885 803.179,825.168C806.321,825.397 809.606,825.595 812.939,825.51C816.129,825.429 819.351,825.154 822.529,824.769C833.638,823.421 844.043,820.984 850.484,819.602C852.476,819.353 853.89,817.533 853.64,815.541C853.39,813.549 851.57,812.134 849.578,812.384C844.063,812.577 835.638,812.682 826.432,812.693C821.963,812.698 817.35,812.594 812.815,812.547C809.783,812.516 806.795,812.607 803.933,812.475C800.379,812.487 794.848,812.091 789.997,811.38C788.143,811.108 786.399,810.88 784.937,810.527ZM784.831,810.258L784.781,810.198C784.679,810.088 784.552,810.164 784.382,810.384L784.503,810.418L784.296,810.502L784.265,810.546L784.133,810.756C784.542,810.759 784.9,810.711 784.937,810.527L784.606,810.448L784.503,810.418L784.601,810.378L784.831,810.258ZM781.375,810.298C781.729,810.511 782.142,810.706 782.708,810.697C782.25,810.655 781.797,810.524 781.375,810.298ZM782.844,810.081C782.774,809.778 782.675,809.598 782.514,809.822C782.408,809.969 782.575,810.037 782.844,810.081Z" style="fill:rgb(229,95,93);"/>
            </g>
            <g transform="matrix(1,0,0,1,-81.027,-16.1106)">
                <path d="M735,830.696C735.67,830.039 736.824,829.231 737.632,828.602C739.297,827.306 741.18,825.947 743.264,824.672C748.22,821.64 753.665,818.863 757.624,817.165C758.744,816.845 759.394,815.675 759.074,814.555C758.753,813.435 757.584,812.785 756.464,813.105C750.107,814.1 740.042,816.356 733.063,819.608C729.042,821.483 726.224,824.04 724.74,826.308C723.762,827.802 723.461,829.407 723.367,830.937C723.338,834.118 724.687,836.814 727.415,838.994C729.232,840.446 731.89,841.707 735.078,842.757C737.929,843.697 741.274,844.521 744.624,845.587C750.87,847.559 760.607,848.982 771.497,850.078C784.445,851.381 799.052,852.29 811.175,852.239C821.763,852.269 834.593,851.365 846.796,849.999C852.943,849.31 858.935,848.547 864.385,847.679C871.323,846.575 877.372,845.33 881.844,844.39C886.201,843.43 890.885,842.208 894.925,840.086C897.885,838.531 900.526,836.57 902.496,833.962C904.131,831.799 904.748,830.128 904.891,828.83C905.126,826.698 904.342,825.363 903.764,824.533C903.13,823.555 901.821,823.276 900.844,823.911C899.867,824.545 899.588,825.853 900.222,826.83C900.411,827.147 900.707,827.68 900.392,828.535C900.151,829.189 899.604,829.91 898.757,830.816C897.049,832.642 894.852,833.869 892.483,834.832C888.759,836.347 884.552,837.033 880.653,837.53C876.347,838.121 870.559,838.718 863.977,839.473C856.348,840.347 847.661,841.382 838.935,842.147C829.244,842.997 819.519,843.631 811.208,843.593C801.368,843.504 789.828,842.975 778.995,841.713C766.519,840.26 755.026,837.905 748.228,835.298C744.959,834.045 741.696,832.991 738.899,831.936C737.729,831.496 735.829,831.172 735,830.696ZM734.954,830.743C734.469,831.229 734.268,831.627 734.702,831.797C734.998,831.913 734.971,831.238 734.956,830.956L734.954,830.743ZM734.954,830.668C734.95,830.233 734.922,829.656 734.714,829.913C734.473,830.212 734.605,830.456 734.954,830.668Z" style="fill:rgb(229,95,93);"/>
            </g>
            <g transform="matrix(1,0,0,1,-81.027,-16.1106)">
                <path d="M915.035,838.056C911.811,840.95 908.473,843.088 905.102,845.073C903.613,845.95 902.137,846.776 900.644,847.572C895.576,850.277 890.318,852.368 884.758,853.992C877.583,856.162 868.334,857.884 858.618,859.17C849.701,860.35 840.389,861.169 831.877,861.397C818.498,861.972 802.491,862.372 785.997,861.625C775.869,861.166 765.569,860.32 755.576,858.658C755.129,858.569 754.694,858.86 754.605,859.307C754.517,859.754 754.808,860.189 755.255,860.278C765.226,862.58 775.549,864.171 785.742,865.175C802.319,866.809 818.484,866.967 831.994,866.98C840.706,866.847 850.254,866.198 859.383,865.016C869.455,863.712 879.014,861.771 886.435,859.479C892.358,857.587 898.085,855.437 903.302,852.149C904.866,851.164 906.384,850.089 907.814,848.856C910.952,846.148 913.688,842.933 916.278,839.144C916.578,838.801 916.543,838.279 916.201,837.979C915.858,837.679 915.336,837.713 915.035,838.056Z" style="fill:rgb(229,95,93);"/>
            </g>
            <g transform="matrix(1,0,0,1,-81.027,-16.1106)">
                <path d="M845.67,584.854C844.086,606.095 839.453,618.315 833.539,626.8C829.216,633.002 823.919,636.549 818.548,640.038C815.26,642.173 811.935,644.219 808.703,646.537C805.204,649.046 801.888,651.916 798.727,655.251C796.15,658.199 793.468,661.138 791.157,664.319C784.918,672.905 780.329,682.446 781.677,693.964C782.33,699.548 784.118,705.659 788.245,712.259C793.585,720.799 802.393,730.304 816.543,741.257C817.156,741.846 818.132,741.828 818.721,741.215C819.311,740.603 819.292,739.627 818.679,739.037C805.176,722.986 798.921,710.785 796.741,700.866C794.842,692.225 797.415,686.021 801.232,680.52C804.396,675.96 808.485,671.942 812.466,667.989C817.49,662.252 823.466,658.514 828.903,654.033C835.425,648.658 841.529,642.705 845.609,633.601C848.941,626.168 851.196,616.811 850.794,603.761C850.619,598.102 849.957,591.902 848.749,584.729C848.714,583.88 847.996,583.218 847.147,583.253C846.297,583.287 845.636,584.005 845.67,584.854Z" style="fill:rgb(229,95,93);"/>
            </g>
            <g transform="matrix(-1,0,0,1,1570.16,-9.07501)">
                <path d="M779.653,634.33C790.138,639.498 799.088,644.253 806.544,649.33C813.537,654.093 818.935,659.094 822.89,664.244C827.728,670.546 830.239,677.329 830.428,684.272C830.606,690.799 828.568,697.573 824.202,704.593C821.134,708.969 818.779,712.29 817.081,715.147C815.718,717.441 814.57,719.058 814.283,720.82C813.901,723.165 814.309,725.34 815.588,728.452C816.728,731.228 818.086,734.406 819.97,738.528C820.863,739.83 820.532,741.612 819.23,742.506C817.928,743.399 816.146,743.068 815.253,741.766C809.974,736.319 806.534,732.687 804.38,729.245C802.521,726.275 801.982,723.397 801.757,720.346C801.35,714.837 803.899,708.381 809.101,696.157C811.114,692.119 811.688,688.386 811.576,684.824C811.46,681.119 810.441,677.558 808.353,673.867C805.779,669.317 802.321,664.594 797.699,659.59C791.834,653.241 784.914,646.46 776.479,639.09C775.166,638.214 774.81,636.436 775.686,635.123C776.562,633.809 778.34,633.454 779.653,634.33Z" style="fill:rgb(229,95,93);"/>
            </g>
            <g transform="matrix(1,0,0,1,-81.027,-16.1106)">
                <path d="M890.89,741.858C898.787,744.181 904.428,746.837 908.208,749.673C910.613,751.478 911.625,753.385 911.153,755.625C910.76,757.487 909.307,759.26 907.51,761.46C905.853,763.49 903.733,765.624 901.29,768.044C898.793,770.516 896.052,773.256 892.871,776.227C888.832,780.002 884.549,784.178 879.325,788.602C877.982,789.433 877.567,791.197 878.397,792.54C879.228,793.883 880.993,794.298 882.335,793.468C888.86,790.668 894.532,788.125 899.527,785.308C903.724,782.941 907.298,780.512 910.306,778.046C913.671,775.288 916.263,772.438 918.227,769.767C921.529,765.277 923.201,761.051 923.46,757.327C923.839,751.886 922.161,746.988 917.159,743.344C912.282,739.79 904.052,737.147 891.917,736.229C890.363,735.946 888.872,736.977 888.589,738.53C888.306,740.083 889.337,741.574 890.89,741.858Z" style="fill:rgb(229,95,93);"/>
            </g>
        </g>
    </g>
</svg>
