<?xml version="1.0" encoding="UTF-8" standalone="no"?>
<!DOCTYPE svg PUBLIC "-//W3C//DTD SVG 1.1//EN" "http://www.w3.org/Graphics/SVG/1.1/DTD/svg11.dtd">
<svg width="100%" height="100%" viewBox="0 0 268 210" version="1.1" xmlns="http://www.w3.org/2000/svg" xmlns:xlink="http://www.w3.org/1999/xlink" xml:space="preserve" xmlns:serif="http://www.serif.com/" style="fill-rule:evenodd;clip-rule:evenodd;stroke-linecap:round;stroke-linejoin:round;stroke-miterlimit:1.5;">
    <g transform="matrix(1,0,0,1,-340.141,-737.681)">
        <g>
            <g>
                <g transform="matrix(1,0,0,1,-253.552,699.321)">
                    <circle cx="726.67" cy="111.77" r="54.342" style="fill:none;stroke:rgb(229,95,93);stroke-width:6.25px;"/>
                </g>
                <g transform="matrix(1.29338,0,0,1.29338,-466.741,666.53)">
                    <circle cx="726.67" cy="111.77" r="54.342" style="fill:none;stroke:rgb(229,95,93);stroke-width:4.83px;"/>
                </g>
                <g transform="matrix(0.946396,0.745024,-0.645644,0.820155,-154.054,98.3946)">
                    <path d="M790.378,273.164C790.378,270.237 788.322,267.865 785.786,267.865L766.69,267.865C764.154,267.865 762.098,270.237 762.098,273.164L762.098,317.738C762.098,320.665 764.154,323.038 766.69,323.038L785.786,323.038C788.322,323.038 790.378,320.665 790.378,317.738L790.378,273.164Z" style="fill:none;stroke:rgb(229,95,93);stroke-width:5.55px;"/>
                </g>
                <g transform="matrix(0.798569,0.601904,-0.601904,0.798569,-19.569,247.827)">
                    <rect x="722.108" y="223.708" width="18.552" height="36.766" style="fill:none;stroke:rgb(229,95,93);stroke-width:6.25px;"/>
                </g>
            </g>
            <path d="M343.266,770.173C368.144,767.568 386.08,834.525 405.183,861.113" style="fill:none;stroke:rgb(229,95,93);stroke-width:6.25px;"/>
            <path d="M437.248,892.214C459.34,899.75 491.454,911.819 527.99,881.376C565.483,850.136 576.316,770.98 604.894,770.98" style="fill:none;stroke:rgb(229,95,93);stroke-width:6.25px;"/>
        </g>
    </g>
</svg>
