<?xml version="1.0" encoding="UTF-8" standalone="no"?>
<!DOCTYPE svg PUBLIC "-//W3C//DTD SVG 1.1//EN" "http://www.w3.org/Graphics/SVG/1.1/DTD/svg11.dtd">
<svg width="100%" height="100%" viewBox="0 0 800 800" version="1.1" xmlns="http://www.w3.org/2000/svg" xmlns:xlink="http://www.w3.org/1999/xlink" xml:space="preserve" xmlns:serif="http://www.serif.com/" style="fill-rule:evenodd;clip-rule:evenodd;stroke-linejoin:round;stroke-miterlimit:2;">
    <g transform="matrix(1.01894,0,0,1.01978,-15.1481,-15.8248)">
        <path d="M800,79.901C800,44.367 771.127,15.518 735.564,15.518L79.303,15.518C43.74,15.518 14.867,44.367 14.867,79.901L14.867,735.617C14.867,771.151 43.74,800 79.303,800L735.564,800C771.127,800 800,771.151 800,735.617L800,79.901ZM761.382,79.901L761.382,735.617C761.382,749.855 749.813,761.414 735.564,761.414L79.303,761.414C65.053,761.414 53.484,749.855 53.484,735.617L53.484,79.901C53.484,65.663 65.053,54.104 79.303,54.104L735.564,54.104C749.813,54.104 761.382,65.663 761.382,79.901Z" style="fill:white;"/>
    </g>
    <g transform="matrix(0.953685,0,0,0.958316,7.97069,11.0351)">
        <circle cx="179.288" cy="176.834" r="71.919" style="fill:white;"/>
    </g>
    <rect x="120.635" y="300.567" width="116.582" height="379.291" style="fill:white;"/>
    <g transform="matrix(1,0,0,1,192.049,0)">
        <path d="M237.217,300.567L120.635,300.567L120.635,679.859L237.217,679.859L237.217,465.433C237.217,465.433 241.203,392.39 310.838,394.088C373.717,395.621 370.856,472.497 370.856,472.497L369.256,679.859L489.428,679.859L488.605,438.447C488.605,438.447 486.609,361.878 449.906,325.061C419.012,294.07 370.76,290.795 344.952,291.049C264.226,291.841 237.217,349.318 237.217,349.318L237.217,300.567Z" style="fill:white;"/>
    </g>
</svg>
