<?xml version="1.0" encoding="UTF-8" standalone="no"?>
<!DOCTYPE svg PUBLIC "-//W3C//DTD SVG 1.1//EN" "http://www.w3.org/Graphics/SVG/1.1/DTD/svg11.dtd">
<svg width="100%" height="100%" viewBox="0 0 304 299" version="1.1" xmlns="http://www.w3.org/2000/svg" xmlns:xlink="http://www.w3.org/1999/xlink" xml:space="preserve" xmlns:serif="http://www.serif.com/" style="fill-rule:evenodd;clip-rule:evenodd;stroke-linecap:round;stroke-linejoin:round;stroke-miterlimit:1.5;">
    <g transform="matrix(1,0,0,1,-1246.74,-28.3419)">
        <g transform="matrix(1.23842,0,0,1.23842,259.479,-84.2335)">
            <g transform="matrix(1,0,0,1,-20.6931,-1.49951)">
                <circle cx="887.235" cy="118.802" r="23.877" style="fill:none;stroke:rgb(229,95,93);stroke-width:5.05px;"/>
            </g>
            <g transform="matrix(0.607552,0,0,0.607552,275.182,182.167)">
                <circle cx="887.235" cy="118.802" r="23.877" style="fill:none;stroke:rgb(229,95,93);stroke-width:8.31px;"/>
            </g>
            <g transform="matrix(1.13899,0,0,1.13899,-79.5898,166.785)">
                <circle cx="887.235" cy="118.802" r="23.877" style="fill:none;stroke:rgb(229,95,93);stroke-width:4.43px;"/>
            </g>
            <path d="M856,137.664L820.47,239.839" style="fill:none;stroke:rgb(229,95,93);stroke-width:5.05px;"/>
            <path d="M828.73,249.902L915.481,209.701" style="fill:none;stroke:rgb(229,95,93);stroke-width:5.05px;"/>
            <path d="M884.502,133.369L920.942,188.752" style="fill:none;stroke:rgb(229,95,93);stroke-width:5.05px;"/>
            <path d="M945.665,191.934L993.043,151.72" style="fill:none;stroke:rgb(229,95,93);stroke-width:5.05px;"/>
            <path d="M945.665,209.701L1006.71,243.862" style="fill:none;stroke:rgb(229,95,93);stroke-width:5.05px;"/>
            <path d="M930.964,217.313L930.964,274.904" style="fill:none;stroke:rgb(229,95,93);stroke-width:5.05px;"/>
            <path d="M1006.71,259.48L956.342,287.591" style="fill:none;stroke:rgb(229,95,93);stroke-width:5.05px;"/>
            <g transform="matrix(0.63208,0,0,0.63208,369.77,127.056)">
                <circle cx="887.235" cy="118.802" r="23.877" style="fill:none;stroke:rgb(229,95,93);stroke-width:7.98px;"/>
            </g>
            <g transform="matrix(0.574848,0,0,0.574848,493.159,72.8865)">
                <circle cx="887.235" cy="118.802" r="23.877" style="fill:none;stroke:rgb(229,95,93);stroke-width:8.78px;"/>
            </g>
            <g transform="matrix(0.71384,0,0,0.71384,389.362,165.096)">
                <circle cx="887.235" cy="118.802" r="23.877" style="fill:none;stroke:rgb(229,95,93);stroke-width:7.07px;"/>
            </g>
        </g>
    </g>
</svg>
