<?xml version="1.0" encoding="UTF-8" standalone="no"?>
<!DOCTYPE svg PUBLIC "-//W3C//DTD SVG 1.1//EN" "http://www.w3.org/Graphics/SVG/1.1/DTD/svg11.dtd">
<svg width="100%" height="100%" viewBox="0 0 255 220" version="1.1" xmlns="http://www.w3.org/2000/svg" xmlns:xlink="http://www.w3.org/1999/xlink" xml:space="preserve" xmlns:serif="http://www.serif.com/" style="fill-rule:evenodd;clip-rule:evenodd;stroke-linecap:round;stroke-linejoin:round;stroke-miterlimit:1.5;">
    <g transform="matrix(1,0,0,1,-43.7543,-1000.39)">
        <g transform="matrix(1.30307,0,0,1.30307,-414.059,-285.585)">
            <g transform="matrix(0.860212,0,0,1,188.652,-108.603)">
                <path d="M191.907,1250.63C191.907,1182.83 198.364,1097.88 307.545,1097.88C411.718,1097.88 413.148,1192.32 413.148,1250.58" style="fill:none;stroke:rgb(229,95,93);stroke-width:5.14px;"/>
            </g>
            <g transform="matrix(0.860212,0,0,1,188.652,-108.603)">
                <path d="M191.907,1250.63L224.812,1252.78L230.409,1201.23L197.415,1195.34" style="fill:none;stroke:rgb(229,95,93);stroke-width:5.14px;"/>
            </g>
            <g transform="matrix(-0.860212,0,0,1,709.128,-108.603)">
                <path d="M191.907,1250.63L224.812,1252.78L230.409,1201.23L197.415,1195.34" style="fill:none;stroke:rgb(229,95,93);stroke-width:5.14px;"/>
            </g>
            <g transform="matrix(0.860212,0,0,1,188.652,-108.603)">
                <path d="M228.188,1226.79L258.506,1228.15L268.611,1195.34L280.678,1252.78L297.722,1182L313.71,1261.18L327.738,1207.64L336.939,1246.4L349.606,1227.13L375.853,1226.64" style="fill:none;stroke:rgb(229,95,93);stroke-width:5.14px;"/>
            </g>
        </g>
    </g>
</svg>
