<?xml version="1.0" encoding="UTF-8" standalone="no"?>
<!DOCTYPE svg PUBLIC "-//W3C//DTD SVG 1.1//EN" "http://www.w3.org/Graphics/SVG/1.1/DTD/svg11.dtd">
<svg width="100%" height="100%" viewBox="0 0 308 312" version="1.1" xmlns="http://www.w3.org/2000/svg" xmlns:xlink="http://www.w3.org/1999/xlink" xml:space="preserve" xmlns:serif="http://www.serif.com/" style="fill-rule:evenodd;clip-rule:evenodd;stroke-linecap:round;stroke-linejoin:round;stroke-miterlimit:1.5;">
    <g transform="matrix(1,0,0,1,-298.489,-35.0683)">
        <g transform="matrix(0.80777,0,0,0.80777,-350.534,-595.587)">
            <g transform="matrix(1,0,0,1,-1.14572,-4.01001)">
                <path d="M1081.8,831.449C1082.55,780.561 906.098,768.496 905.327,831.282C905.154,845.406 904.4,873.832 904.4,873.832L995.553,873.513L995.206,886.783C995.206,886.783 991.934,886.634 860.863,887.961C785.464,888.725 797.05,1067.15 860.149,1065.71C871.128,1065.46 893.092,1066.12 893.092,1066.12C893.092,1066.12 889.13,1005.3 908.583,986.541C941.721,954.593 1037.88,984.947 1068.49,958.758C1089.64,940.665 1081.2,872.228 1081.8,831.449Z" style="fill:none;stroke:rgb(229,95,93);stroke-width:7.74px;"/>
            </g>
            <g transform="matrix(-1,-1.22465e-16,1.22465e-16,-1,1989.21,1951.44)">
                <path d="M1081.8,831.449C1082.55,780.561 906.098,768.496 905.327,831.282C905.154,845.406 904.4,873.832 904.4,873.832L995.553,873.513L995.206,886.783C995.206,886.783 991.934,886.634 860.863,887.961C785.464,888.725 797.05,1067.15 860.149,1065.71C871.128,1065.46 893.092,1066.12 893.092,1066.12C893.092,1066.12 889.13,1005.3 908.583,986.541C941.721,954.593 1037.88,984.947 1068.49,958.758C1089.64,940.665 1081.2,872.228 1081.8,831.449Z" style="fill:none;stroke:rgb(229,95,93);stroke-width:7.74px;"/>
            </g>
            <g transform="matrix(1,0,0,1,10.5762,13.9879)">
                <circle cx="932.434" cy="820.825" r="15.409" style="fill:none;stroke:rgb(229,95,93);stroke-width:7.74px;"/>
            </g>
            <g transform="matrix(1,0,0,1,111.048,297.002)">
                <circle cx="932.434" cy="820.825" r="15.409" style="fill:none;stroke:rgb(229,95,93);stroke-width:7.74px;"/>
            </g>
        </g>
    </g>
</svg>
