<?xml version="1.0" encoding="UTF-8" standalone="no"?>
<!DOCTYPE svg PUBLIC "-//W3C//DTD SVG 1.1//EN" "http://www.w3.org/Graphics/SVG/1.1/DTD/svg11.dtd">
<svg width="100%" height="100%" viewBox="0 0 182 33" version="1.1" xmlns="http://www.w3.org/2000/svg" xmlns:xlink="http://www.w3.org/1999/xlink" xml:space="preserve" xmlns:serif="http://www.serif.com/" style="fill-rule:evenodd;clip-rule:evenodd;stroke-linejoin:round;stroke-miterlimit:2;">
    <g transform="matrix(1,0,0,1,-1441.27,-735.769)">
        <g transform="matrix(1,0,0,1,-19.7668,62.9468)">
            <path d="M1621.16,673.144L1620.84,672.823L1610,683.666L1599.15,672.823L1588.89,683.09L1578.62,672.823L1567.58,683.857L1556.55,672.823L1546.25,683.12L1535.95,672.823L1524.95,683.828L1513.94,672.823L1503.45,683.317L1492.96,672.823L1482.58,683.199L1472.2,672.823L1461.04,683.987L1471.41,694.364L1471.41,694.364L1482.58,705.528L1482.58,705.528L1482.58,705.528L1493.07,695.035L1503.57,705.528L1514.57,694.524L1525.58,705.528L1535.87,695.231L1546.17,705.528L1557.21,694.494L1568.24,705.528L1578.51,695.261L1588.78,705.528L1599.62,694.686L1610.46,705.528L1621.16,694.83L1631.86,705.528L1643.02,694.364L1621.48,672.823L1621.16,673.144Z" style="fill:rgb(229,95,93);"/>
        </g>
    </g>
</svg>
